<svg width="14" height="14" viewBox="0 0 14 14" fill="none" xmlns="http://www.w3.org/2000/svg">
<path d="M4.33448 2.39971L2.66802 3.33294L3.60124 1.66647L2.66802 0L4.33448 0.933222L6.00095 0L5.06773 1.66647L6.00095 3.33294L4.33448 2.39971ZM12.3335 8.93227L14 7.99905L13.0668 9.66552L14 11.332L12.3335 10.3988L10.6671 11.332L11.6003 9.66552L10.6671 7.99905L12.3335 8.93227ZM14 0L13.0668 1.66647L14 3.33294L12.3335 2.39971L10.6671 3.33294L11.6003 1.66647L10.6671 0L12.3335 0.933222L14 0ZM8.22735 7.18581L9.85383 5.55934L8.44066 4.14617L6.81419 5.77265L8.22735 7.18581ZM8.91394 3.52625L10.4738 5.08606C10.7337 5.3327 10.7337 5.76598 10.4738 6.02595L2.69468 13.805C2.43471 14.065 2.00143 14.065 1.75479 13.805L0.194977 12.2452C-0.0649923 11.9986 -0.0649923 11.5653 0.194977 11.3053L7.97405 3.52625C8.23402 3.26628 8.6673 3.26628 8.91394 3.52625Z" fill="white"/>
</svg>
