<svg width="20" height="20" viewBox="0 0 20 20" fill="none" xmlns="http://www.w3.org/2000/svg">
<g id="Frame 27">
<path id="Vector" d="M12.4189 4.51854C14.0964 6.27958 14.3117 8.99177 13.0647 11.0071C13.1724 11.1012 13.2621 11.2048 13.3877 11.299C13.5671 11.4497 13.8093 11.638 14.1143 11.8546C14.4193 12.0806 14.6167 12.2219 14.7064 12.2972C15.0831 12.5892 15.3612 12.834 15.5496 13.0318C15.8366 13.3332 16.0878 13.6439 16.3031 13.9735C16.5274 14.3031 16.6978 14.6233 16.8324 14.9529C16.958 15.2825 17.0208 15.5933 16.9939 15.8947C16.9759 16.196 16.8683 16.4503 16.6709 16.6575C16.4736 16.8646 16.2314 16.9777 15.9443 16.9965C15.6662 17.0153 15.3612 16.9588 15.0562 16.8176C14.7422 16.6857 14.4283 16.4974 14.1233 16.2619C13.8093 16.0359 13.5133 15.7722 13.2262 15.4709C13.0378 15.2731 12.8046 14.9812 12.5355 14.5951C12.4458 14.4726 12.3112 14.2655 12.1139 13.9735C11.9165 13.6722 11.755 13.4367 11.6115 13.239C11.468 13.0506 11.3514 12.9094 11.2168 12.7681C9.35991 13.7946 7.00962 13.4838 5.43977 11.8452C3.52008 9.82049 3.52008 6.53385 5.43977 4.51854C7.36844 2.49382 10.4902 2.49382 12.4189 4.51854ZM11.154 10.508C12.374 9.21778 12.374 7.13656 11.154 5.84638C9.92505 4.55621 7.93359 4.55621 6.71359 5.84638C5.48463 7.13656 5.48463 9.21778 6.71359 10.508C7.93359 11.7981 9.92505 11.7981 11.154 10.508Z" fill="#3A5EAF"/>
</g>
</svg>
