<svg width="165" height="62" viewBox="0 0 165 62" fill="none" xmlns="http://www.w3.org/2000/svg">
<g filter="url(#filter0_d_2245_2138)">
<path d="M23.089 3.24485C26.5668 1.23693 30.8516 1.23693 34.3294 3.24484L45.8029 9.86903C49.2807 11.8769 51.4231 15.5877 51.4231 19.6036V32.852C51.4231 36.8678 49.2807 40.5786 45.8029 42.5865L34.3294 49.2107C30.8516 51.2186 26.5668 51.2186 23.089 49.2107L11.6155 42.5865C8.13773 40.5786 5.9953 36.8678 5.9953 32.8519V19.6036C5.9953 15.5877 8.13772 11.8769 11.6155 9.86903L23.089 3.24485Z" fill="#D9F0FB"/>
</g>
<path d="M18.6444 27.5079C17.928 27.5079 17.3553 27.3036 16.9265 26.8949C16.4976 26.4863 16.2832 25.9388 16.2832 25.2527C16.2832 24.5161 16.5456 23.9283 17.0703 23.4893C17.595 23.0504 18.3013 22.8309 19.1893 22.8309C19.7544 22.8309 20.3901 22.9167 21.0965 23.0882V22.0892C21.0965 21.5443 20.9729 21.1609 20.7256 20.9389C20.4784 20.7169 20.0571 20.6059 19.4618 20.6059C18.7655 20.6059 18.0844 20.7068 17.4184 20.9086C17.1863 20.9793 17.04 21.0146 16.9795 21.0146C16.8584 21.0146 16.7978 20.9238 16.7978 20.7421V20.3335C16.7978 20.2023 16.818 20.1064 16.8584 20.0459C16.8987 19.9853 16.9795 19.9298 17.1006 19.8794C17.4134 19.7381 17.8094 19.6246 18.2887 19.5388C18.768 19.453 19.2448 19.4102 19.7191 19.4102C20.6777 19.4102 21.3841 19.6094 21.8381 20.008C22.2922 20.4066 22.5193 21.0146 22.5193 21.8319V27.0085C22.5193 27.2103 22.4184 27.3112 22.2165 27.3112H21.5657C21.374 27.3112 21.263 27.2153 21.2327 27.0236L21.157 26.5241C20.7937 26.8369 20.3926 27.0791 19.9537 27.2506C19.5148 27.4222 19.0783 27.5079 18.6444 27.5079ZM19.0077 26.3727C19.3407 26.3727 19.6888 26.3072 20.0521 26.176C20.4153 26.0448 20.7635 25.8531 21.0965 25.6008V24.0569C20.5516 23.9257 20.0168 23.8602 19.492 23.8602C18.3518 23.8602 17.7817 24.2991 17.7817 25.177C17.7817 25.5604 17.8876 25.8556 18.0995 26.0625C18.3114 26.2693 18.6142 26.3727 19.0077 26.3727Z" fill="#555555"/>
<path d="M26.4266 27.3113C26.2753 27.3113 26.1668 27.2835 26.1012 27.228C26.0356 27.1725 25.9726 27.059 25.912 26.8874L23.6719 20.1973C23.6113 20.0157 23.5811 19.8996 23.5811 19.8492C23.5811 19.7079 23.6567 19.6373 23.8081 19.6373H24.6709C24.8323 19.6373 24.9458 19.665 25.0114 19.7205C25.077 19.776 25.135 19.8895 25.1855 20.0611L26.8353 25.7825L28.3489 20.0611C28.3994 19.8895 28.4599 19.776 28.5305 19.7205C28.6012 19.665 28.7122 19.6373 28.8635 19.6373H29.5598C29.7112 19.6373 29.8222 19.665 29.8928 19.7205C29.9634 19.776 30.024 19.8895 30.0744 20.0611L31.6032 25.8582L33.2984 20.0611C33.3489 19.8895 33.4069 19.776 33.4725 19.7205C33.5381 19.665 33.6516 19.6373 33.813 19.6373H34.6304C34.7817 19.6373 34.8574 19.7079 34.8574 19.8492C34.8574 19.8996 34.8271 20.0157 34.7666 20.1973L32.4659 26.8874C32.4054 27.059 32.3423 27.1725 32.2767 27.228C32.2111 27.2835 32.1027 27.3113 31.9513 27.3113H31.2096C31.0583 27.3113 30.9473 27.281 30.8766 27.2204C30.806 27.1599 30.7455 27.0438 30.695 26.8723L29.1814 21.3022L27.6829 26.8723C27.6325 27.0438 27.5719 27.1599 27.5013 27.2204C27.4307 27.281 27.3197 27.3113 27.1683 27.3113H26.4266Z" fill="#555555"/>
<path d="M38.2186 27.5382C37.371 27.5382 36.6092 27.397 35.9331 27.1144C35.812 27.064 35.7288 27.0085 35.6833 26.9479C35.6379 26.8874 35.6152 26.7915 35.6152 26.6603V26.2365C35.6152 26.0549 35.6758 25.9641 35.7969 25.9641C35.8675 25.9641 35.9936 25.9943 36.1753 26.0549C36.8413 26.2668 37.5325 26.3727 38.2489 26.3727C38.7434 26.3727 39.1192 26.2769 39.3765 26.0852C39.6339 25.8934 39.7625 25.6159 39.7625 25.2527C39.7625 25.0105 39.6843 24.8137 39.5279 24.6624C39.3715 24.511 39.0864 24.3596 38.6727 24.2083L37.3862 23.7239C36.2661 23.3102 35.706 22.6039 35.706 21.6049C35.706 20.949 35.9608 20.4192 36.4704 20.0156C36.98 19.612 37.6485 19.4102 38.476 19.4102C39.1318 19.4102 39.7726 19.5262 40.3982 19.7583C40.5193 19.7986 40.6051 19.8516 40.6555 19.9172C40.706 19.9828 40.7312 20.0812 40.7312 20.2124V20.621C40.7312 20.8027 40.6656 20.8935 40.5345 20.8935C40.4638 20.8935 40.3478 20.8683 40.1863 20.8178C39.6515 20.6564 39.1066 20.5756 38.5516 20.5756C37.5829 20.5756 37.0986 20.9036 37.0986 21.5595C37.0986 21.8218 37.1793 22.0287 37.3407 22.1801C37.5022 22.3314 37.8201 22.4979 38.2943 22.6795L39.4749 23.1336C40.0703 23.3657 40.4991 23.6407 40.7615 23.9585C41.0239 24.2764 41.155 24.6876 41.155 25.1921C41.155 25.9086 40.8876 26.4787 40.3528 26.9025C39.818 27.3263 39.1066 27.5382 38.2186 27.5382Z" fill="#555555"/>
<path d="M41.2361 28.7309C40.2643 28.7449 39.117 28.9651 38.2493 29.5839C37.9811 29.7805 38.0274 30.043 38.323 30.0056C39.3115 29.8838 41.4894 29.6213 41.8775 30.1274C42.2656 30.6238 41.4442 32.7142 41.0743 33.6425C40.9638 33.923 41.2037 34.0363 41.4528 33.8206C43.0776 32.4334 43.5026 29.537 43.1702 29.1151C43.0042 28.9092 42.208 28.7166 41.2361 28.7309ZM14.166 29.2054C13.9495 29.2328 13.8515 29.4977 14.0801 29.707C17.9349 33.231 23.0373 35.3522 28.7009 35.3522C32.7418 35.3522 37.4412 34.0681 40.6756 31.6489C41.2063 31.2497 40.7449 30.6429 40.2039 30.8912C36.5765 32.4449 32.6332 33.2016 29.0449 33.2016C23.7259 33.2016 18.5836 31.7182 14.4147 29.2683C14.3236 29.2137 14.2382 29.1964 14.166 29.2054Z" fill="#FF9900"/>
<path d="M70.5463 21.9051H65.7656L64.9442 24.2379H62.9892L67.0799 12.8038H69.2484L73.3391 24.2379H71.3677L70.5463 21.9051ZM70.0206 20.3772L68.1642 15.0709L66.2913 20.3772H70.0206ZM86.0755 15.038C86.7874 15.038 87.4226 15.1859 87.9811 15.4816C88.5507 15.7773 88.9942 16.2154 89.3118 16.7959C89.6404 17.3763 89.8047 18.0773 89.8047 18.8987V24.2379H87.9483V19.178C87.9483 18.3675 87.7457 17.7487 87.3404 17.3216C86.9352 16.8835 86.3821 16.6644 85.6812 16.6644C84.9802 16.6644 84.4217 16.8835 84.0055 17.3216C83.6002 17.7487 83.3976 18.3675 83.3976 19.178V24.2379H81.5412V19.178C81.5412 18.3675 81.3386 17.7487 80.9334 17.3216C80.5281 16.8835 79.9751 16.6644 79.2741 16.6644C78.5732 16.6644 78.0146 16.8835 77.5984 17.3216C77.1932 17.7487 76.9906 18.3675 76.9906 19.178V24.2379H75.1177V15.1859H76.9906V16.2209C77.2972 15.8485 77.686 15.5583 78.157 15.3502C78.6279 15.1421 79.1317 15.038 79.6684 15.038C80.3912 15.038 81.0374 15.1914 81.6069 15.498C82.1765 15.8047 82.6145 16.2483 82.9212 16.8287C83.195 16.2811 83.6222 15.8485 84.2026 15.5309C84.7831 15.2023 85.4074 15.038 86.0755 15.038ZM91.5636 19.6708C91.5636 18.7618 91.7497 17.9568 92.1221 17.2559C92.5055 16.5549 93.0202 16.0128 93.6664 15.6294C94.3235 15.2352 95.0464 15.038 95.8349 15.038C96.5468 15.038 97.1656 15.1804 97.6913 15.4652C98.228 15.739 98.6551 16.084 98.9728 16.5002V15.1859H100.862V24.2379H98.9728V22.8908C98.6551 23.3179 98.2225 23.6739 97.6749 23.9586C97.1273 24.2434 96.503 24.3858 95.8021 24.3858C95.0245 24.3858 94.3126 24.1886 93.6664 23.7943C93.0202 23.3891 92.5055 22.8306 92.1221 22.1187C91.7497 21.3958 91.5636 20.5799 91.5636 19.6708ZM98.9728 19.7037C98.9728 19.0794 98.8413 18.5373 98.5785 18.0773C98.3266 17.6173 97.9925 17.2668 97.5763 17.0259C97.1602 16.7849 96.7111 16.6644 96.2292 16.6644C95.7473 16.6644 95.2983 16.7849 94.8821 17.0259C94.4659 17.2559 94.1264 17.6009 93.8635 18.0608C93.6116 18.5099 93.4857 19.0465 93.4857 19.6708C93.4857 20.2951 93.6116 20.8427 93.8635 21.3137C94.1264 21.7846 94.4659 22.146 94.8821 22.3979C95.3092 22.6389 95.7583 22.7594 96.2292 22.7594C96.7111 22.7594 97.1602 22.6389 97.5763 22.3979C97.9925 22.157 98.3266 21.8065 98.5785 21.3465C98.8413 20.8756 98.9728 20.328 98.9728 19.7037ZM104.981 22.7101H109.088V24.2379H102.813V22.7101L106.936 16.7137H102.813V15.1859H109.088V16.7137L104.981 22.7101ZM114.981 24.3858C114.127 24.3858 113.355 24.1941 112.665 23.8108C111.975 23.4165 111.433 22.8689 111.038 22.1679C110.644 21.456 110.447 20.6346 110.447 19.7037C110.447 18.7837 110.65 17.9678 111.055 17.2559C111.46 16.544 112.013 15.9963 112.714 15.613C113.415 15.2297 114.198 15.038 115.063 15.038C115.929 15.038 116.712 15.2297 117.413 15.613C118.114 15.9963 118.667 16.544 119.072 17.2559C119.477 17.9678 119.68 18.7837 119.68 19.7037C119.68 20.6237 119.472 21.4396 119.055 22.1515C118.639 22.8634 118.07 23.4165 117.347 23.8108C116.635 24.1941 115.846 24.3858 114.981 24.3858ZM114.981 22.7594C115.463 22.7594 115.912 22.6444 116.328 22.4144C116.755 22.1844 117.1 21.8394 117.363 21.3794C117.626 20.9194 117.758 20.3608 117.758 19.7037C117.758 19.0465 117.632 18.4935 117.38 18.0444C117.128 17.5844 116.794 17.2394 116.378 17.0094C115.961 16.7794 115.512 16.6644 115.03 16.6644C114.549 16.6644 114.1 16.7794 113.683 17.0094C113.278 17.2394 112.955 17.5844 112.714 18.0444C112.473 18.4935 112.353 19.0465 112.353 19.7037C112.353 20.6784 112.599 21.4341 113.092 21.9708C113.596 22.4965 114.225 22.7594 114.981 22.7594ZM126.098 15.038C126.81 15.038 127.445 15.1859 128.004 15.4816C128.573 15.7773 129.017 16.2154 129.335 16.7959C129.652 17.3763 129.811 18.0773 129.811 18.8987V24.2379H127.955V19.178C127.955 18.3675 127.752 17.7487 127.347 17.3216C126.942 16.8835 126.388 16.6644 125.687 16.6644C124.987 16.6644 124.428 16.8835 124.012 17.3216C123.607 17.7487 123.404 18.3675 123.404 19.178V24.2379H121.531V15.1859H123.404V16.2209C123.711 15.8485 124.099 15.5583 124.57 15.3502C125.052 15.1421 125.562 15.038 126.098 15.038ZM140.23 24.3529C139.463 24.3529 138.773 24.2215 138.16 23.9586C137.546 23.6848 137.064 23.3015 136.714 22.8086C136.363 22.3158 136.188 21.7408 136.188 21.0837H138.192C138.236 21.5765 138.428 21.9818 138.767 22.2994C139.118 22.617 139.605 22.7758 140.23 22.7758C140.876 22.7758 141.38 22.6225 141.741 22.3158C142.102 21.9982 142.283 21.5929 142.283 21.1001C142.283 20.7168 142.168 20.4046 141.938 20.1637C141.719 19.9227 141.44 19.7365 141.1 19.6051C140.772 19.4737 140.312 19.3313 139.72 19.178C138.975 18.9808 138.368 18.7837 137.897 18.5866C137.437 18.3785 137.042 18.0608 136.714 17.6337C136.385 17.2066 136.221 16.6371 136.221 15.9252C136.221 15.268 136.385 14.693 136.714 14.2002C137.042 13.7073 137.502 13.3295 138.094 13.0666C138.685 12.8038 139.37 12.6723 140.147 12.6723C141.254 12.6723 142.157 12.9516 142.858 13.5102C143.57 14.0578 143.964 14.8135 144.041 15.7773H141.971C141.938 15.3611 141.741 15.0052 141.38 14.7095C141.018 14.4137 140.542 14.2659 139.95 14.2659C139.414 14.2659 138.975 14.4028 138.636 14.6766C138.296 14.9504 138.127 15.3447 138.127 15.8594C138.127 16.2099 138.231 16.5002 138.439 16.7301C138.658 16.9492 138.932 17.1244 139.26 17.2559C139.589 17.3873 140.038 17.5297 140.607 17.683C141.363 17.8911 141.976 18.0992 142.447 18.3073C142.929 18.5154 143.334 18.8385 143.663 19.2765C144.003 19.7037 144.172 20.2787 144.172 21.0015C144.172 21.582 144.014 22.1296 143.696 22.6444C143.389 23.1591 142.935 23.5753 142.332 23.8929C141.741 24.1996 141.04 24.3529 140.23 24.3529ZM148.255 14.3316V17.683H152.198V19.2108H148.255V22.7101H152.691V24.2379H146.382V12.8038H152.691V14.3316H148.255ZM158.76 24.3529C157.993 24.3529 157.303 24.2215 156.69 23.9586C156.076 23.6848 155.594 23.3015 155.244 22.8086C154.893 22.3158 154.718 21.7408 154.718 21.0837H156.722C156.766 21.5765 156.958 21.9818 157.297 22.2994C157.648 22.617 158.135 22.7758 158.76 22.7758C159.406 22.7758 159.91 22.6225 160.271 22.3158C160.632 21.9982 160.813 21.5929 160.813 21.1001C160.813 20.7168 160.698 20.4046 160.468 20.1637C160.249 19.9227 159.97 19.7365 159.63 19.6051C159.302 19.4737 158.842 19.3313 158.25 19.178C157.506 18.9808 156.898 18.7837 156.427 18.5866C155.967 18.3785 155.572 18.0608 155.244 17.6337C154.915 17.2066 154.751 16.6371 154.751 15.9252C154.751 15.268 154.915 14.693 155.244 14.2002C155.572 13.7073 156.032 13.3295 156.624 13.0666C157.215 12.8038 157.9 12.6723 158.677 12.6723C159.784 12.6723 160.687 12.9516 161.388 13.5102C162.1 14.0578 162.494 14.8135 162.571 15.7773H160.501C160.468 15.3611 160.271 15.0052 159.91 14.7095C159.548 14.4137 159.072 14.2659 158.48 14.2659C157.944 14.2659 157.506 14.4028 157.166 14.6766C156.827 14.9504 156.657 15.3447 156.657 15.8594C156.657 16.2099 156.761 16.5002 156.969 16.7301C157.188 16.9492 157.462 17.1244 157.79 17.2559C158.119 17.3873 158.568 17.5297 159.137 17.683C159.893 17.8911 160.506 18.0992 160.977 18.3073C161.459 18.5154 161.865 18.8385 162.193 19.2765C162.533 19.7037 162.702 20.2787 162.702 21.0015C162.702 21.582 162.544 22.1296 162.226 22.6444C161.919 23.1591 161.465 23.5753 160.862 23.8929C160.271 24.1996 159.57 24.3529 158.76 24.3529Z" fill="white"/>
<path d="M63.9831 35.5087V41.2176H63.0467V35.5087H63.9831ZM69.9029 41.2176H68.9665L66.149 36.9544V41.2176H65.2126V35.5005H66.149L68.9665 39.7555V35.5005H69.9029V41.2176ZM74.8207 35.5087V36.2727H73.3011V41.2176H72.3647V36.2727H70.8369V35.5087H74.8207ZM76.7055 36.2644V37.9401H78.6769V38.704H76.7055V40.4537H78.9233V41.2176H75.7691V35.5005H78.9233V36.2644H76.7055ZM84.2085 37.1516C84.0606 36.8668 83.8552 36.6532 83.5924 36.5109C83.3295 36.363 83.0256 36.2891 82.6806 36.2891C82.3028 36.2891 81.966 36.374 81.6703 36.5437C81.3746 36.7135 81.1418 36.9544 80.9721 37.2666C80.8078 37.5787 80.7256 37.9401 80.7256 38.3508C80.7256 38.7615 80.8078 39.1257 80.9721 39.4433C81.1418 39.7555 81.3746 39.9964 81.6703 40.1662C81.966 40.3359 82.3028 40.4208 82.6806 40.4208C83.1899 40.4208 83.6033 40.2784 83.921 39.9937C84.2386 39.7089 84.433 39.3229 84.5042 38.8355H82.3603V38.088H85.5063V38.819C85.4461 39.2626 85.2873 39.6706 85.0299 40.043C84.778 40.4153 84.4467 40.7138 84.036 40.9383C83.6307 41.1574 83.1789 41.2669 82.6806 41.2669C82.144 41.2669 81.6538 41.1437 81.2103 40.8972C80.7667 40.6453 80.4135 40.2976 80.1507 39.854C79.8933 39.4105 79.7646 38.9094 79.7646 38.3508C79.7646 37.7923 79.8933 37.2912 80.1507 36.8476C80.4135 36.4041 80.7667 36.0591 81.2103 35.8127C81.6593 35.5608 82.1494 35.4348 82.6806 35.4348C83.2885 35.4348 83.8279 35.5854 84.2988 35.8866C84.7752 36.1823 85.1202 36.604 85.3338 37.1516H84.2085ZM89.3952 41.2176L88.0809 38.934H87.3663V41.2176H86.4299V35.5087H88.4013C88.8394 35.5087 89.209 35.5854 89.5102 35.7387C89.8169 35.8921 90.0441 36.0974 90.192 36.3548C90.3453 36.6122 90.422 36.8997 90.422 37.2173C90.422 37.5897 90.3125 37.9292 90.0934 38.2358C89.8798 38.537 89.5485 38.7424 89.0995 38.8519L90.5123 41.2176H89.3952ZM87.3663 38.1866H88.4013C88.7518 38.1866 89.0146 38.0989 89.1899 37.9237C89.3706 37.7485 89.4609 37.513 89.4609 37.2173C89.4609 36.9216 89.3733 36.6916 89.1981 36.5273C89.0228 36.3575 88.7572 36.2727 88.4013 36.2727H87.3663V38.1866ZM95.0616 40.0512H92.6713L92.2606 41.2176H91.2831L93.3285 35.5005H94.4127L96.4581 41.2176H95.4724L95.0616 40.0512ZM94.7988 39.2873L93.8706 36.6341L92.9342 39.2873H94.7988ZM101.036 35.5087V36.2727H99.5159V41.2176H98.5795V36.2727H97.0517V35.5087H101.036ZM102.92 35.5087V41.2176H101.984V35.5087H102.92ZM106.754 41.2751C106.222 41.2751 105.732 41.1519 105.283 40.9055C104.84 40.6535 104.487 40.3058 104.224 39.8622C103.966 39.4132 103.838 38.9094 103.838 38.3508C103.838 37.7923 103.966 37.2912 104.224 36.8476C104.487 36.4041 104.84 36.0591 105.283 35.8127C105.732 35.5608 106.222 35.4348 106.754 35.4348C107.29 35.4348 107.78 35.5608 108.224 35.8127C108.673 36.0591 109.026 36.4041 109.284 36.8476C109.541 37.2912 109.67 37.7923 109.67 38.3508C109.67 38.9094 109.541 39.4132 109.284 39.8622C109.026 40.3058 108.673 40.6535 108.224 40.9055C107.78 41.1519 107.29 41.2751 106.754 41.2751ZM106.754 40.4619C107.131 40.4619 107.468 40.377 107.764 40.2072C108.06 40.032 108.29 39.7856 108.454 39.468C108.624 39.1449 108.709 38.7725 108.709 38.3508C108.709 37.9292 108.624 37.5595 108.454 37.2419C108.29 36.9243 108.06 36.6806 107.764 36.5109C107.468 36.3411 107.131 36.2562 106.754 36.2562C106.376 36.2562 106.039 36.3411 105.743 36.5109C105.448 36.6806 105.215 36.9243 105.045 37.2419C104.881 37.5595 104.799 37.9292 104.799 38.3508C104.799 38.7725 104.881 39.1449 105.045 39.468C105.215 39.7856 105.448 40.032 105.743 40.2072C106.039 40.377 106.376 40.4619 106.754 40.4619ZM115.281 41.2176H114.345L111.528 36.9544V41.2176H110.591V35.5005H111.528L114.345 39.7555V35.5005H115.281V41.2176Z" fill="white"/>
<defs>
<filter id="filter0_d_2245_2138" x="0.000202179" y="0.240193" width="57.4176" height="60.9675" filterUnits="userSpaceOnUse" color-interpolation-filters="sRGB">
<feFlood flood-opacity="0" result="BackgroundImageFix"/>
<feColorMatrix in="SourceAlpha" type="matrix" values="0 0 0 0 0 0 0 0 0 0 0 0 0 0 0 0 0 0 127 0" result="hardAlpha"/>
<feOffset dy="4.49619"/>
<feGaussianBlur stdDeviation="2.99746"/>
<feComposite in2="hardAlpha" operator="out"/>
<feColorMatrix type="matrix" values="0 0 0 0 0.0988582 0 0 0 0 0.227531 0 0 0 0 0.353065 0 0 0 0.7 0"/>
<feBlend mode="normal" in2="BackgroundImageFix" result="effect1_dropShadow_2245_2138"/>
<feBlend mode="normal" in="SourceGraphic" in2="effect1_dropShadow_2245_2138" result="shape"/>
</filter>
</defs>
</svg>
