<svg width="37" height="37" viewBox="0 0 37 37" fill="none" xmlns="http://www.w3.org/2000/svg">
    <g id="Group 1171275981">
        <g id="Group 1171275974">
            <circle id="Ellipse 4" cx="18.5" cy="18.5" r="18.5" fill="#F3F7FF"/>
        </g>
        <g id="Group">
            <path id="Vector" d="M17.5137 6.98358C17.791 6.85045 18.1238 6.82826 18.4234 6.87264C18.7895 6.9392 19.1334 7.13889 19.3885 7.41624C19.6659 7.69359 19.8656 8.05969 19.9322 8.44798C19.8656 8.51454 19.8323 8.5922 19.799 8.66986C19.7546 8.84736 19.7214 9.01377 19.6437 9.18018C20.1984 9.34659 20.7309 9.56847 21.219 9.8791C21.7072 10.1786 22.1398 10.5558 22.5059 10.9885C22.861 11.399 23.1827 11.8538 23.4046 12.353C23.7596 13.0853 23.9371 13.884 23.9593 14.6939C23.9703 15.2708 23.9593 15.8366 23.9704 16.4134C23.9704 17.0014 23.9704 17.6005 23.9704 18.1885C24.0147 18.6877 24.1368 19.1869 24.3475 19.6529C24.4918 19.9968 24.7025 20.3185 24.9244 20.618C25.0465 20.7623 25.1574 20.9176 25.3016 21.0396C25.5457 21.2948 25.823 21.5056 26.1226 21.6942C26.2335 21.7829 26.3666 21.8384 26.4998 21.9049C26.6773 22.0048 26.8659 22.0603 27.0545 22.1379C27.0545 23.3472 27.0545 24.5675 27.0545 25.7767C21.2301 25.7767 15.4169 25.7767 9.59259 25.7767C9.59259 24.5675 9.59259 23.3472 9.59259 22.1379C10.0253 21.916 10.4357 21.6609 10.7907 21.3392C11.534 20.6624 12.1109 19.786 12.3661 18.7986C12.4215 18.5435 12.477 18.2772 12.4992 18.011C12.4992 17.3453 12.4992 16.6797 12.4992 16.0251C12.4992 15.5037 12.4881 14.9934 12.5103 14.472C12.5436 13.7398 12.71 13.0187 13.0095 12.353C13.4977 11.2991 14.2964 10.3783 15.306 9.79035C15.783 9.5019 16.3155 9.31331 16.8591 9.18018C16.726 9.03596 16.6262 8.85845 16.5929 8.66986C16.5485 8.33704 16.604 7.98203 16.7704 7.69359C16.9479 7.39405 17.1919 7.1278 17.5137 6.98358Z" fill="#3A5EAF"/>
            <path id="Vector_2" d="M15.2727 27.2633C17.2031 27.2633 19.1334 27.2633 21.0748 27.2633C21.0637 27.5296 21.0527 27.7958 20.9639 28.051C20.7864 28.6722 20.387 29.2269 19.8656 29.6041C18.8782 30.3474 17.3916 30.3363 16.4265 29.5708C16.1824 29.3712 15.9494 29.1382 15.7719 28.8719C15.5168 28.5058 15.3504 28.0843 15.306 27.6405C15.2838 27.5185 15.2838 27.3853 15.2727 27.2633Z" fill="#3A5EAF"/>
        </g>
    </g>
</svg>
