<svg width="16" height="16" viewBox="0 0 16 16" fill="none" xmlns="http://www.w3.org/2000/svg">
    <path d="M13.3333 4.00004C13.5032 4.00023 13.6667 4.06529 13.7902 4.18194C13.9138 4.29859 13.9882 4.45801 13.9981 4.62764C14.0081 4.79726 13.9529 4.96429 13.8438 5.0946C13.7348 5.2249 13.5801 5.30864 13.4113 5.32871L13.3333 5.33337H13.2793L12.6667 12.6667C12.6667 13.1768 12.4718 13.6677 12.1218 14.0389C11.7718 14.41 11.2933 14.6334 10.784 14.6634L10.6667 14.6667H5.33333C4.26799 14.6667 3.39733 13.834 3.33866 12.8334L3.33533 12.722L2.71999 5.33337H2.66666C2.49674 5.33319 2.33331 5.26812 2.20975 5.15147C2.08619 5.03483 2.01184 4.87541 2.00188 4.70578C1.99192 4.53615 2.04711 4.36912 2.15617 4.23882C2.26523 4.10852 2.41993 4.02478 2.58866 4.00471L2.66666 4.00004H13.3333ZM9.33333 1.33337C9.68695 1.33337 10.0261 1.47385 10.2761 1.7239C10.5262 1.97395 10.6667 2.31309 10.6667 2.66671C10.6665 2.83663 10.6014 3.00006 10.4848 3.12362C10.3681 3.24718 10.2087 3.32153 10.0391 3.33149C9.86944 3.34145 9.70241 3.28626 9.57211 3.1772C9.4418 3.06814 9.35806 2.91344 9.33799 2.74471L9.33333 2.66671H6.66666L6.66199 2.74471C6.64192 2.91344 6.55818 3.06814 6.42788 3.1772C6.29758 3.28626 6.13055 3.34145 5.96092 3.33149C5.7913 3.32153 5.63187 3.24718 5.51523 3.12362C5.39858 3.00006 5.33352 2.83663 5.33333 2.66671C5.33322 2.33032 5.46026 2.00633 5.68899 1.75968C5.91772 1.51302 6.23122 1.36194 6.56666 1.33671L6.66666 1.33337H9.33333Z" fill="#CED4E4"/>
</svg>