<svg width="25" height="24" viewBox="0 0 25 24" fill="none" xmlns="http://www.w3.org/2000/svg">
    <path d="M21.9433 17.0073L14.6159 4.32997C14.5047 4.13392 14.3738 3.96402 14.2299 3.81372C13.0457 2.57866 10.9129 2.74857 9.99698 4.32997L2.66953 17.0073C2.41438 17.4386 2.30316 17.8895 2.30316 18.3338C2.30316 19.0331 2.58448 19.6996 3.05553 20.1897C3.52658 20.6863 4.20045 21 4.97899 21H19.6339C21.191 21 22.3032 19.7257 22.3032 18.3273C22.3032 17.8895 22.1919 17.4386 21.9433 17.0073ZM11.2466 8.91733C11.2466 8.42723 11.6457 8.02207 12.1429 8.02207H12.7382C13.2289 8.02207 13.6345 8.42069 13.6345 8.91733V13.2498C13.6345 13.7399 13.2354 14.1451 12.7382 14.1451H12.1429C11.6522 14.1451 11.2466 13.7465 11.2466 13.2498V8.91733ZM12.4438 18.4319C11.5737 18.4319 10.8737 17.7261 10.8737 16.8635C10.8737 15.9944 11.5802 15.2952 12.4438 15.2952C13.3074 15.2952 14.014 16.001 14.014 16.8635C14.014 17.7326 13.3074 18.4319 12.4438 18.4319Z" fill="white"/>
</svg>