<svg width="24" height="24" viewBox="0 0 24 24" fill="none" xmlns="http://www.w3.org/2000/svg">
<g id="dashicons:email-alt">
<path id="Vector" d="M23 18V6C23 4.89333 22.1334 4 21.06 4H2.94004C1.86655 4 1 4.89333 1 6V18C1 19.1067 1.86655 20 2.94004 20H21.06C22.1334 20 23 19.1067 23 18ZM21.3057 5.85333C21.7325 6.29333 21.4997 6.74667 21.2669 6.97333L16.0159 11.9333L21.06 17.3467C21.2152 17.5333 21.3186 17.8267 21.1376 18.0267C20.9694 18.24 20.5814 18.2267 20.4133 18.0933L14.7613 13.12L11.9935 15.72L9.23868 13.12L3.58671 18.0933C3.41858 18.2267 3.03057 18.24 2.86243 18.0267C2.68136 17.8267 2.78483 17.5333 2.94004 17.3467L7.98413 11.9333L2.7331 6.97333C2.50029 6.74667 2.26749 6.29333 2.6943 5.85333C3.1211 5.41333 3.56085 5.62667 3.92299 5.94667L11.9935 12.6667L20.077 5.94667C20.4392 5.62667 20.8789 5.41333 21.3057 5.85333Z" fill="white"/>
</g>
</svg>
