<svg width="20" height="20" viewBox="0 0 20 20" fill="none" xmlns="http://www.w3.org/2000/svg">
<g id="Frame 26">
<path id="Vector" d="M16.8882 3.11176C18.3706 4.60294 18.3706 7.00294 16.8882 8.49412L15.5382 9.83529C14.55 10.8235 13.1559 11.1324 11.8853 10.7971L14.1971 8.49412L14.8676 7.81471L15.5382 7.14412C16.2794 6.40294 16.2794 5.20294 15.5382 4.46176C14.7971 3.71176 13.5971 3.71176 12.8559 4.46176L12.1765 5.13235L9.19412 8.11471C8.86765 6.84412 9.17647 5.45 10.1647 4.46176L11.5059 3.11176C12.9971 1.62941 15.4059 1.62941 16.8882 3.11176ZM8.81471 12.5265L13.5265 7.81471C13.8971 7.44412 13.8971 6.84412 13.5265 6.47353C13.1382 6.09412 12.5294 6.12941 12.1765 6.47353L7.47353 11.1853C7.10294 11.5559 7.10294 12.1559 7.47353 12.5265C7.86176 12.9059 8.47059 12.8706 8.81471 12.5265ZM8.14412 14.5471L11.7971 10.8853C12.1324 12.1559 11.8235 13.55 10.8353 14.5382L9.49412 15.8882C8.00294 17.3706 5.60294 17.3706 4.11176 15.8882C2.62941 14.4059 2.62941 11.9882 4.11176 10.5059L5.46176 9.16471C6.45 8.17647 7.84412 7.86765 9.11471 8.19412L5.46176 11.8559C4.71176 12.5971 4.71176 13.7971 5.46176 14.5471C6.20294 15.2882 7.40294 15.2882 8.14412 14.5471Z" fill="#3A5EAF"/>
</g>
</svg>
