<svg width="30" height="30" viewBox="0 0 30 30" fill="none" xmlns="http://www.w3.org/2000/svg">
<path d="M11.6514 2.24219C13.7232 1.04599 16.2767 1.04599 18.3486 2.24219L24.374 5.72168C26.4458 6.91783 27.7225 9.12823 27.7227 11.5205V18.4795C27.7225 20.8718 26.4458 23.0822 24.374 24.2783L18.3486 27.7578C16.2767 28.954 13.7232 28.954 11.6514 27.7578L5.62598 24.2783C3.55419 23.0822 2.27746 20.8718 2.27734 18.4795V11.5205C2.27746 9.12823 3.55419 6.91783 5.62598 5.72168L11.6514 2.24219Z" fill="#173D61" fill-opacity="0.5" stroke="#2B69A3" stroke-width="0.535714"/>
<path d="M19.8217 13.9286V10.7143C19.8217 10.125 19.3396 9.64288 18.7503 9.64288H10.1789C9.58956 9.64288 9.11278 10.125 9.11278 10.7143L9.10742 17.1429C9.10742 17.7322 9.58956 18.2143 10.1789 18.2143H16.0717V15.5357C16.0717 14.6465 16.7896 13.9286 17.6789 13.9286H19.8217ZM14.7485 14.2875C14.5771 14.3947 14.3521 14.3947 14.1806 14.2875L10.3931 11.9197C10.3394 11.8895 10.2924 11.8488 10.2549 11.7999C10.2173 11.7511 10.1901 11.6951 10.1749 11.6354C10.1596 11.5757 10.1566 11.5136 10.1661 11.4527C10.1755 11.3918 10.1972 11.3335 10.2299 11.2813C10.2625 11.229 10.3055 11.1839 10.356 11.1488C10.4066 11.1136 10.4638 11.0891 10.5241 11.0766C10.5845 11.0642 10.6467 11.0641 10.707 11.0764C10.7674 11.0887 10.8246 11.1132 10.8753 11.1482L14.4646 13.3929L18.0539 11.1482C18.1045 11.1132 18.1617 11.0887 18.2221 11.0764C18.2824 11.0641 18.3447 11.0642 18.405 11.0766C18.4653 11.0891 18.5225 11.1136 18.5731 11.1488C18.6237 11.1839 18.6666 11.229 18.6992 11.2813C18.7319 11.3335 18.7536 11.3918 18.7631 11.4527C18.7725 11.5136 18.7695 11.5757 18.7543 11.6354C18.739 11.6951 18.7118 11.7511 18.6743 11.7999C18.6368 11.8488 18.5897 11.8895 18.536 11.9197L14.7485 14.2875Z" fill="#F9AA39"/>
<path d="M20.3574 16.0715C20.0628 16.0715 19.8217 16.3125 19.8217 16.6072V18.2143C19.8217 18.8036 19.3396 19.2858 18.7503 19.2858C18.161 19.2858 17.6789 18.8036 17.6789 18.2143V15.8036C17.6789 15.6536 17.7967 15.5358 17.9467 15.5358C18.0967 15.5358 18.2146 15.6536 18.2146 15.8036V17.6786C18.2146 17.9733 18.4556 18.2143 18.7503 18.2143C19.0449 18.2143 19.286 17.9733 19.286 17.6786V15.8036C19.286 15.4484 19.1449 15.1078 18.8937 14.8566C18.6426 14.6054 18.3019 14.4643 17.9467 14.4643C17.5915 14.4643 17.2509 14.6054 16.9997 14.8566C16.7485 15.1078 16.6074 15.4484 16.6074 15.8036V18.2143C16.6074 19.3983 17.5664 20.3572 18.7503 20.3572C19.9342 20.3572 20.8931 19.3983 20.8931 18.2143V16.6072C20.8931 16.3125 20.6521 16.0715 20.3574 16.0715Z" fill="#E2E9FB"/>
</svg>
