<svg width="30" height="30" viewBox="0 0 30 30" fill="none" xmlns="http://www.w3.org/2000/svg">
<path d="M11.6514 2.24219C13.7232 1.04599 16.2767 1.04599 18.3486 2.24219L24.374 5.72168C26.4458 6.91783 27.7225 9.12823 27.7227 11.5205V18.4795C27.7225 20.8718 26.4458 23.0822 24.374 24.2783L18.3486 27.7578C16.2767 28.954 13.7232 28.954 11.6514 27.7578L5.62598 24.2783C3.55419 23.0822 2.27746 20.8718 2.27734 18.4795V11.5205C2.27746 9.12823 3.55419 6.91783 5.62598 5.72168L11.6514 2.24219Z" fill="#173D61" fill-opacity="0.5"/>
<path d="M11.6514 2.24219C13.7232 1.04599 16.2767 1.04599 18.3486 2.24219L24.374 5.72168C26.4458 6.91783 27.7225 9.12823 27.7227 11.5205V18.4795C27.7225 20.8718 26.4458 23.0822 24.374 24.2783L18.3486 27.7578C16.2767 28.954 13.7232 28.954 11.6514 27.7578L5.62598 24.2783C3.55419 23.0822 2.27746 20.8718 2.27734 18.4795V11.5205C2.27746 9.12823 3.55419 6.91783 5.62598 5.72168L11.6514 2.24219Z" stroke="#3C60B3" stroke-width="0.535714"/>
<path d="M11.6514 2.24219C13.7232 1.04599 16.2767 1.04599 18.3486 2.24219L24.374 5.72168C26.4458 6.91783 27.7225 9.12823 27.7227 11.5205V18.4795C27.7225 20.8718 26.4458 23.0822 24.374 24.2783L18.3486 27.7578C16.2767 28.954 13.7232 28.954 11.6514 27.7578L5.62598 24.2783C3.55419 23.0822 2.27746 20.8718 2.27734 18.4795V11.5205C2.27746 9.12823 3.55419 6.91783 5.62598 5.72168L11.6514 2.24219Z" stroke="#2B69A3" stroke-width="0.535714"/>
<path d="M17.0009 13.5128H13.3659C13.1145 13.5128 12.9121 13.3061 12.9121 13.0541C12.9121 12.8021 13.1167 12.5953 13.3659 12.5953H17.003C17.2544 12.5953 17.4569 12.8021 17.4569 13.0541C17.4569 13.3061 17.2523 13.5128 17.0009 13.5128Z" fill="#E2E9FB"/>
<path d="M17.0009 15.2911H13.3659C13.1145 15.2911 12.9121 15.0844 12.9121 14.8324C12.9121 14.5804 13.1167 14.3737 13.3659 14.3737H17.003C17.2544 14.3737 17.4569 14.5804 17.4569 14.8324C17.4569 15.0844 17.2523 15.2911 17.0009 15.2911Z" fill="#E2E9FB"/>
<path d="M15.1834 11.6758H13.3659C13.1145 11.6758 12.9121 11.469 12.9121 11.217C12.9121 10.9651 13.1167 10.7583 13.3659 10.7583H15.1834C15.4348 10.7583 15.6373 10.9651 15.6373 11.217C15.6373 11.469 15.4348 11.6758 15.1834 11.6758Z" fill="#E2E9FB"/>
<path d="M11.5476 16.9439C11.2962 16.9439 11.0938 16.7371 11.0938 16.4852V10.2972C11.0938 9.53699 11.7053 8.91888 12.4574 8.91888H17.9119C18.6641 8.91888 19.2756 9.53699 19.2756 10.2972V16.4852C19.2756 16.7393 19.071 16.9439 18.8217 16.9439C18.5724 16.9439 18.3679 16.7371 18.3679 16.4852V10.2972C18.3679 10.0431 18.1634 9.83851 17.9141 9.83851H12.4574C12.206 9.83851 12.0036 10.0453 12.0036 10.2972V16.4852C12.0036 16.7393 11.799 16.9439 11.5476 16.9439Z" fill="#E2E9FB"/>
<path d="M20.6386 14.8445V19.8131C20.6386 20.5733 20.0271 21.1915 19.2749 21.1915H11.0931C10.341 21.1915 9.72949 20.5733 9.72949 19.8131V14.8445C9.72949 14.3384 10.0022 13.8754 10.4411 13.6341L11.0931 13.2745V14.3212L10.8758 14.4418C10.7288 14.5215 10.6393 14.6765 10.6393 14.8445V15.4174L14.9198 17.6766C15.0818 17.7628 15.2863 17.7628 15.4504 17.6766L19.7288 15.4174V14.8445C19.7288 14.6765 19.6372 14.5215 19.4923 14.4418L19.2749 14.3212V13.2745L19.9291 13.6341C20.3659 13.8754 20.6386 14.3384 20.6386 14.8445Z" fill="#F9AA39"/>
</svg>
