<svg width="30" height="30" viewBox="0 0 30 30" fill="none" xmlns="http://www.w3.org/2000/svg">
<path d="M11.6514 2.24219C13.7232 1.04599 16.2767 1.04599 18.3486 2.24219L24.374 5.72168C26.4458 6.91783 27.7225 9.12823 27.7227 11.5205V18.4795C27.7225 20.8718 26.4458 23.0822 24.374 24.2783L18.3486 27.7578C16.2767 28.954 13.7232 28.954 11.6514 27.7578L5.62598 24.2783C3.55419 23.0822 2.27746 20.8718 2.27734 18.4795V11.5205C2.27746 9.12823 3.55419 6.91783 5.62598 5.72168L11.6514 2.24219Z" fill="#173D61" fill-opacity="0.5"/>
<path d="M11.6514 2.24219C13.7232 1.04599 16.2767 1.04599 18.3486 2.24219L24.374 5.72168C26.4458 6.91783 27.7225 9.12823 27.7227 11.5205V18.4795C27.7225 20.8718 26.4458 23.0822 24.374 24.2783L18.3486 27.7578C16.2767 28.954 13.7232 28.954 11.6514 27.7578L5.62598 24.2783C3.55419 23.0822 2.27746 20.8718 2.27734 18.4795V11.5205C2.27746 9.12823 3.55419 6.91783 5.62598 5.72168L11.6514 2.24219Z" stroke="#3C60B3" stroke-width="0.535714"/>
<path d="M11.6514 2.24219C13.7232 1.04599 16.2767 1.04599 18.3486 2.24219L24.374 5.72168C26.4458 6.91783 27.7225 9.12823 27.7227 11.5205V18.4795C27.7225 20.8718 26.4458 23.0822 24.374 24.2783L18.3486 27.7578C16.2767 28.954 13.7232 28.954 11.6514 27.7578L5.62598 24.2783C3.55419 23.0822 2.27746 20.8718 2.27734 18.4795V11.5205C2.27746 9.12823 3.55419 6.91783 5.62598 5.72168L11.6514 2.24219Z" stroke="#2B69A3" stroke-width="0.535714"/>
<path d="M14.0712 14.5529C14.1374 14.5945 14.2126 14.6165 14.2893 14.6168C14.3659 14.617 14.4412 14.5953 14.5076 14.5541L19.7633 11.2454C19.6498 11.0318 19.4862 10.8543 19.2889 10.7306C19.0917 10.6069 18.8677 10.5413 18.6396 10.5405H9.9411C9.71296 10.5413 9.48903 10.6069 9.29179 10.7306C9.09455 10.8543 8.93094 11.0318 8.81738 11.2454L14.0712 14.5529Z" fill="#F9AA39"/>
<path d="M8.90529 19.2301C9.15508 19.4875 9.49357 19.6326 9.84683 19.6337H13.6197V15.1817L8.51367 12.1084V18.2596C8.5147 18.6237 8.65549 18.9726 8.90529 19.2301Z" fill="#F9AA39"/>
<path d="M15.6189 17.5818L14.5947 18.5855V15.7041H15.6189M17.3259 16.9536L16.7899 16.4961L16.3017 16.9468V14.3385H17.3259M19.0328 16.3869L18.0087 17.4111V12.973H19.0328M19.9922 16.322L19.3742 15.7041H21.0812V17.4111L20.4701 16.8L18.0087 19.241L16.824 18.2099L15.5336 19.4594H14.5947L16.8035 17.295L18.0087 18.3124" fill="#E2E9FB"/>
</svg>
