<svg width="20" height="20" viewBox="0 0 20 20" fill="none" xmlns="http://www.w3.org/2000/svg">
<g id="Frame 25">
<path id="Vector" d="M18 14.5V5.5C18 4.67 17.3698 4 16.5891 4H3.41093C2.63022 4 2 4.67 2 5.5V14.5C2 15.33 2.63022 16 3.41093 16H16.5891C17.3698 16 18 15.33 18 14.5ZM16.7678 5.39C17.0782 5.72 16.9089 6.06 16.7396 6.23L12.9206 9.95L16.5891 14.01C16.7019 14.15 16.7772 14.37 16.6455 14.52C16.5232 14.68 16.241 14.67 16.1188 14.57L12.0082 10.84L9.9953 12.79L7.99177 10.84L3.88125 14.57C3.75897 14.67 3.47678 14.68 3.3545 14.52C3.22281 14.37 3.29806 14.15 3.41093 14.01L7.07937 9.95L3.26043 6.23C3.09112 6.06 2.92181 5.72 3.23222 5.39C3.54262 5.06 3.86243 5.22 4.12581 5.46L9.9953 10.5L15.8742 5.46C16.1376 5.22 16.4574 5.06 16.7678 5.39Z" fill="#3A5EAF"/>
</g>
</svg>
