<svg width="30" height="30" viewBox="0 0 30 30" fill="none" xmlns="http://www.w3.org/2000/svg">
<path d="M11.6514 2.24219C13.7232 1.04599 16.2767 1.04599 18.3486 2.24219L24.374 5.72168C26.4458 6.91783 27.7225 9.12823 27.7227 11.5205V18.4795C27.7225 20.8718 26.4458 23.0822 24.374 24.2783L18.3486 27.7578C16.2767 28.954 13.7232 28.954 11.6514 27.7578L5.62598 24.2783C3.55419 23.0822 2.27746 20.8718 2.27734 18.4795V11.5205C2.27746 9.12823 3.55419 6.91783 5.62598 5.72168L11.6514 2.24219Z" fill="#173D61" fill-opacity="0.5" stroke="#2B69A3" stroke-width="0.535714"/>
<path d="M14.375 10H15.625M11.25 10.625C11.25 10.2935 11.3817 9.97554 11.6161 9.74112C11.8505 9.5067 12.1685 9.375 12.5 9.375H17.5C17.8315 9.375 18.1495 9.5067 18.3839 9.74112C18.6183 9.97554 18.75 10.2935 18.75 10.625V19.375C18.75 19.7065 18.6183 20.0245 18.3839 20.2589C18.1495 20.4933 17.8315 20.625 17.5 20.625H12.5C12.1685 20.625 11.8505 20.4933 11.6161 20.2589C11.3817 20.0245 11.25 19.7065 11.25 19.375V10.625Z" stroke="#F9AA39" stroke-width="1.07143" stroke-linecap="round" stroke-linejoin="round"/>
<path d="M13.3333 15.3725C13.3332 15.0216 13.4409 14.6794 13.6415 14.3934C13.8421 14.1074 14.1257 13.8918 14.4528 13.7766C14.4401 13.6962 14.4448 13.614 14.4666 13.5356C14.4883 13.4572 14.5266 13.3845 14.5787 13.3226C14.6309 13.2606 14.6957 13.2109 14.7686 13.1768C14.8416 13.1427 14.921 13.125 15.0014 13.125C15.0818 13.125 15.1612 13.1427 15.2341 13.1768C15.3071 13.2109 15.3719 13.2606 15.4241 13.3226C15.4762 13.3845 15.5145 13.4572 15.5362 13.5356C15.558 13.614 15.5627 13.6962 15.55 13.7766C15.8766 13.8923 16.1595 14.1081 16.3596 14.3941C16.5597 14.68 16.667 15.022 16.6667 15.3725V17.0613L17.5 17.6242V17.9056H12.5V17.6242L13.3333 17.0613V15.3725ZM15.5556 18.1871C15.5556 18.3364 15.497 18.4796 15.3928 18.5851C15.2887 18.6907 15.1473 18.75 15 18.75C14.8527 18.75 14.7113 18.6907 14.6072 18.5851C14.503 18.4796 14.4444 18.3364 14.4444 18.1871H15.5556Z" fill="#E2E9FB"/>
</svg>
