<svg width="67" height="48" viewBox="0 0 67 48" fill="none" xmlns="http://www.w3.org/2000/svg">
<g id="Folder illustration" clip-path="url(#clip0_155_1001)">
<path id="Vector" d="M29.9247 6.77262H23.3311V0.504771C23.3311 0.225642 23.1039 0 22.823 0H5.02056C4.73959 0 4.51245 0.225642 4.51245 0.504771V9.85306C4.51245 10.1322 4.73959 10.3578 5.02056 10.3578H28.0168L30.3168 7.59997C30.591 7.2707 30.3555 6.77262 29.9247 6.77262Z" fill="url(#paint0_linear_155_1001)"/>
<path id="Vector_2" d="M35.8433 3.5499L28.9266 11.8435H1.52731C0.659146 11.8435 -0.034039 12.5622 0.00129318 13.423L1.39776 46.2648C1.43309 47.0772 2.1044 47.7173 2.92209 47.7173H63.5774C64.3934 47.7173 65.0648 47.0788 65.1018 46.2699L66.9979 4.58451C67.0366 3.72206 66.3434 3 65.4736 3H37.016C36.5617 3 36.131 3.20057 35.8416 3.54823L35.8433 3.5499Z" fill="url(#paint1_linear_155_1001)"/>
</g>
<defs>
<linearGradient id="paint0_linear_155_1001" x1="17.4726" y1="5.17975" x2="17.4726" y2="18.028" gradientUnits="userSpaceOnUse">
<stop stop-color="#ECF2FF"/>
<stop offset="1" stop-color="#DCE7FF"/>
</linearGradient>
<linearGradient id="paint1_linear_155_1001" x1="33.5013" y1="18.7916" x2="33.5013" y2="45.4492" gradientUnits="userSpaceOnUse">
<stop stop-color="#ECF2FF"/>
<stop offset="1" stop-color="#DCE7FF"/>
</linearGradient>
<clipPath id="clip0_155_1001">
<rect width="67" height="48" fill="white"/>
</clipPath>
</defs>
</svg>
