<svg width="30" height="24" viewBox="0 0 30 24" fill="none" xmlns="http://www.w3.org/2000/svg">
<g id="fa-solid:crown" clip-path="url(#clip0_170_1838)">
<path id="Vector" d="M24.75 21H5.25C4.8375 21 4.5 21.3375 4.5 21.75V23.25C4.5 23.6625 4.8375 24 5.25 24H24.75C25.1625 24 25.5 23.6625 25.5 23.25V21.75C25.5 21.3375 25.1625 21 24.75 21ZM27.75 6C26.5078 6 25.5 7.00781 25.5 8.25C25.5 8.58281 25.575 8.89219 25.7063 9.17813L22.3125 11.2125C21.5906 11.6438 20.6578 11.4 20.2406 10.6688L16.4203 3.98437C16.9219 3.57188 17.25 2.95312 17.25 2.25C17.25 1.00781 16.2422 0 15 0C13.7578 0 12.75 1.00781 12.75 2.25C12.75 2.95312 13.0781 3.57188 13.5797 3.98437L9.75937 10.6688C9.34219 11.4 8.40469 11.6438 7.6875 11.2125L4.29844 9.17813C4.425 8.89688 4.50469 8.58281 4.50469 8.25C4.50469 7.00781 3.49687 6 2.25469 6C1.0125 6 0 7.00781 0 8.25C0 9.49219 1.00781 10.5 2.25 10.5C2.37188 10.5 2.49375 10.4812 2.61094 10.4625L6 19.5H24L27.3891 10.4625C27.5062 10.4812 27.6281 10.5 27.75 10.5C28.9922 10.5 30 9.49219 30 8.25C30 7.00781 28.9922 6 27.75 6Z" fill="#FFA72B"/>
</g>
<defs>
<clipPath id="clip0_170_1838">
<rect width="30" height="24" fill="white"/>
</clipPath>
</defs>
</svg>
