<svg width="113" height="62" viewBox="0 0 113 62" fill="none" xmlns="http://www.w3.org/2000/svg">
<g filter="url(#filter0_d_2245_2126)">
<path d="M23.089 3.24485C26.5668 1.23693 30.8516 1.23693 34.3294 3.24484L45.8029 9.86903C49.2807 11.8769 51.4231 15.5877 51.4231 19.6036V32.852C51.4231 36.8678 49.2807 40.5786 45.8029 42.5865L34.3294 49.2107C30.8516 51.2186 26.5668 51.2186 23.089 49.2107L11.6155 42.5865C8.13773 40.5786 5.9953 36.8678 5.9953 32.8519V19.6036C5.9953 15.5877 8.13772 11.8769 11.6155 9.86903L23.089 3.24485Z" fill="#D9F0FB"/>
</g>
<path d="M18.4429 35.8509H22.2758V26.4998L16.7939 22.396V34.2139C16.7939 35.1109 17.5293 35.8509 18.4429 35.8509Z" fill="#4285F4"/>
<path d="M35.2334 35.851H39.0662C39.9798 35.851 40.7152 35.111 40.7152 34.1916V22.3961L35.2557 26.5222V35.851H35.2334Z" fill="#34A853"/>
<path d="M35.2334 19.5913V26.881L40.7152 22.6762V20.4368C40.7152 18.3573 38.3882 17.169 36.7549 18.4258L35.2334 19.5913Z" fill="#FBBC04"/>
<path fill-rule="evenodd" clip-rule="evenodd" d="M22.2568 26.8229V19.6097L28.7549 24.6227L35.2529 19.6097V26.8456L28.777 31.8359L22.2568 26.8229Z" fill="#EA4335"/>
<path d="M16.7939 20.4268V22.6697L22.2758 26.881V19.6029L20.7319 18.4127C19.1209 17.1768 16.7939 18.367 16.7939 20.4268Z" fill="#C5221F"/>
<path d="M71.9263 16.1059C71.6306 15.5364 71.2198 15.1092 70.6941 14.8245C70.1684 14.5287 69.5606 14.3809 68.8706 14.3809C68.1149 14.3809 67.4413 14.5507 66.8499 14.8902C66.2585 15.2297 65.793 15.7116 65.4535 16.3359C65.1249 16.9601 64.9606 17.683 64.9606 18.5044C64.9606 19.3258 65.1249 20.0542 65.4535 20.6894C65.793 21.3137 66.2585 21.7956 66.8499 22.1351C67.4413 22.4746 68.1149 22.6444 68.8706 22.6444C69.8891 22.6444 70.716 22.3596 71.3513 21.7901C71.9865 21.2206 72.3753 20.4484 72.5177 19.4737H68.2299V17.9787H74.5219V19.4408C74.4015 20.328 74.0839 21.1439 73.5691 21.8887C73.0653 22.6334 72.4027 23.2303 71.5813 23.6794C70.7708 24.1174 69.8672 24.3365 68.8706 24.3365C67.7973 24.3365 66.817 24.0901 65.9299 23.5972C65.0428 23.0934 64.3364 22.3979 63.8106 21.5108C63.2959 20.6237 63.0385 19.6215 63.0385 18.5044C63.0385 17.3873 63.2959 16.3852 63.8106 15.498C64.3364 14.6109 65.0428 13.9209 65.9299 13.428C66.828 12.9242 67.8082 12.6723 68.8706 12.6723C70.0863 12.6723 71.1651 12.9735 72.107 13.5759C73.0598 14.1673 73.7498 15.0106 74.177 16.1059H71.9263ZM87.3268 15.038C88.0387 15.038 88.674 15.1859 89.2325 15.4816C89.802 15.7773 90.2456 16.2154 90.5632 16.7959C90.8918 17.3763 91.0561 18.0773 91.0561 18.8987V24.2379H89.1997V19.178C89.1997 18.3675 88.9971 17.7487 88.5918 17.3216C88.1866 16.8835 87.6335 16.6644 86.9326 16.6644C86.2316 16.6644 85.673 16.8835 85.2569 17.3216C84.8516 17.7487 84.649 18.3675 84.649 19.178V24.2379H82.7926V19.178C82.7926 18.3675 82.59 17.7487 82.1848 17.3216C81.7795 16.8835 81.2264 16.6644 80.5255 16.6644C79.8245 16.6644 79.266 16.8835 78.8498 17.3216C78.4446 17.7487 78.2419 18.3675 78.2419 19.178V24.2379H76.3691V15.1859H78.2419V16.2209C78.5486 15.8485 78.9374 15.5583 79.4084 15.3502C79.8793 15.1421 80.3831 15.038 80.9198 15.038C81.6426 15.038 82.2888 15.1914 82.8583 15.498C83.4278 15.8047 83.8659 16.2483 84.1726 16.8287C84.4464 16.2811 84.8735 15.8485 85.454 15.5309C86.0345 15.2023 86.6587 15.038 87.3268 15.038ZM92.8149 19.6708C92.8149 18.7618 93.0011 17.9568 93.3735 17.2559C93.7568 16.5549 94.2716 16.0128 94.9178 15.6294C95.5749 15.2352 96.2978 15.038 97.0863 15.038C97.7982 15.038 98.417 15.1804 98.9427 15.4652C99.4794 15.739 99.9065 16.084 100.224 16.5002V15.1859H102.113V24.2379H100.224V22.8908C99.9065 23.3179 99.4739 23.6739 98.9263 23.9586C98.3787 24.2434 97.7544 24.3858 97.0535 24.3858C96.2758 24.3858 95.564 24.1886 94.9178 23.7943C94.2716 23.3891 93.7568 22.8306 93.3735 22.1187C93.0011 21.3958 92.8149 20.5799 92.8149 19.6708ZM100.224 19.7037C100.224 19.0794 100.093 18.5373 99.8299 18.0773C99.578 17.6173 99.2439 17.2668 98.8277 17.0259C98.4115 16.7849 97.9625 16.6644 97.4806 16.6644C96.9987 16.6644 96.5497 16.7849 96.1335 17.0259C95.7173 17.2559 95.3778 17.6009 95.1149 18.0608C94.863 18.5099 94.7371 19.0465 94.7371 19.6708C94.7371 20.2951 94.863 20.8427 95.1149 21.3137C95.3778 21.7846 95.7173 22.146 96.1335 22.3979C96.5606 22.6389 97.0096 22.7594 97.4806 22.7594C97.9625 22.7594 98.4115 22.6389 98.8277 22.3979C99.2439 22.157 99.578 21.8065 99.8299 21.3465C100.093 20.8756 100.224 20.328 100.224 19.7037ZM105.526 13.9866C105.187 13.9866 104.902 13.8716 104.672 13.6416C104.442 13.4116 104.327 13.1269 104.327 12.7873C104.327 12.4478 104.442 12.1631 104.672 11.9331C104.902 11.7031 105.187 11.5881 105.526 11.5881C105.855 11.5881 106.134 11.7031 106.364 11.9331C106.594 12.1631 106.709 12.4478 106.709 12.7873C106.709 13.1269 106.594 13.4116 106.364 13.6416C106.134 13.8716 105.855 13.9866 105.526 13.9866ZM106.446 15.1859V24.2379H104.573V15.1859H106.446ZM110.778 12.0809V24.2379H108.905V12.0809H110.778Z" fill="white"/>
<path d="M65.6506 41.2751C65.1194 41.2751 64.6293 41.1519 64.1803 40.9055C63.7367 40.6535 63.3835 40.3058 63.1207 39.8622C62.8633 39.4132 62.7346 38.9094 62.7346 38.3508C62.7346 37.7923 62.8633 37.2912 63.1207 36.8476C63.3835 36.4041 63.7367 36.0591 64.1803 35.8127C64.6293 35.5608 65.1194 35.4348 65.6506 35.4348C66.1873 35.4348 66.6774 35.5608 67.121 35.8127C67.57 36.0591 67.9232 36.4041 68.1806 36.8476C68.438 37.2912 68.5667 37.7923 68.5667 38.3508C68.5667 38.9094 68.438 39.4132 68.1806 39.8622C67.9232 40.3058 67.57 40.6535 67.121 40.9055C66.6774 41.1519 66.1873 41.2751 65.6506 41.2751ZM65.6506 40.4619C66.0285 40.4619 66.3653 40.377 66.661 40.2072C66.9567 40.032 67.1867 39.7856 67.351 39.468C67.5207 39.1449 67.6056 38.7725 67.6056 38.3508C67.6056 37.9292 67.5207 37.5595 67.351 37.2419C67.1867 36.9243 66.9567 36.6806 66.661 36.5109C66.3653 36.3411 66.0285 36.2562 65.6506 36.2562C65.2728 36.2562 64.936 36.3411 64.6403 36.5109C64.3446 36.6806 64.1118 36.9243 63.9421 37.2419C63.7778 37.5595 63.6956 37.9292 63.6956 38.3508C63.6956 38.7725 63.7778 39.1449 63.9421 39.468C64.1118 39.7856 64.3446 40.032 64.6403 40.2072C64.936 40.377 65.2728 40.4619 65.6506 40.4619ZM74.1784 41.2176H73.242L70.4245 36.9544V41.2176H69.4881V35.5005H70.4245L73.242 39.7555V35.5005H74.1784V41.2176ZM76.3445 36.2644V37.9401H78.3159V38.704H76.3445V40.4537H78.5624V41.2176H75.4081V35.5005H78.5624V36.2644H76.3445ZM83.1904 37.8498V38.6383H79.8143V37.8498H83.1904ZM84.2086 38.3508C84.2086 37.7923 84.3373 37.2912 84.5947 36.8476C84.8575 36.4041 85.2107 36.0591 85.6543 35.8127C86.1033 35.5608 86.5934 35.4348 87.1246 35.4348C87.7325 35.4348 88.2719 35.5854 88.7428 35.8866C89.2192 36.1823 89.5642 36.604 89.7778 37.1516H88.6525C88.5046 36.8504 88.2993 36.6259 88.0364 36.478C87.7735 36.3301 87.4696 36.2562 87.1246 36.2562C86.7468 36.2562 86.41 36.3411 86.1143 36.5109C85.8186 36.6806 85.5858 36.9243 85.4161 37.2419C85.2518 37.5595 85.1696 37.9292 85.1696 38.3508C85.1696 38.7725 85.2518 39.1421 85.4161 39.4598C85.5858 39.7774 85.8186 40.0238 86.1143 40.199C86.41 40.3688 86.7468 40.4537 87.1246 40.4537C87.4696 40.4537 87.7735 40.3797 88.0364 40.2319C88.2993 40.084 88.5046 39.8595 88.6525 39.5583H89.7778C89.5642 40.1059 89.2192 40.5276 88.7428 40.8233C88.2719 41.119 87.7325 41.2669 87.1246 41.2669C86.588 41.2669 86.0979 41.1437 85.6543 40.8972C85.2107 40.6453 84.8575 40.2976 84.5947 39.854C84.3373 39.4105 84.2086 38.9094 84.2086 38.3508ZM91.8103 40.4619H93.7406V41.2176H90.8739V35.5087H91.8103V40.4619ZM95.4602 35.5087V41.2176H94.5237V35.5087H95.4602ZM96.3775 38.3508C96.3775 37.7923 96.5061 37.2912 96.7635 36.8476C97.0264 36.4041 97.3796 36.0591 97.8232 35.8127C98.2722 35.5608 98.7623 35.4348 99.2935 35.4348C99.9013 35.4348 100.441 35.5854 100.912 35.8866C101.388 36.1823 101.733 36.604 101.947 37.1516H100.821C100.673 36.8504 100.468 36.6259 100.205 36.478C99.9424 36.3301 99.6385 36.2562 99.2935 36.2562C98.9156 36.2562 98.5789 36.3411 98.2831 36.5109C97.9874 36.6806 97.7547 36.9243 97.5849 37.2419C97.4207 37.5595 97.3385 37.9292 97.3385 38.3508C97.3385 38.7725 97.4207 39.1421 97.5849 39.4598C97.7547 39.7774 97.9874 40.0238 98.2831 40.199C98.5789 40.3688 98.9156 40.4537 99.2935 40.4537C99.6385 40.4537 99.9424 40.3797 100.205 40.2319C100.468 40.084 100.673 39.8595 100.821 39.5583H101.947C101.733 40.1059 101.388 40.5276 100.912 40.8233C100.441 41.119 99.9013 41.2669 99.2935 41.2669C98.7568 41.2669 98.2667 41.1437 97.8232 40.8972C97.3796 40.6453 97.0264 40.2976 96.7635 39.854C96.5061 39.4105 96.3775 38.9094 96.3775 38.3508ZM106.189 41.2176L103.979 38.663V41.2176H103.043V35.5087H103.979V38.1126L106.197 35.5087H107.372L104.891 38.3673L107.413 41.2176H106.189Z" fill="white"/>
<defs>
<filter id="filter0_d_2245_2126" x="0.000202179" y="0.240193" width="57.4176" height="60.9675" filterUnits="userSpaceOnUse" color-interpolation-filters="sRGB">
<feFlood flood-opacity="0" result="BackgroundImageFix"/>
<feColorMatrix in="SourceAlpha" type="matrix" values="0 0 0 0 0 0 0 0 0 0 0 0 0 0 0 0 0 0 127 0" result="hardAlpha"/>
<feOffset dy="4.49619"/>
<feGaussianBlur stdDeviation="2.99746"/>
<feComposite in2="hardAlpha" operator="out"/>
<feColorMatrix type="matrix" values="0 0 0 0 0.0988582 0 0 0 0 0.227531 0 0 0 0 0.353065 0 0 0 0.7 0"/>
<feBlend mode="normal" in2="BackgroundImageFix" result="effect1_dropShadow_2245_2126"/>
<feBlend mode="normal" in="SourceGraphic" in2="effect1_dropShadow_2245_2126" result="shape"/>
</filter>
</defs>
</svg>
