<svg width="20" height="20" viewBox="0 0 20 20" fill="none" xmlns="http://www.w3.org/2000/svg">
<path d="M9.01135 11.4615C8.8138 11.4615 8.62068 11.52 8.45639 11.6297C8.2921 11.7394 8.16403 11.8953 8.08837 12.0778C8.01271 12.2603 7.99286 12.4611 8.03133 12.6549C8.06979 12.8486 8.16485 13.0267 8.30448 13.1664C8.44411 13.3061 8.62204 13.4013 8.81577 13.44C9.0095 13.4786 9.21034 13.4589 9.39288 13.3834C9.57543 13.3079 9.73148 13.1799 9.84132 13.0158C9.95115 12.8516 10.0098 12.6585 10.0099 12.4609C10.0099 12.196 9.90466 11.942 9.71743 11.7546C9.5302 11.5672 9.27624 11.4618 9.01135 11.4615Z" fill="#3A5EAF"/>
<path d="M14.7698 5.78442C14.7694 5.73136 14.7482 5.68057 14.7107 5.64305L12.1349 3.05797C12.1165 3.03951 12.0946 3.02488 12.0704 3.01494C12.0463 3.00499 12.0205 2.99991 11.9944 3H5.42229C5.36933 3 5.31853 3.02102 5.28105 3.05845C5.24358 3.09587 5.22248 3.14665 5.22241 3.19961V9.15699H14.7698V5.78442Z" fill="#3A5EAF"/>
<path d="M5.22241 16.8004C5.22248 16.8534 5.24358 16.9041 5.28105 16.9415C5.31853 16.979 5.36933 17 5.42229 17H14.5699C14.6228 17 14.6736 16.979 14.7111 16.9415C14.7486 16.9041 14.7697 16.8534 14.7698 16.8004V15.9464H5.22241V16.8004Z" fill="#3A5EAF"/>
<path d="M15.6333 9.97733H4.36768C4.2589 9.97733 4.15457 10.0205 4.07765 10.0975C4.00073 10.1744 3.95752 10.2787 3.95752 10.3875V14.716C3.95752 14.8248 4.00073 14.9291 4.07765 15.006C4.15457 15.0829 4.2589 15.1262 4.36768 15.1262H15.6333C15.7421 15.1262 15.8464 15.0829 15.9233 15.006C16.0002 14.9291 16.0435 14.8248 16.0435 14.716V10.3875C16.0435 10.2787 16.0002 10.1744 15.9233 10.0975C15.8464 10.0205 15.7421 9.97733 15.6333 9.97733ZM6.54807 14.2769C6.22814 14.2788 6.00885 14.2796 5.85736 14.2796C5.53908 14.2796 5.51885 14.276 5.48959 14.2711C5.39422 14.2547 5.30771 14.2052 5.24536 14.1311C5.18302 14.0571 5.14884 13.9635 5.14889 13.8667V11.0503C5.14889 10.9415 5.1921 10.8372 5.26902 10.7603C5.34594 10.6834 5.45026 10.6401 5.55904 10.6401C5.66782 10.6401 5.77215 10.6834 5.84907 10.7603C5.92599 10.8372 5.9692 10.9415 5.9692 11.0503V13.459L6.54342 13.4565C6.6522 13.4559 6.75677 13.4985 6.83412 13.575C6.91148 13.6515 6.95528 13.7556 6.9559 13.8644C6.95652 13.9732 6.91389 14.0777 6.83741 14.1551C6.76093 14.2324 6.65685 14.2762 6.54807 14.2769ZM9.01147 14.2793C8.65162 14.2794 8.29984 14.1727 8.00062 13.9728C7.70141 13.7729 7.4682 13.4888 7.33049 13.1563C7.19278 12.8239 7.15676 12.458 7.22699 12.1051C7.29722 11.7522 7.47054 11.428 7.72503 11.1736C7.97952 10.9192 8.30374 10.746 8.65669 10.6758C9.00964 10.6057 9.37545 10.6418 9.70787 10.7796C10.0403 10.9175 10.3244 11.1507 10.5242 11.45C10.724 11.7493 10.8305 12.1011 10.8304 12.461C10.8296 12.9431 10.6378 13.4053 10.2968 13.7461C9.95582 14.087 9.4936 14.2787 9.01147 14.2793ZM13.2169 14.2793C12.9325 14.2793 12.6521 14.2126 12.3981 14.0846C12.1441 13.9566 11.9237 13.7708 11.7545 13.5422C11.5853 13.3136 11.4721 13.0485 11.424 12.7681C11.3758 12.4878 11.3941 12.2001 11.4772 11.9281C11.5604 11.6562 11.7062 11.4075 11.9029 11.202C12.0996 10.9966 12.3417 10.8401 12.6098 10.7452C12.8779 10.6503 13.1646 10.6196 13.4467 10.6555C13.7288 10.6915 13.9986 10.793 14.2344 10.9521C14.279 10.9824 14.3173 11.0211 14.3469 11.0661C14.3766 11.1111 14.3971 11.1615 14.4073 11.2145C14.4175 11.2674 14.4171 11.3218 14.4063 11.3747C14.3954 11.4275 14.3743 11.4776 14.344 11.5222C14.3138 11.5669 14.2751 11.6051 14.2301 11.6348C14.1851 11.6645 14.1346 11.685 14.0817 11.6951C14.0288 11.7053 13.9743 11.705 13.9215 11.6941C13.8687 11.6833 13.8186 11.6621 13.7739 11.6319C13.6444 11.5446 13.4963 11.4889 13.3414 11.4692C13.1865 11.4496 13.0291 11.4665 12.8819 11.5187C12.7347 11.5708 12.6018 11.6568 12.4939 11.7696C12.3859 11.8824 12.3059 12.019 12.2603 12.1683C12.2147 12.3177 12.2047 12.4757 12.2312 12.6296C12.2577 12.7834 12.3199 12.929 12.4128 13.0545C12.5057 13.18 12.6268 13.282 12.7662 13.3522C12.9057 13.4225 13.0597 13.459 13.2158 13.459C13.6399 13.459 13.8694 13.1962 13.9659 12.8703H13.5905C13.4817 12.8703 13.3773 12.8271 13.3004 12.7502C13.2235 12.6732 13.1803 12.5689 13.1803 12.4601C13.1803 12.3514 13.2235 12.247 13.3004 12.1701C13.3773 12.0932 13.4817 12.05 13.5905 12.05H14.4332C14.542 12.05 14.6463 12.0932 14.7232 12.1701C14.8001 12.247 14.8433 12.3514 14.8433 12.4601C14.8433 13.5312 14.1745 14.2793 13.2169 14.2793Z" fill="#3A5EAF"/>
</svg>
