<svg width="16" height="17" viewBox="0 0 16 17" fill="none" xmlns="http://www.w3.org/2000/svg">
<g id="heroicons:user-16-solid">
<path id="Vector" d="M8.0004 8.10413C8.984 8.10413 9.92732 7.73538 10.6228 7.079C11.3183 6.42262 11.7091 5.53238 11.7091 4.60413C11.7091 3.67587 11.3183 2.78563 10.6228 2.12925C9.92732 1.47288 8.984 1.10413 8.0004 1.10413C7.0168 1.10413 6.07349 1.47288 5.37798 2.12925C4.68247 2.78563 4.29173 3.67587 4.29173 4.60413C4.29173 5.53238 4.68247 6.42262 5.37798 7.079C6.07349 7.73538 7.0168 8.10413 8.0004 8.10413ZM13.8539 15.1041C14.6179 15.1041 15.2051 14.4496 14.9319 13.7753C14.396 12.45 13.4462 11.3097 12.2083 10.5051C10.9704 9.70052 9.50283 9.26972 7.99978 9.26972C6.49673 9.26972 5.02912 9.70052 3.79124 10.5051C2.55336 11.3097 1.60359 12.45 1.06766 13.7753C0.795692 14.4496 1.38166 15.1041 2.14565 15.1041H13.8539Z" fill="#231F20"/>
</g>
</svg>
