<svg width="16" height="17" viewBox="0 0 16 17" fill="none" xmlns="http://www.w3.org/2000/svg">
<g id="majesticons:login">
<path id="Vector" fill-rule="evenodd" clip-rule="evenodd" d="M7.25 1.10419C6.65326 1.10419 6.08097 1.32544 5.65901 1.71926C5.23705 2.11309 5 2.64723 5 3.20419V13.0042C5 13.5611 5.23705 14.0953 5.65901 14.4891C6.08097 14.8829 6.65326 15.1042 7.25 15.1042H11.75C12.3467 15.1042 12.919 14.8829 13.341 14.4891C13.7629 14.0953 14 13.5611 14 13.0042V3.20419C14 2.64723 13.7629 2.11309 13.341 1.71926C12.919 1.32544 12.3467 1.10419 11.75 1.10419H7.25ZM8.21975 5.50929C8.3604 5.37806 8.55113 5.30434 8.75 5.30434C8.94887 5.30434 9.1396 5.37806 9.28025 5.50929L11.5303 7.60929C11.6709 7.74056 11.7498 7.91857 11.7498 8.10419C11.7498 8.2898 11.6709 8.46782 11.5303 8.59909L9.28025 10.6991C9.1388 10.8266 8.94935 10.8972 8.7527 10.8956C8.55605 10.894 8.36794 10.8203 8.22889 10.6906C8.08983 10.5608 8.01095 10.3852 8.00924 10.2017C8.00754 10.0181 8.08313 9.84131 8.21975 9.70929L9.1895 8.80419H2.75C2.55109 8.80419 2.36032 8.73044 2.21967 8.59916C2.07902 8.46789 2 8.28984 2 8.10419C2 7.91854 2.07902 7.74049 2.21967 7.60921C2.36032 7.47794 2.55109 7.40419 2.75 7.40419H9.1895L8.21975 6.49909C8.07915 6.36782 8.00016 6.1898 8.00016 6.00419C8.00016 5.81857 8.07915 5.64056 8.21975 5.50929Z" fill="#231F20"/>
</g>
</svg>
