<svg width="16" height="17" viewBox="0 0 16 17" fill="none" xmlns="http://www.w3.org/2000/svg">
<g id="Frame 38">
<path id="Vector" d="M10.5548 1.17499C10.9263 1.10378 11.3057 1.08796 11.6771 1.11961C12.0012 1.15126 12.3173 1.23038 12.6256 1.33324C11.8431 2.11657 11.0686 2.89989 10.2861 3.6753C10.2229 3.7386 10.1597 3.8019 10.0964 3.8652C10.5153 4.27664 10.9184 4.70391 11.3373 5.11535C11.7404 5.51888 12.1355 5.92241 12.5307 6.32594C12.5386 6.33386 12.5623 6.35759 12.5781 6.34177C13.4159 5.50306 14.2537 4.66435 15.0915 3.82564C15.21 4.20543 15.2812 4.60896 15.2891 5.00458C15.2891 5.41602 15.2416 5.83538 15.1231 6.231C15.052 6.46045 14.965 6.682 14.8623 6.89563C14.799 7.01432 14.7358 7.133 14.6568 7.24378C14.5066 7.48906 14.309 7.70269 14.1114 7.90842C13.985 8.0271 13.8585 8.14579 13.7242 8.24865C13.6214 8.3436 13.495 8.40689 13.3764 8.48602C13.329 8.51767 13.2737 8.54932 13.2183 8.57305C12.9812 8.70756 12.7204 8.80251 12.4675 8.88955C11.7325 9.1111 10.9263 9.13483 10.1913 8.89746C10.049 8.86581 9.92255 8.7946 9.78819 8.74713C9.29817 9.34847 8.80025 9.94189 8.31023 10.5353C7.25115 11.825 6.18417 13.1068 5.12509 14.3966C5.05396 14.4836 4.96702 14.5469 4.88799 14.626C4.79315 14.6972 4.6983 14.7684 4.59556 14.8238C4.35845 14.9662 4.08183 15.0454 3.8052 15.0849C3.25195 15.1561 2.65128 15.0295 2.20868 14.6893C2.0111 14.5548 1.84512 14.3886 1.71076 14.1987C1.23655 13.5816 1.16542 12.6954 1.48156 11.9912C1.60011 11.7459 1.75818 11.5244 1.94787 11.3424C3.84472 9.75991 5.74157 8.18535 7.63842 6.60288C7.46455 6.1677 7.3618 5.70878 7.34599 5.24195C7.32228 4.6327 7.44084 4.01553 7.68585 3.45376C7.71746 3.35881 7.77279 3.27177 7.82021 3.17682C7.88344 3.05022 7.96247 2.93154 8.04151 2.81285C8.18377 2.61504 8.34184 2.43306 8.50782 2.25899C8.61847 2.16404 8.72121 2.06118 8.83186 1.97414C9.05316 1.79216 9.29027 1.64182 9.54318 1.50731C9.86723 1.36489 10.2071 1.23829 10.5548 1.17499ZM3.33099 12.0545C3.09388 12.0941 2.88839 12.2444 2.75403 12.4422C2.62757 12.6163 2.59596 12.8457 2.62757 13.0594C2.6908 13.4075 2.97533 13.724 3.33099 13.7715C3.52858 13.7952 3.74988 13.7794 3.92375 13.6765C4.11344 13.5737 4.26361 13.3996 4.33474 13.2018C4.40587 12.9802 4.39797 12.735 4.29522 12.5213C4.21619 12.371 4.08973 12.2365 3.93956 12.1494C3.75778 12.0387 3.53648 12.0149 3.33099 12.0545Z" fill="#231F20"/>
</g>
</svg>
