<svg width="16" height="17" viewBox="0 0 16 17" fill="none" xmlns="http://www.w3.org/2000/svg">
<g id="Frame 40">
<g id="Group 1171276183">
<path id="Vector" d="M7.3983 1.18326C7.60478 1.10327 7.85255 1.08994 8.07555 1.1166C8.34811 1.1566 8.60414 1.27658 8.79411 1.44321C9.00059 1.60985 9.14925 1.82981 9.19881 2.0631C9.14925 2.10309 9.12447 2.14975 9.0997 2.19641C9.06666 2.30306 9.04188 2.40304 8.98407 2.50302C9.39703 2.603 9.79347 2.73631 10.1569 2.92294C10.5203 3.10291 10.8424 3.32954 11.1149 3.58949C11.3792 3.83611 11.6188 4.1094 11.7839 4.40934C12.0482 4.84926 12.1804 5.32917 12.1969 5.81575C12.2052 6.16236 12.1969 6.50229 12.2052 6.8489C12.2052 7.20217 12.2052 7.5621 12.2052 7.91537C12.2382 8.21532 12.329 8.51526 12.486 8.79521C12.5933 9.00184 12.7503 9.19514 12.9155 9.37511C13.0063 9.46176 13.0889 9.55507 13.1963 9.62839C13.378 9.7817 13.5844 9.90834 13.8074 10.0217C13.89 10.075 13.9892 10.1083 14.0883 10.1483C14.2204 10.2083 14.3608 10.2416 14.5012 10.2883C14.5012 11.0148 14.5012 11.748 14.5012 12.4745C10.1651 12.4745 5.83731 12.4745 1.50122 12.4745C1.50122 11.748 1.50122 11.0148 1.50122 10.2883C1.82333 10.155 2.12892 10.0017 2.39322 9.80836C2.94658 9.40177 3.37606 8.8752 3.56602 8.28197C3.60732 8.12867 3.64862 7.9687 3.66513 7.80872C3.66513 7.4088 3.66513 7.00887 3.66513 6.61561C3.66513 6.30233 3.65688 5.99572 3.67339 5.68244C3.69817 5.24252 3.82206 4.80927 4.04506 4.40934C4.40846 3.77612 5.00313 3.22289 5.75471 2.86962C6.10986 2.69632 6.5063 2.58301 6.911 2.50302C6.81189 2.41637 6.73756 2.30972 6.71278 2.19641C6.67975 1.99645 6.72104 1.78315 6.84493 1.60985C6.97708 1.42988 7.15878 1.26991 7.3983 1.18326Z" fill="#231F20"/>
<path id="Vector_2" d="M5.72995 13.3677C7.16705 13.3677 8.60416 13.3677 10.0495 13.3677C10.0413 13.5276 10.033 13.6876 9.96693 13.8409C9.83478 14.2142 9.53745 14.5475 9.14926 14.7741C8.41419 15.2207 7.30746 15.214 6.58891 14.7541C6.40721 14.6341 6.23376 14.4941 6.10161 14.3342C5.91165 14.1142 5.78776 13.8609 5.75473 13.5943C5.73821 13.521 5.73821 13.441 5.72995 13.3677Z" fill="#231F20"/>
</g>
</g>
</svg>
