<svg width="16" height="17" viewBox="0 0 16 17" fill="none" xmlns="http://www.w3.org/2000/svg">
<g id="mingcute:back-2-fill" clip-path="url(#clip0_251_249)">
<g id="Group">
<path id="Vector" d="M4.77332 7.41876C5.39134 6.68959 6.21835 6.16778 7.14255 5.92388C8.06675 5.67998 9.04355 5.72576 9.94089 6.05503C10.8382 6.38429 11.6128 6.98116 12.1599 7.76494C12.707 8.54871 13.0003 9.48158 13 10.4374C13 10.7026 13.1053 10.957 13.2929 11.1445C13.4804 11.3321 13.7348 11.4374 14 11.4374C14.2652 11.4374 14.5196 11.3321 14.7071 11.1445C14.8946 10.957 15 10.7026 15 10.4374C15 6.75542 12.0153 3.77076 8.33332 3.77076C7.40108 3.76974 6.47904 3.96478 5.62707 4.34322C4.77509 4.72165 4.01223 5.27503 3.38799 5.96742L3.15666 4.65742C3.13618 4.52603 3.08971 4.40004 3.01996 4.28683C2.9502 4.17361 2.85857 4.07545 2.75042 3.99808C2.64227 3.9207 2.51977 3.86568 2.3901 3.83622C2.26042 3.80677 2.12618 3.80347 1.99521 3.82652C1.86425 3.84958 1.7392 3.89852 1.62738 3.97049C1.51556 4.04245 1.41921 4.136 1.34399 4.24565C1.26876 4.35531 1.21615 4.47886 1.18925 4.60909C1.16235 4.73932 1.1617 4.8736 1.18732 5.00409L1.88199 8.94409C1.92799 9.20476 2.07532 9.43742 2.29332 9.58942C2.56199 9.77742 2.91599 9.81942 3.21666 9.72409L6.97932 9.06009C7.11071 9.03962 7.2367 8.99314 7.34992 8.92339C7.46313 8.85364 7.5613 8.762 7.63867 8.65385C7.71604 8.5457 7.77107 8.4232 7.80052 8.29353C7.82998 8.16386 7.83328 8.02961 7.81022 7.89864C7.78717 7.76768 7.73823 7.64263 7.66626 7.53081C7.59429 7.41899 7.50074 7.32265 7.39109 7.24742C7.28144 7.17219 7.15788 7.11959 7.02766 7.09269C6.89743 7.06579 6.76314 7.06513 6.63266 7.09076L4.77399 7.41809L4.77332 7.41876Z" fill="white"/>
</g>
</g>
<defs>
<clipPath id="clip0_251_249">
<rect width="16" height="16" fill="white" transform="translate(0 0.104126)"/>
</clipPath>
</defs>
</svg>
