<svg width="159" height="134" viewBox="0 0 159 134" fill="none" xmlns="http://www.w3.org/2000/svg">
<g id="Layer_1" clip-path="url(#clip0_19_399)">
<path id="Vector" d="M88.4327 53.4321C88.4327 53.4321 90.1479 56.0686 87.6811 59.0637C87.6811 59.0637 85.7886 61.766 81.7348 57.4795C79.8563 55.9162 73.6769 50.2725 70.647 45.5746C67.5342 40.7477 70.4689 38.0679 74.5018 41.0465C75.8435 42.0374 77.2925 43.1313 78.8428 44.4452C82.8635 47.8543 86.8073 51.7233 88.4327 53.4321Z" fill="#F28DA1"/>
<path id="Vector_2" d="M85.5346 40.9972C85.5346 40.9972 88.774 43.0716 85.9929 46.4468C85.9929 46.4468 87.8103 55.2865 83.2388 50.4535C82.7029 50.3842 81.9958 48.5385 80.0213 46.3836C77.9437 44.1178 75.174 41.3003 73.0109 38.8795C70.4576 36.0222 69.3193 33.6975 69.7095 31.8665C70.0604 30.2226 71.6168 28.7848 74.9435 30.9224C76.3655 31.8197 78.8376 34.1097 80.1417 35.454C82.4305 37.8142 84.1301 39.5204 85.5355 40.9972" fill="#F28DA1"/>
<path id="Vector_3" d="M84.4278 29.6622C84.4278 29.6622 89.4706 33.0392 86.3604 36.1192C86.3604 36.1192 84.2121 41.658 80.1557 36.392C78.9467 34.7204 75.593 31.0341 73.3714 27.6398C69.301 21.421 73.2518 18.0587 78.0869 22.0949C80.8724 24.4204 83.0101 28.0114 84.4278 29.6622Z" fill="#F28DA1"/>
<path id="Vector_4" d="M77.7386 70.4584C77.7386 70.4584 81.5881 82.7141 91.8021 85.4831L94.4104 110.747L112.018 113.902H121.247L117.928 84.8032C117.11 78.3428 118.876 75.8501 118.876 75.8501C120.356 72.6411 122.68 69.853 123.359 66.3201C124.323 61.3035 123.069 56.0539 122.811 51.0217C122.654 47.9652 122.693 44.8991 121.951 41.9057C121.571 40.3744 120.666 38.9566 120.508 37.3776C120.339 35.6826 120.435 33.9383 119.914 32.2961C119.812 31.9756 119.823 31.5547 119.781 31.2195C119.623 29.9636 118.687 28.4132 117.23 28.6332C117.23 28.6332 112.536 28.1378 112.584 36.159C112.584 36.159 113.06 47.41 113.251 48.8443C113.442 50.2795 86.4625 58.6358 86.4625 58.6358L80.1915 57.0456C80.1915 57.0456 74.83 55.5152 76.6832 61.8414C78.5364 68.1667 77.7377 70.4593 77.7377 70.4593" fill="#FFB1C0"/>
<path id="Vector_5" d="M77.7386 70.4576C77.7386 70.4576 81.5881 82.7141 91.8021 85.4823L94.4104 110.745L98.7854 111.529L97.7475 80.9975L101.184 86.2081L101.858 80.7645L104.839 90.5803L104.968 80.3756C104.968 80.3756 112.763 82.5106 117.996 78.3653C118.34 76.6062 118.876 75.8492 118.876 75.8492C119.627 74.2192 120.597 72.6982 121.458 71.1323C120.053 72.4488 120.075 74.4019 114.145 75.4577C108.216 76.5135 98.8378 72.4782 98.8378 72.4782L77.3955 69.2857L77.7394 70.4584L77.7386 70.4576Z" fill="#F698AB"/>
<path id="Vector_6" d="M120.792 88.3368L89.7288 90.9737L90.6374 101.511L121.7 98.8746L120.792 88.3368Z" fill="#B7DFF6"/>
<path id="Vector_7" d="M105.26 89.6565L89.7296 90.9749L90.6382 101.513L106.169 100.194L105.26 89.6565Z" fill="#9ED8F5"/>
<path id="Vector_8" fill-rule="evenodd" clip-rule="evenodd" d="M124.175 92.7646L87.51 95.8775L91.3377 134H128.711L124.175 92.7646Z" fill="#375CAF"/>
<g id="Clip path group">
<mask id="mask0_19_399" style="mask-type:luminance" maskUnits="userSpaceOnUse" x="76" y="12" width="39" height="72">
<g id="clippath">
<path id="Vector_9" d="M109.522 12.7303H81.3027C78.7162 12.7303 76.5994 14.945 76.5994 17.6516V78.7603C76.5994 81.4669 78.7162 83.6816 81.3027 83.6816H109.522C112.109 83.6816 114.226 81.4669 114.226 78.7603V17.6516C114.226 14.945 112.11 12.7303 109.522 12.7303Z" fill="white"/>
</g>
</mask>
<g mask="url(#mask0_19_399)">
<g id="Group">
<path id="Vector_10" d="M114.226 12.7303H76.5994V83.6816H114.226V12.7303Z" fill="url(#paint0_linear_19_399)"/>
</g>
</g>
</g>
<g id="Clip path group_2">
<mask id="mask1_19_399" style="mask-type:luminance" maskUnits="userSpaceOnUse" x="78" y="16" width="34" height="62">
<g id="clippath-1">
<path id="Vector_11" d="M109.522 16.3308C110.871 16.3308 111.983 17.4949 111.983 18.9058V74.7908C111.983 76.2017 110.872 77.3649 109.522 77.3649H81.3027C79.954 77.3649 78.8419 76.2017 78.8419 74.7908V18.9058C78.8419 17.494 79.954 16.3308 81.3027 16.3308H109.522Z" fill="white"/>
</g>
</mask>
<g mask="url(#mask1_19_399)">
<g id="Group_2">
<path id="Vector_12" d="M111.983 16.3308H78.8419V77.3649H111.983V16.3308Z" fill="white"/>
</g>
</g>
</g>
<path id="Vector_13" d="M67.9785 125.457C71.6256 107.7 84.0576 100.232 97.0763 84.0774C93.7208 79.9382 86.452 83.7682 81.5331 87.8875C78.7136 90.2494 77.2524 89.094 77.2052 89.1018L80.593 67.6089C79.7742 66.3721 78.4884 51.3266 73.0475 63.0834L70.4593 69.1896C71.7905 67.019 66.4404 55.7239 64.019 63.681C62.6721 60.5907 57.8728 63.6481 56.6882 68.132C54.2886 65.8229 51.4673 70.3354 50.4469 74.1083C48.7456 80.3972 45.9339 97.2234 47.2651 102.337C48.7211 107.93 45.7567 112.407 43.4924 122.196L67.9776 125.457H67.9785Z" fill="#FFB1C0"/>
<path id="Vector_14" d="M77.2061 89.1018L80.5939 67.6089L81.7121 64.7143C80.785 65.7199 80.3643 66.0247 79.8074 67.0719C79.2504 68.119 74.26 91.5503 74.5987 92.0951C74.8518 92.5022 81.2311 90.3551 81.3271 88.0572C81.342 87.7082 79.5778 90.0615 77.207 89.1018" fill="#FFC6D1"/>
<path id="Vector_15" d="M71.5321 116.445C78.072 104.028 86.4773 97.2304 97.0771 84.0774C84.1562 93.8109 75.1355 102.237 67.8406 115.805C67.8406 115.805 70.455 116.222 71.5321 116.445Z" fill="#FFC6D1"/>
<path id="Vector_16" d="M41.9296 111.035L40.3773 122.518L74.2252 127.023L75.7775 115.54L41.9296 111.035Z" fill="#B7DFF6"/>
<path id="Vector_17" d="M41.9351 111.053L40.3807 122.535L57.3039 124.791L58.8582 113.309L41.9351 111.053Z" fill="#9ED8F5"/>
<path id="Vector_18" fill-rule="evenodd" clip-rule="evenodd" d="M76.6928 120.861L38.3876 115.76L35.7645 134H74.3229L76.6928 120.861Z" fill="#375CAF"/>
<g id="Clip path group_3">
<mask id="mask2_19_399" style="mask-type:luminance" maskUnits="userSpaceOnUse" x="35" y="115" width="23" height="19">
<g id="clippath-2">
<path id="Vector_19" d="M57.5402 118.311L38.3876 115.76L35.7645 134H55.0437L57.5402 118.311Z" fill="white"/>
</g>
</mask>
<g mask="url(#mask2_19_399)">
<g id="Group_3">
<path id="Vector_20" d="M57.5393 115.76H35.7645V134H57.5393V115.76Z" fill="url(#paint1_linear_19_399)"/>
</g>
</g>
</g>
<path id="Vector_21" d="M71.5575 73.8684L72.6338 61.9799C72.4557 61.5633 72.5028 60.7622 72.2785 60.2945C71.1638 57.9706 66.7285 57.2067 64.1866 62.9907L61.1907 75.4239L71.5583 73.8684H71.5575Z" fill="#FFB1C0"/>
<path id="Vector_22" d="M72.103 69.4338C72.3998 67.0173 74.0199 61.1857 71.7303 59.5219C72.206 61.7253 70.0534 69.5109 69.012 74.2503L72.103 69.4338Z" fill="#F28DA1"/>
<g id="Clip path group_4">
<mask id="mask3_19_399" style="mask-type:luminance" maskUnits="userSpaceOnUse" x="105" y="92" width="24" height="42">
<g id="clippath-3">
<path id="Vector_23" d="M105.661 94.3367L110.024 134H128.711L124.175 92.7646L105.661 94.3367Z" fill="white"/>
</g>
</mask>
<g mask="url(#mask3_19_399)">
<g id="Group_4">
<path id="Vector_24" d="M128.71 92.7646H105.661V134H128.71V92.7646Z" fill="url(#paint2_linear_19_399)"/>
</g>
</g>
</g>
<g id="Clip path group_5">
<mask id="mask4_19_399" style="mask-type:luminance" maskUnits="userSpaceOnUse" x="37" y="27" width="31" height="23">
<g id="clippath-7">
<path id="Vector_25" d="M37.5688 34.0335L53.221 42.5016L63.9055 27.9637L67.5438 43.5072L41.208 49.577L37.5688 34.0335Z" fill="white"/>
</g>
</mask>
<g mask="url(#mask4_19_399)">
<g id="Group_5">
<path id="Vector_26" d="M67.5438 27.9637H37.5688V49.577H67.5438V27.9637Z" fill="url(#paint3_linear_19_399)"/>
</g>
</g>
</g>
<g id="Clip path group_6">
<mask id="mask5_19_399" style="mask-type:luminance" maskUnits="userSpaceOnUse" x="41" y="39" width="27" height="11">
<g id="clippath-8">
<path id="Vector_27" d="M41.2079 49.577L51.6803 40.4758C52.404 39.7794 53.4881 39.6019 54.3305 39.8782L67.5438 43.5081L41.2079 49.5779V49.577Z" fill="white"/>
</g>
</mask>
<g mask="url(#mask5_19_399)">
<g id="Group_6">
<path id="Vector_28" d="M67.5438 39.6019H41.2079V49.577H67.5438V39.6019Z" fill="url(#paint4_linear_19_399)"/>
</g>
</g>
</g>
<g id="Clip path group_7">
<mask id="mask6_19_399" style="mask-type:luminance" maskUnits="userSpaceOnUse" x="37" y="27" width="27" height="17">
<g id="clippath-9">
<path id="Vector_29" d="M37.5688 34.0335L52.1866 42.6419C53.2385 43.347 54.2773 42.9789 54.8289 42.0097L63.9046 27.9637L37.5688 34.0335Z" fill="white"/>
</g>
</mask>
<g mask="url(#mask6_19_399)">
<g id="Group_7">
<path id="Vector_30" d="M63.9046 27.9637H37.5688V43.347H63.9046V27.9637Z" fill="url(#paint5_linear_19_399)"/>
</g>
</g>
</g>
<g id="Clip path group_8">
<mask id="mask7_19_399" style="mask-type:luminance" maskUnits="userSpaceOnUse" x="23" y="0" width="38" height="27">
<g id="clippath-10">
<path id="Vector_31" d="M26.6468 0L40.7907 17.7253L60.6835 5.92343L57.1325 26.0123L23.0958 20.0889L26.6468 0Z" fill="white"/>
</g>
</mask>
<g mask="url(#mask7_19_399)">
<g id="Group_8">
<path id="Vector_32" d="M60.6844 0H23.0958V26.0123H60.6844V0Z" fill="url(#paint6_linear_19_399)"/>
</g>
</g>
</g>
<g id="Clip path group_9">
<mask id="mask8_19_399" style="mask-type:luminance" maskUnits="userSpaceOnUse" x="23" y="14" width="35" height="13">
<g id="clippath-11">
<path id="Vector_33" d="M23.0958 20.0889L39.9998 14.5778C41.2018 14.1178 42.5662 14.4461 43.419 15.1892L57.1334 26.0123L23.0958 20.0889Z" fill="white"/>
</g>
</mask>
<g mask="url(#mask8_19_399)">
<g id="Group_9">
<path id="Vector_34" d="M57.1334 14.1178H23.0958V26.0123H57.1334V14.1178Z" fill="url(#paint7_linear_19_399)"/>
</g>
</g>
</g>
<g id="Clip path group_10">
<mask id="mask9_19_399" style="mask-type:luminance" maskUnits="userSpaceOnUse" x="26" y="0" width="35" height="19">
<g id="clippath-12">
<path id="Vector_35" d="M26.6469 0L39.5049 17.3762C40.3865 18.7282 41.7945 18.8096 42.932 17.9435L60.6844 5.92343L26.6469 0Z" fill="white"/>
</g>
</mask>
<g mask="url(#mask9_19_399)">
<g id="Group_10">
<path id="Vector_36" d="M60.6844 0H26.6469V18.8097H60.6844V0Z" fill="url(#paint8_linear_19_399)"/>
</g>
</g>
</g>
<g id="Group 8">
<path id="Vector_37" d="M81.6064 52.7916H108.924" stroke="#DAE5F0" stroke-width="0.178322" stroke-miterlimit="10" stroke-linecap="round"/>
<path id="Vector_38" d="M84.4708 47.1359H106.382" stroke="#C2CDD9" stroke-width="0.713287" stroke-miterlimit="10" stroke-linecap="round"/>
<path id="Vector_39" d="M88.7391 49.3982H102.398" stroke="#C2CDD9" stroke-width="0.713287" stroke-miterlimit="10" stroke-linecap="round"/>
<rect id="Rectangle 11" opacity="0.66" x="81.6064" y="24.2306" width="27.3174" height="19.512" rx="0.71" fill="url(#paint9_linear_19_399)"/>
<rect id="Rectangle 3" x="81.6064" y="17.4438" width="6.82934" height="3.39339" rx="0.713287" fill="#FFC888"/>
<rect id="Rectangle 4" x="90.1431" y="18.5749" width="5.69112" height="1.13113" rx="0.565565" fill="#D8E3EB"/>
<rect id="Rectangle 9" x="96.6879" y="18.5749" width="5.69112" height="1.13113" rx="0.565565" fill="#D8E3EB"/>
<rect id="Rectangle 10" x="103.233" y="18.5749" width="5.69112" height="1.13113" rx="0.565565" fill="#D8E3EB"/>
<g id="Group 7">
<path id="Vector_40" d="M82.1943 56.185H106.382" stroke="#C2CDD9" stroke-width="0.356643" stroke-miterlimit="10" stroke-linecap="round"/>
<path id="Vector_41" d="M82.1943 58.4472H108.373" stroke="#C2CDD9" stroke-width="0.356643" stroke-miterlimit="10" stroke-linecap="round"/>
<path id="Vector_42" d="M82.1943 60.7095H102.398" stroke="#C2CDD9" stroke-width="0.356643" stroke-miterlimit="10" stroke-linecap="round"/>
<path id="Vector_43" d="M82.1943 62.9717H106.382" stroke="#C2CDD9" stroke-width="0.356643" stroke-miterlimit="10" stroke-linecap="round"/>
<path id="Vector_44" d="M82.1943 65.234H95.5685" stroke="#C2CDD9" stroke-width="0.356643" stroke-miterlimit="10" stroke-linecap="round"/>
<rect id="Rectangle 12" x="81.6064" y="68.9823" width="27.3174" height="5.37286" rx="1.42657" fill="#6893F4"/>
</g>
</g>
<g id="Group 1171276143">
<g id="Clip path group_11">
<mask id="mask10_19_399" style="mask-type:luminance" maskUnits="userSpaceOnUse" x="64" y="3" width="29" height="24">
<g id="clippath-4">
<path id="Vector_45" d="M71.2956 3.30426L76.7548 17.8881L92.3023 14.3612L85.6734 26.7589L64.6667 15.702L71.2956 3.30426Z" fill="white"/>
</g>
</mask>
<g mask="url(#mask10_19_399)">
<g id="Group_11">
<path id="Vector_46" d="M92.3023 3.30426H64.6667V26.7598H92.3023V3.30426Z" fill="url(#paint10_linear_19_399)"/>
</g>
</g>
</g>
<g id="Clip path group_12">
<mask id="mask11_19_399" style="mask-type:luminance" maskUnits="userSpaceOnUse" x="64" y="15" width="22" height="12">
<g id="clippath-5">
<path id="Vector_47" d="M64.6667 15.702L76.9102 15.6613C77.7953 15.6136 78.6185 16.1168 79.0166 16.7829L85.6725 26.7598L64.6658 15.702H64.6667Z" fill="white"/>
</g>
</mask>
<g mask="url(#mask11_19_399)">
<g id="Group_12">
<path id="Vector_48" d="M85.6734 15.6136H64.6667V26.7589H85.6734V15.6136Z" fill="url(#paint11_linear_19_399)"/>
</g>
</g>
</g>
<g id="Clip path group_13">
<mask id="mask12_19_399" style="mask-type:luminance" maskUnits="userSpaceOnUse" x="71" y="3" width="22" height="16">
<g id="clippath-6">
<path id="Vector_49" d="M71.2956 3.30426L75.9867 17.3892C76.2738 18.4597 77.1782 18.8096 78.1078 18.4831L92.3014 14.3621L71.2947 3.30513L71.2956 3.30426Z" fill="white"/>
</g>
</mask>
<g mask="url(#mask12_19_399)">
<g id="Group_13">
<path id="Vector_50" d="M92.3023 3.30426H71.2956V18.8096H92.3023V3.30426Z" fill="url(#paint12_linear_19_399)"/>
</g>
</g>
</g>
</g>
<path id="Vector_51" d="M80.3093 69.4148L81.0198 67.2252L86.0068 49.7814C89.1781 41.2293 81.4956 39.9613 79.192 44.1239C79.192 44.1239 73.8969 60.5361 72.6966 63.1302L67.968 76.9665L80.3093 69.4148Z" fill="#FFB1C0"/>
<path id="Vector_52" d="M80.3093 69.4148L81.0198 67.2252L86.0068 49.7814C87.1477 46.7032 86.8832 44.5691 85.9702 43.2924C86.0679 44.4496 86.15 46.3368 85.5695 47.8725C84.6966 50.1781 78.9668 70.2341 78.9659 70.2359L80.3093 69.4139V69.4148Z" fill="#FFC6D1"/>
<g id="Group 1171276144">
<g id="Clip path group_14">
<mask id="mask13_19_399" style="mask-type:luminance" maskUnits="userSpaceOnUse" x="0" y="30" width="19" height="16">
<g id="clippath-4_2">
<path id="Vector_53" d="M14.0524 30.1124L10.4004 39.8682L-7.62939e-06 37.5089L4.43439 45.8023L18.4868 38.4058L14.0524 30.1124Z" fill="white"/>
</g>
</mask>
<g mask="url(#mask13_19_399)">
<g id="Group_14">
<path id="Vector_54" d="M-7.62939e-06 30.1124H18.4868V45.8029H-7.62939e-06V30.1124Z" fill="url(#paint13_linear_19_399)"/>
</g>
</g>
</g>
<g id="Clip path group_15">
<mask id="mask14_19_399" style="mask-type:luminance" maskUnits="userSpaceOnUse" x="4" y="38" width="15" height="8">
<g id="clippath-5_2">
<path id="Vector_55" d="M18.4868 38.4058L10.2965 38.3786C9.70442 38.3467 9.15377 38.6833 8.88749 39.1289L4.43499 45.8029L18.4874 38.4058H18.4868Z" fill="white"/>
</g>
</mask>
<g mask="url(#mask14_19_399)">
<g id="Group_15">
<path id="Vector_56" d="M4.43438 38.3467H18.4868V45.8023H4.43438V38.3467Z" fill="url(#paint14_linear_19_399)"/>
</g>
</g>
</g>
<g id="Clip path group_16">
<mask id="mask15_19_399" style="mask-type:luminance" maskUnits="userSpaceOnUse" x="0" y="30" width="15" height="11">
<g id="clippath-6_2">
<path id="Vector_57" d="M14.0524 30.1124L10.9143 39.5344C10.7222 40.2506 10.1173 40.4846 9.49537 40.2662L0.000607491 37.5095L14.053 30.1129L14.0524 30.1124Z" fill="white"/>
</g>
</mask>
<g mask="url(#mask15_19_399)">
<g id="Group_16">
<path id="Vector_58" d="M-0.000124931 30.1124H14.0522V40.4846H-0.000124931V30.1124Z" fill="url(#paint15_linear_19_399)"/>
</g>
</g>
</g>
</g>
</g>
<defs>
<linearGradient id="paint0_linear_19_399" x1="95.4107" y1="59.8857" x2="95.4176" y2="4.07079" gradientUnits="userSpaceOnUse">
<stop stop-color="#2C4A8C"/>
<stop offset="1" stop-color="#255ECF"/>
</linearGradient>
<linearGradient id="paint1_linear_19_399" x1="46.6523" y1="127.883" x2="46.6523" y2="113.535" gradientUnits="userSpaceOnUse">
<stop stop-color="#375CAF"/>
<stop offset="0.97" stop-color="#4378FB"/>
<stop offset="1" stop-color="#447AFE"/>
</linearGradient>
<linearGradient id="paint2_linear_19_399" x1="117.186" y1="120.17" x2="117.188" y2="87.7325" gradientUnits="userSpaceOnUse">
<stop stop-color="#375CAF"/>
<stop offset="0.97" stop-color="#4378FB"/>
<stop offset="1" stop-color="#447AFE"/>
</linearGradient>
<linearGradient id="paint3_linear_19_399" x1="53.1669" y1="41.3774" x2="51.6429" y2="34.7671" gradientUnits="userSpaceOnUse">
<stop stop-color="#FF9400"/>
<stop offset="1" stop-color="#F9C660"/>
</linearGradient>
<linearGradient id="paint4_linear_19_399" x1="54.6604" y1="45.8033" x2="52.6565" y2="37.1075" gradientUnits="userSpaceOnUse">
<stop stop-color="#FFA900"/>
<stop offset="1" stop-color="#FBDA96"/>
</linearGradient>
<linearGradient id="paint5_linear_19_399" x1="51.2971" y1="38.0497" x2="49.4205" y2="29.8982" gradientUnits="userSpaceOnUse">
<stop stop-color="#FFDB95"/>
<stop offset="1" stop-color="#FAD07C"/>
</linearGradient>
<linearGradient id="paint6_linear_19_399" x1="41.2935" y1="16.375" x2="42.7809" y2="7.83621" gradientUnits="userSpaceOnUse">
<stop stop-color="#FF9400"/>
<stop offset="1" stop-color="#F9C660"/>
</linearGradient>
<linearGradient id="paint7_linear_19_399" x1="39.7484" y1="22.1355" x2="41.7027" y2="10.9036" gradientUnits="userSpaceOnUse">
<stop stop-color="#FFA900"/>
<stop offset="1" stop-color="#FBDA96"/>
</linearGradient>
<linearGradient id="paint8_linear_19_399" x1="43.2148" y1="11.9577" x2="45.0444" y2="1.42945" gradientUnits="userSpaceOnUse">
<stop stop-color="#FFDB95"/>
<stop offset="1" stop-color="#FAD07C"/>
</linearGradient>
<linearGradient id="paint9_linear_19_399" x1="88.5298" y1="51.203" x2="70.205" y2="28.1344" gradientUnits="userSpaceOnUse">
<stop stop-color="#3662C7"/>
<stop offset="0.475" stop-color="#32B495"/>
<stop offset="1" stop-color="#B4D859"/>
</linearGradient>
<linearGradient id="paint10_linear_19_399" x1="77.3728" y1="17.1103" x2="80.1556" y2="11.8263" gradientUnits="userSpaceOnUse">
<stop stop-color="#FF9400"/>
<stop offset="1" stop-color="#F9C660"/>
</linearGradient>
<linearGradient id="paint11_linear_19_399" x1="75.4236" y1="20.7125" x2="79.0824" y2="13.7572" gradientUnits="userSpaceOnUse">
<stop stop-color="#FFA900"/>
<stop offset="1" stop-color="#FBDA96"/>
</linearGradient>
<linearGradient id="paint12_linear_19_399" x1="79.8222" y1="14.7553" x2="83.2525" y2="8.23632" gradientUnits="userSpaceOnUse">
<stop stop-color="#FFDB95"/>
<stop offset="1" stop-color="#FAD07C"/>
</linearGradient>
<linearGradient id="paint13_linear_19_399" x1="9.98701" y1="39.3479" x2="8.12552" y2="35.8131" gradientUnits="userSpaceOnUse">
<stop stop-color="#FF9400"/>
<stop offset="1" stop-color="#F9C660"/>
</linearGradient>
<linearGradient id="paint14_linear_19_399" x1="11.2909" y1="41.7576" x2="8.84338" y2="37.1049" gradientUnits="userSpaceOnUse">
<stop stop-color="#FFA900"/>
<stop offset="1" stop-color="#FBDA96"/>
</linearGradient>
<linearGradient id="paint15_linear_19_399" x1="8.34838" y1="37.7725" x2="6.05368" y2="33.4117" gradientUnits="userSpaceOnUse">
<stop stop-color="#FFDB95"/>
<stop offset="1" stop-color="#FAD07C"/>
</linearGradient>
<clipPath id="clip0_19_399">
<rect width="159.001" height="134" fill="white"/>
</clipPath>
</defs>
</svg>
