<svg width="175" height="62" viewBox="0 0 175 62" fill="none" xmlns="http://www.w3.org/2000/svg">
<g filter="url(#filter0_d_2245_2114)">
<path d="M23.089 3.24485C26.5668 1.23693 30.8516 1.23693 34.3294 3.24484L45.8029 9.86903C49.2807 11.8769 51.4231 15.5877 51.4231 19.6036V32.852C51.4231 36.8678 49.2807 40.5786 45.8029 42.5865L34.3294 49.2107C30.8516 51.2186 26.5668 51.2186 23.089 49.2107L11.6155 42.5865C8.13773 40.5786 5.9953 36.8678 5.9953 32.8519V19.6036C5.9953 15.5877 8.13772 11.8769 11.6155 9.86903L23.089 3.24485Z" fill="#D9F0FB"/>
</g>
<g clip-path="url(#clip0_2245_2114)">
<path d="M28.8877 26.1053H38.9996V16.6683C38.9996 16.4895 38.9286 16.318 38.8021 16.1916C38.6757 16.0652 38.5042 15.9942 38.3255 15.9942H28.8877V26.1053Z" fill="#4CAF50"/>
<path d="M28.1119 26.1053V15.9942H18.6741C18.4953 15.9942 18.3239 16.0652 18.1974 16.1916C18.071 16.318 18 16.4895 18 16.6683V26.1053H28.1119Z" fill="#F44336"/>
<path d="M28.1119 26.8831H18V36.3201C18 36.4989 18.071 36.6704 18.1974 36.7968C18.3239 36.9232 18.4953 36.9942 18.6741 36.9942H28.1119V26.8831Z" fill="#2196F3"/>
<path d="M28.8877 26.8831V36.9942H38.3255C38.5042 36.9942 38.6757 36.9232 38.8021 36.7968C38.9286 36.6704 38.9996 36.4989 38.9996 36.3201V26.8831H28.8877Z" fill="#FFC107"/>
</g>
<path d="M75.6884 12.8202V24.2379H73.8155V16.418L70.3327 24.2379H69.0349L65.5356 16.418V24.2379H63.6628V12.8202H65.6835L69.692 21.7737L73.6841 12.8202H75.6884ZM79.1028 13.9866C78.7632 13.9866 78.4785 13.8716 78.2485 13.6416C78.0185 13.4116 77.9035 13.1269 77.9035 12.7873C77.9035 12.4478 78.0185 12.1631 78.2485 11.9331C78.4785 11.7031 78.7632 11.5881 79.1028 11.5881C79.4313 11.5881 79.7106 11.7031 79.9406 11.9331C80.1706 12.1631 80.2856 12.4478 80.2856 12.7873C80.2856 13.1269 80.1706 13.4116 79.9406 13.6416C79.7106 13.8716 79.4313 13.9866 79.1028 13.9866ZM80.0228 15.1859V24.2379H78.1499V15.1859H80.0228ZM81.8573 19.7037C81.8573 18.7727 82.0435 17.9568 82.4159 17.2559C82.7992 16.544 83.3249 15.9963 83.993 15.613C84.6611 15.2297 85.4278 15.038 86.293 15.038C87.3882 15.038 88.2918 15.3009 89.0037 15.8266C89.7265 16.3413 90.2139 17.0806 90.4658 18.0444H88.4451C88.2808 17.5954 88.018 17.2449 87.6566 16.993C87.2951 16.7411 86.8406 16.6152 86.293 16.6152C85.5263 16.6152 84.913 16.889 84.453 17.4366C84.004 17.9732 83.7795 18.7289 83.7795 19.7037C83.7795 20.6784 84.004 21.4396 84.453 21.9872C84.913 22.5348 85.5263 22.8086 86.293 22.8086C87.3773 22.8086 88.0946 22.3322 88.4451 21.3794H90.4658C90.203 22.2994 89.7101 23.0332 88.9873 23.5808C88.2644 24.1174 87.3663 24.3858 86.293 24.3858C85.4278 24.3858 84.6611 24.1941 83.993 23.8108C83.3249 23.4165 82.7992 22.8689 82.4159 22.1679C82.0435 21.456 81.8573 20.6346 81.8573 19.7037ZM94.2051 16.5002C94.4789 16.0402 94.8403 15.6842 95.2893 15.4323C95.7493 15.1695 96.2915 15.038 96.9157 15.038V16.9766H96.4393C95.7055 16.9766 95.147 17.1628 94.7636 17.5351C94.3912 17.9075 94.2051 18.5537 94.2051 19.4737V24.2379H92.3322V15.1859H94.2051V16.5002ZM102.564 24.3858C101.709 24.3858 100.937 24.1941 100.247 23.8108C99.5572 23.4165 99.0151 22.8689 98.6208 22.1679C98.2265 21.456 98.0294 20.6346 98.0294 19.7037C98.0294 18.7837 98.232 17.9678 98.6373 17.2559C99.0425 16.544 99.5956 15.9963 100.297 15.613C100.997 15.2297 101.781 15.038 102.646 15.038C103.511 15.038 104.294 15.2297 104.995 15.613C105.696 15.9963 106.249 16.544 106.654 17.2559C107.06 17.9678 107.262 18.7837 107.262 19.7037C107.262 20.6237 107.054 21.4396 106.638 22.1515C106.222 22.8634 105.652 23.4165 104.929 23.8108C104.217 24.1941 103.429 24.3858 102.564 24.3858ZM102.564 22.7594C103.046 22.7594 103.495 22.6444 103.911 22.4144C104.338 22.1844 104.683 21.8394 104.946 21.3794C105.209 20.9194 105.34 20.3608 105.34 19.7037C105.34 19.0465 105.214 18.4935 104.962 18.0444C104.71 17.5844 104.376 17.2394 103.96 17.0094C103.544 16.7794 103.095 16.6644 102.613 16.6644C102.131 16.6644 101.682 16.7794 101.266 17.0094C100.861 17.2394 100.537 17.5844 100.297 18.0444C100.056 18.4935 99.9351 19.0465 99.9351 19.7037C99.9351 20.6784 100.182 21.4341 100.674 21.9708C101.178 22.4965 101.808 22.7594 102.564 22.7594ZM112.399 24.3858C111.687 24.3858 111.047 24.2598 110.477 24.0079C109.919 23.7451 109.475 23.3946 109.146 22.9565C108.818 22.5075 108.643 22.0091 108.621 21.4615H110.559C110.592 21.8448 110.773 22.1679 111.101 22.4308C111.441 22.6827 111.863 22.8086 112.366 22.8086C112.892 22.8086 113.297 22.7101 113.582 22.5129C113.878 22.3048 114.026 22.042 114.026 21.7244C114.026 21.3849 113.861 21.133 113.533 20.9687C113.215 20.8044 112.706 20.6237 112.005 20.4265C111.326 20.2403 110.773 20.0596 110.346 19.8844C109.919 19.7092 109.546 19.4408 109.229 19.0794C108.922 18.718 108.769 18.2416 108.769 17.6501C108.769 17.1682 108.911 16.7301 109.196 16.3359C109.48 15.9306 109.886 15.613 110.411 15.383C110.948 15.153 111.561 15.038 112.251 15.038C113.281 15.038 114.108 15.3009 114.732 15.8266C115.367 16.3413 115.707 17.0478 115.751 17.9458H113.878C113.845 17.5406 113.681 17.2175 113.385 16.9766C113.089 16.7356 112.689 16.6152 112.186 16.6152C111.693 16.6152 111.315 16.7082 111.052 16.8944C110.789 17.0806 110.658 17.327 110.658 17.6337C110.658 17.8747 110.745 18.0773 110.921 18.2416C111.096 18.4058 111.309 18.5373 111.561 18.6358C111.813 18.7235 112.186 18.8385 112.679 18.9808C113.336 19.1561 113.872 19.3368 114.288 19.523C114.716 19.6982 115.083 19.9611 115.389 20.3115C115.696 20.662 115.855 21.1275 115.866 21.7079C115.866 22.2227 115.723 22.6827 115.438 23.0879C115.154 23.4932 114.748 23.8108 114.223 24.0408C113.708 24.2708 113.1 24.3858 112.399 24.3858ZM121.816 24.3858C120.961 24.3858 120.189 24.1941 119.499 23.8108C118.809 23.4165 118.267 22.8689 117.873 22.1679C117.479 21.456 117.281 20.6346 117.281 19.7037C117.281 18.7837 117.484 17.9678 117.889 17.2559C118.294 16.544 118.848 15.9963 119.549 15.613C120.249 15.2297 121.033 15.038 121.898 15.038C122.763 15.038 123.546 15.2297 124.247 15.613C124.948 15.9963 125.501 16.544 125.906 17.2559C126.312 17.9678 126.514 18.7837 126.514 19.7037C126.514 20.6237 126.306 21.4396 125.89 22.1515C125.474 22.8634 124.904 23.4165 124.181 23.8108C123.469 24.1941 122.681 24.3858 121.816 24.3858ZM121.816 22.7594C122.298 22.7594 122.747 22.6444 123.163 22.4144C123.59 22.1844 123.935 21.8394 124.198 21.3794C124.461 20.9194 124.592 20.3608 124.592 19.7037C124.592 19.0465 124.466 18.4935 124.214 18.0444C123.962 17.5844 123.628 17.2394 123.212 17.0094C122.796 16.7794 122.347 16.6644 121.865 16.6644C121.383 16.6644 120.934 16.7794 120.518 17.0094C120.113 17.2394 119.789 17.5844 119.549 18.0444C119.308 18.4935 119.187 19.0465 119.187 19.7037C119.187 20.6784 119.434 21.4341 119.926 21.9708C120.43 22.4965 121.06 22.7594 121.816 22.7594ZM132.161 16.7137H130.485V24.2379H128.596V16.7137H127.528V15.1859H128.596V14.5452C128.596 13.5047 128.869 12.749 129.417 12.2781C129.976 11.7962 130.846 11.5552 132.029 11.5552V13.1159C131.46 13.1159 131.06 13.2254 130.83 13.4445C130.6 13.6526 130.485 14.0195 130.485 14.5452V15.1859H132.161V16.7137ZM136.005 16.7137V21.7244C136.005 22.0639 136.082 22.3103 136.235 22.4637C136.4 22.606 136.673 22.6772 137.057 22.6772H138.207V24.2379H136.728C135.885 24.2379 135.239 24.0408 134.79 23.6465C134.341 23.2522 134.116 22.6115 134.116 21.7244V16.7137H133.048V15.1859H134.116V12.9352H136.005V15.1859H138.207V16.7137H136.005ZM143.921 15.2187C143.987 14.2002 144.376 13.4061 145.087 12.8366C145.81 12.2671 146.73 11.9823 147.847 11.9823C148.614 11.9823 149.277 12.1193 149.835 12.3931C150.394 12.6669 150.815 13.0392 151.1 13.5102C151.385 13.9811 151.527 14.5123 151.527 15.1037C151.527 15.7828 151.347 16.3632 150.985 16.8451C150.624 17.327 150.191 17.6501 149.687 17.8144V17.8801C150.334 18.0773 150.837 18.4387 151.199 18.9644C151.56 19.4792 151.741 20.1418 151.741 20.9522C151.741 21.5984 151.593 22.1734 151.297 22.6772C151.002 23.181 150.564 23.5808 149.983 23.8765C149.403 24.1612 148.707 24.3036 147.897 24.3036C146.714 24.3036 145.739 24.0024 144.972 23.4001C144.217 22.7867 143.812 21.9106 143.757 20.7715H145.564C145.608 21.352 145.832 21.8284 146.237 22.2008C146.643 22.5622 147.19 22.7429 147.88 22.7429C148.548 22.7429 149.063 22.5622 149.425 22.2008C149.786 21.8284 149.967 21.352 149.967 20.7715C149.967 20.0049 149.72 19.4627 149.227 19.1451C148.745 18.8166 148.001 18.6523 146.993 18.6523H146.566V17.108H147.01C147.897 17.097 148.57 16.9492 149.03 16.6644C149.501 16.3797 149.737 15.9306 149.737 15.3173C149.737 14.7916 149.567 14.3754 149.227 14.0688C148.888 13.7511 148.406 13.5923 147.782 13.5923C147.168 13.5923 146.692 13.7511 146.352 14.0688C146.013 14.3754 145.81 14.7587 145.745 15.2187H143.921ZM160.148 15.038C160.028 14.5342 159.809 14.1564 159.491 13.9045C159.173 13.6526 158.73 13.5266 158.16 13.5266C157.295 13.5266 156.649 13.8607 156.222 14.5287C155.795 15.1859 155.57 16.2811 155.548 17.8144C155.833 17.3325 156.249 16.9601 156.797 16.6973C157.344 16.4344 157.936 16.303 158.571 16.303C159.294 16.303 159.929 16.4618 160.477 16.7794C161.035 17.0861 161.468 17.5351 161.775 18.1266C162.092 18.718 162.251 19.4244 162.251 20.2458C162.251 21.0125 162.098 21.697 161.791 22.2994C161.495 22.9017 161.052 23.3782 160.46 23.7286C159.869 24.0682 159.157 24.2379 158.325 24.2379C157.197 24.2379 156.309 23.9915 155.663 23.4986C155.028 22.9948 154.579 22.2884 154.316 21.3794C154.064 20.4703 153.938 19.3368 153.938 17.9787C153.938 13.9702 155.351 11.9659 158.177 11.9659C159.272 11.9659 160.132 12.2616 160.756 12.8531C161.391 13.4445 161.764 14.1728 161.873 15.038H160.148ZM158.16 17.8801C157.492 17.8801 156.923 18.0828 156.452 18.488C155.992 18.8823 155.762 19.4573 155.762 20.213C155.762 20.9687 155.975 21.571 156.402 22.0201C156.841 22.4582 157.448 22.6772 158.226 22.6772C158.916 22.6772 159.458 22.4637 159.852 22.0365C160.258 21.6094 160.46 21.0399 160.46 20.328C160.46 19.5832 160.263 18.9918 159.869 18.5537C159.486 18.1047 158.916 17.8801 158.16 17.8801ZM171.97 13.8716H166.467V17.1409C166.697 16.8342 167.036 16.5768 167.485 16.3687C167.945 16.1606 168.432 16.0566 168.947 16.0566C169.867 16.0566 170.612 16.2537 171.181 16.648C171.762 17.0423 172.173 17.5406 172.414 18.143C172.666 18.7454 172.791 19.3806 172.791 20.0487C172.791 20.8591 172.633 21.582 172.315 22.2172C172.008 22.8415 171.543 23.3344 170.919 23.6958C170.305 24.0572 169.55 24.2379 168.652 24.2379C167.458 24.2379 166.499 23.9422 165.777 23.3508C165.054 22.7594 164.621 21.9763 164.479 21.0015H166.302C166.423 21.5163 166.691 21.927 167.107 22.2337C167.523 22.5294 168.044 22.6772 168.668 22.6772C169.446 22.6772 170.026 22.4417 170.409 21.9708C170.804 21.4999 171.001 20.8756 171.001 20.098C171.001 19.3094 170.804 18.707 170.409 18.2908C170.015 17.8637 169.435 17.6501 168.668 17.6501C168.131 17.6501 167.677 17.787 167.304 18.0608C166.943 18.3237 166.68 18.6851 166.516 19.1451H164.742V12.2288H171.97V13.8716Z" fill="white"/>
<path d="M65.5444 41.2732C65.0308 41.2732 64.5568 41.154 64.1226 40.9157C63.6936 40.6721 63.3521 40.3359 63.0979 39.9069C62.849 39.4727 62.7246 38.9855 62.7246 38.4454C62.7246 37.9052 62.849 37.4207 63.0979 36.9917C63.3521 36.5628 63.6936 36.2292 64.1226 35.9909C64.5568 35.7473 65.0308 35.6255 65.5444 35.6255C66.0634 35.6255 66.5373 35.7473 66.9663 35.9909C67.4005 36.2292 67.7421 36.5628 67.9909 36.9917C68.2398 37.4207 68.3643 37.9052 68.3643 38.4454C68.3643 38.9855 68.2398 39.4727 67.9909 39.9069C67.7421 40.3359 67.4005 40.6721 66.9663 40.9157C66.5373 41.154 66.0634 41.2732 65.5444 41.2732ZM65.5444 40.4868C65.9098 40.4868 66.2355 40.4047 66.5214 40.2405C66.8074 40.0711 67.0298 39.8328 67.1887 39.5256C67.3528 39.2132 67.4349 38.8531 67.4349 38.4454C67.4349 38.0376 67.3528 37.6802 67.1887 37.373C67.0298 37.0659 66.8074 36.8302 66.5214 36.6661C66.2355 36.5019 65.9098 36.4198 65.5444 36.4198C65.179 36.4198 64.8534 36.5019 64.5674 36.6661C64.2814 36.8302 64.0564 37.0659 63.8922 37.373C63.7334 37.6802 63.6539 38.0376 63.6539 38.4454C63.6539 38.8531 63.7334 39.2132 63.8922 39.5256C64.0564 39.8328 64.2814 40.0711 64.5674 40.2405C64.8534 40.4047 65.179 40.4868 65.5444 40.4868ZM73.791 41.2176H72.8854L70.1609 37.095V41.2176H69.2554V35.689H70.1609L72.8854 39.8037V35.689H73.791V41.2176ZM75.8856 36.4278V38.0482H77.792V38.7869H75.8856V40.4788H78.0303V41.2176H74.9801V35.689H78.0303V36.4278H75.8856ZM82.5056 37.9608V38.7234H79.241V37.9608H82.5056ZM83.4903 38.4454C83.4903 37.9052 83.6147 37.4207 83.8636 36.9917C84.1178 36.5628 84.4594 36.2292 84.8883 35.9909C85.3225 35.7473 85.7965 35.6255 86.3102 35.6255C86.898 35.6255 87.4196 35.7711 87.875 36.0624C88.3357 36.3483 88.6693 36.7561 88.8758 37.2856H87.7876C87.6446 36.9944 87.446 36.7773 87.1919 36.6343C86.9377 36.4913 86.6438 36.4198 86.3102 36.4198C85.9448 36.4198 85.6191 36.5019 85.3331 36.6661C85.0472 36.8302 84.8221 37.0659 84.658 37.373C84.4991 37.6802 84.4197 38.0376 84.4197 38.4454C84.4197 38.8531 84.4991 39.2106 84.658 39.5177C84.8221 39.8248 85.0472 40.0631 85.3331 40.2326C85.6191 40.3968 85.9448 40.4788 86.3102 40.4788C86.6438 40.4788 86.9377 40.4073 87.1919 40.2644C87.446 40.1214 87.6446 39.9043 87.7876 39.613H88.8758C88.6693 40.1426 88.3357 40.5503 87.875 40.8363C87.4196 41.1222 86.898 41.2652 86.3102 41.2652C85.7912 41.2652 85.3173 41.1461 84.8883 40.9078C84.4594 40.6642 84.1178 40.3279 83.8636 39.899C83.6147 39.47 83.4903 38.9855 83.4903 38.4454ZM90.8413 40.4868H92.708V41.2176H89.9358V35.697H90.8413V40.4868ZM94.3708 35.697V41.2176H93.4652V35.697H94.3708ZM95.2578 38.4454C95.2578 37.9052 95.3823 37.4207 95.6311 36.9917C95.8853 36.5628 96.2269 36.2292 96.6558 35.9909C97.0901 35.7473 97.564 35.6255 98.0777 35.6255C98.6655 35.6255 99.1871 35.7711 99.6425 36.0624C100.103 36.3483 100.437 36.7561 100.643 37.2856H99.5551C99.4121 36.9944 99.2136 36.7773 98.9594 36.6343C98.7052 36.4913 98.4113 36.4198 98.0777 36.4198C97.7123 36.4198 97.3866 36.5019 97.1006 36.6661C96.8147 36.8302 96.5896 37.0659 96.4255 37.373C96.2666 37.6802 96.1872 38.0376 96.1872 38.4454C96.1872 38.8531 96.2666 39.2106 96.4255 39.5177C96.5896 39.8248 96.8147 40.0631 97.1006 40.2326C97.3866 40.3968 97.7123 40.4788 98.0777 40.4788C98.4113 40.4788 98.7052 40.4073 98.9594 40.2644C99.2136 40.1214 99.4121 39.9043 99.5551 39.613H100.643C100.437 40.1426 100.103 40.5503 99.6425 40.8363C99.1871 41.1222 98.6655 41.2652 98.0777 41.2652C97.5587 41.2652 97.0848 41.1461 96.6558 40.9078C96.2269 40.6642 95.8853 40.3279 95.6311 39.899C95.3823 39.47 95.2578 38.9855 95.2578 38.4454ZM104.746 41.2176L102.609 38.7472V41.2176H101.703V35.697H102.609V38.215L104.753 35.697H105.889L103.491 38.4612L105.929 41.2176H104.746ZM111.732 33.7191L109.572 42.6076H108.682L110.835 33.7191H111.732ZM120.751 35.697V41.2176H119.846V37.4366L118.162 41.2176H117.534L115.842 37.4366V41.2176H114.937V35.697H115.914L117.852 40.0261L119.782 35.697H120.751ZM125.27 40.0896H122.958L122.561 41.2176H121.616L123.594 35.689H124.642L126.62 41.2176H125.667L125.27 40.0896ZM125.016 39.3509L124.118 36.7852L123.212 39.3509H125.016ZM132.016 41.2176H131.11L128.386 37.095V41.2176H127.48V35.689H128.386L131.11 39.8037V35.689H132.016V41.2176ZM134.102 35.697V39.2159C134.102 39.6342 134.211 39.9493 134.428 40.1611C134.65 40.3729 134.958 40.4788 135.35 40.4788C135.747 40.4788 136.054 40.3729 136.271 40.1611C136.493 39.9493 136.605 39.6342 136.605 39.2159V35.697H137.51V39.2C137.51 39.6501 137.412 40.0314 137.216 40.3438C137.02 40.6562 136.758 40.8892 136.43 41.0428C136.101 41.1964 135.739 41.2732 135.342 41.2732C134.944 41.2732 134.582 41.1964 134.253 41.0428C133.93 40.8892 133.673 40.6562 133.483 40.3438C133.292 40.0314 133.197 39.6501 133.197 39.2V35.697H134.102ZM142.017 40.0896H139.706L139.309 41.2176H138.363L140.341 35.689H141.39L143.368 41.2176H142.414L142.017 40.0896ZM141.763 39.3509L140.866 36.7852L139.96 39.3509H141.763ZM145.133 40.4868H147V41.2176H144.228V35.697H145.133V40.4868ZM151.64 41.2732C151.269 41.2732 150.935 41.2096 150.639 41.0825C150.342 40.9501 150.109 40.7648 149.94 40.5265C149.77 40.2882 149.685 40.0102 149.685 39.6925H150.655C150.676 39.9308 150.768 40.1267 150.933 40.2803C151.102 40.4338 151.338 40.5106 151.64 40.5106C151.952 40.5106 152.196 40.4365 152.37 40.2882C152.545 40.1346 152.632 39.9387 152.632 39.7004C152.632 39.5151 152.577 39.3641 152.466 39.2476C152.36 39.1311 152.225 39.0411 152.061 38.9776C151.902 38.914 151.679 38.8452 151.393 38.771C151.033 38.6757 150.739 38.5804 150.512 38.4851C150.289 38.3845 150.099 38.2309 149.94 38.0244C149.781 37.8178 149.701 37.5425 149.701 37.1983C149.701 36.8805 149.781 36.6025 149.94 36.3642C150.099 36.1259 150.321 35.9432 150.607 35.8161C150.893 35.689 151.224 35.6255 151.6 35.6255C152.135 35.6255 152.572 35.7605 152.91 36.0306C153.255 36.2954 153.445 36.6608 153.482 37.1268H152.481C152.466 36.9256 152.37 36.7534 152.196 36.6105C152.021 36.4675 151.79 36.396 151.504 36.396C151.245 36.396 151.033 36.4622 150.869 36.5946C150.705 36.727 150.623 36.9176 150.623 37.1665C150.623 37.336 150.673 37.4763 150.774 37.5875C150.88 37.6934 151.012 37.7781 151.171 37.8417C151.33 37.9052 151.547 37.9741 151.822 38.0482C152.188 38.1488 152.484 38.2494 152.712 38.35C152.945 38.4507 153.141 38.6069 153.3 38.8187C153.464 39.0252 153.546 39.3032 153.546 39.6527C153.546 39.9334 153.469 40.1982 153.316 40.4471C153.167 40.696 152.948 40.8972 152.656 41.0508C152.37 41.199 152.031 41.2732 151.64 41.2732ZM155.52 36.4278V38.0482H157.426V38.7869H155.52V40.4788H157.665V41.2176H154.614V35.689H157.665V36.4278H155.52ZM162.346 35.697V36.4357H160.877V41.2176H159.971V36.4357H158.494V35.697H162.346ZM164.161 35.697V39.2159C164.161 39.6342 164.27 39.9493 164.487 40.1611C164.709 40.3729 165.016 40.4788 165.408 40.4788C165.805 40.4788 166.113 40.3729 166.33 40.1611C166.552 39.9493 166.663 39.6342 166.663 39.2159V35.697H167.569V39.2C167.569 39.6501 167.471 40.0314 167.275 40.3438C167.079 40.6562 166.817 40.8892 166.489 41.0428C166.16 41.1964 165.797 41.2732 165.4 41.2732C165.003 41.2732 164.64 41.1964 164.312 41.0428C163.989 40.8892 163.732 40.6562 163.542 40.3438C163.351 40.0314 163.256 39.6501 163.256 39.2V35.697H164.161ZM172.608 37.3412C172.608 37.6219 172.542 37.8867 172.41 38.1356C172.277 38.3845 172.065 38.5883 171.774 38.7472C171.483 38.9008 171.11 38.9776 170.654 38.9776H169.653V41.2176H168.748V35.697H170.654C171.078 35.697 171.435 35.7711 171.727 35.9194C172.023 36.0624 172.243 36.2583 172.386 36.5072C172.534 36.7561 172.608 37.0341 172.608 37.3412ZM170.654 38.2388C170.998 38.2388 171.255 38.1621 171.425 38.0085C171.594 37.8496 171.679 37.6272 171.679 37.3412C171.679 36.7376 171.337 36.4357 170.654 36.4357H169.653V38.2388H170.654Z" fill="white"/>
<defs>
<filter id="filter0_d_2245_2114" x="0.000202179" y="0.240193" width="57.4176" height="60.9675" filterUnits="userSpaceOnUse" color-interpolation-filters="sRGB">
<feFlood flood-opacity="0" result="BackgroundImageFix"/>
<feColorMatrix in="SourceAlpha" type="matrix" values="0 0 0 0 0 0 0 0 0 0 0 0 0 0 0 0 0 0 127 0" result="hardAlpha"/>
<feOffset dy="4.49619"/>
<feGaussianBlur stdDeviation="2.99746"/>
<feComposite in2="hardAlpha" operator="out"/>
<feColorMatrix type="matrix" values="0 0 0 0 0.0988582 0 0 0 0 0.227531 0 0 0 0 0.353065 0 0 0 0.7 0"/>
<feBlend mode="normal" in2="BackgroundImageFix" result="effect1_dropShadow_2245_2114"/>
<feBlend mode="normal" in="SourceGraphic" in2="effect1_dropShadow_2245_2114" result="shape"/>
</filter>
<clipPath id="clip0_2245_2114">
<rect width="21.3979" height="24.3158" fill="white" transform="translate(17.8008 14.4681)"/>
</clipPath>
</defs>
</svg>
