<svg width="56" height="56" viewBox="0 0 56 56" fill="none" xmlns="http://www.w3.org/2000/svg">
<g id="Group 12">
<path id="Polygon 2" d="M21.75 4.18579C25.6175 1.95288 30.3825 1.95288 34.25 4.18579L45.4987 10.6802C49.3662 12.9131 51.7487 17.0397 51.7487 21.5056V34.4944C51.7487 38.9603 49.3662 43.0869 45.4987 45.3198L34.25 51.8142C30.3825 54.0471 25.6175 54.0471 21.75 51.8142L10.5013 45.3198C6.63378 43.0869 4.25129 38.9603 4.25129 34.4944V21.5056C4.25129 17.0397 6.63378 12.9131 10.5013 10.6802L21.75 4.18579Z" fill="#2D4A8D" stroke="#3C60B3"/>
<g id="Group 1171276157">
<path id="Vector" d="M26.2668 27.1654C26.3904 27.2431 26.5308 27.2842 26.6739 27.2846C26.8169 27.285 26.9575 27.2447 27.0815 27.1676L36.8921 20.9914C36.6802 20.5928 36.3748 20.2614 36.0066 20.0304C35.6384 19.7995 35.2204 19.6771 34.7945 19.6757H18.5573C18.1315 19.6771 17.7135 19.7995 17.3453 20.0304C16.9771 20.2614 16.6717 20.5928 16.4597 20.9914L26.2668 27.1654Z" fill="#F9AA39"/>
<path id="Vector_2" d="M16.6229 35.8962C17.0892 36.3768 17.721 36.6476 18.3805 36.6496H25.4231V28.3392L15.8919 22.6023V34.0847C15.8938 34.7643 16.1566 35.4156 16.6229 35.8962Z" fill="#F9AA39"/>
<path id="Vector_3" d="M29.1551 32.8193L27.2433 34.6929V29.3144H29.1551M32.3414 31.6468L31.3409 30.7928L30.4296 31.634V26.7653H32.3414M35.5278 30.5889L33.616 32.5007V24.2162H35.5278M37.3185 30.4678L36.165 29.3144H39.3514V32.5007L38.2107 31.36L33.616 35.9165L31.4046 33.9919L28.9958 36.3243H27.2433L31.3664 32.284L33.616 34.1831" fill="#E2E9FB"/>
</g>
</g>
</svg>
