<svg width="9" height="12" viewBox="0 0 9 12" fill="none" xmlns="http://www.w3.org/2000/svg">
    <path d="M7.86151 5.05756V3.308C7.86151 2.43066 7.50735 1.58926 6.87695 0.968889C6.24654 0.348519 5.39153 0 4.5 0C3.60847 0 2.75346 0.348519 2.12305 0.968889C1.49265 1.58926 1.13849 2.43066 1.13849 3.308V5.05756C0.765152 5.19445 0.450535 5.45273 0.246756 5.78963C0.0429771 6.12653 -0.0377367 6.52183 0.0179826 6.91004V9.9975C-0.0212347 10.2671 0.00389589 10.542 0.0913866 10.8005C0.178877 11.0589 0.326322 11.2937 0.522037 11.4863C0.717752 11.6789 0.956359 11.824 1.21895 11.9101C1.48154 11.9962 1.7609 12.0209 2.03489 11.9823H6.96511C7.2391 12.0209 7.51846 11.9962 7.78105 11.9101C8.04364 11.824 8.28225 11.6789 8.47796 11.4863C8.67368 11.2937 8.82112 11.0589 8.90861 10.8005C8.9961 10.542 9.02123 10.2671 8.98202 9.9975V6.91004C9.03774 6.52183 8.95702 6.12653 8.75324 5.78963C8.54947 5.45273 8.23485 5.19445 7.86151 5.05756ZM5.6205 4.92524H3.3795V3.308C3.3795 3.01555 3.49755 2.73508 3.70768 2.52829C3.91782 2.3215 4.20282 2.20533 4.5 2.20533C4.79718 2.20533 5.08218 2.3215 5.29232 2.52829C5.50245 2.73508 5.6205 3.01555 5.6205 3.308V4.92524Z" fill="#5A3F17"/>
</svg>