<svg width="24" height="24" viewBox="0 0 24 24" fill="none" xmlns="http://www.w3.org/2000/svg">
<g id="ic:round-attach-email">
<path id="Vector" d="M21 10V4C21 2.9 20.1 2 19 2H3C1.9 2 1.01 2.9 1.01 4L1 16C1 17.1 1.9 18 3 18H14V13C14 11.34 15.34 10 17 10H21ZM11.53 10.67C11.21 10.87 10.79 10.87 10.47 10.67L3.4 6.25C3.29973 6.19371 3.21192 6.11766 3.14189 6.02645C3.07186 5.93525 3.02106 5.83078 2.99258 5.71937C2.96409 5.60796 2.9585 5.49194 2.97616 5.37831C2.99381 5.26468 3.03434 5.15581 3.09528 5.0583C3.15623 4.96079 3.23632 4.87666 3.33073 4.811C3.42513 4.74533 3.53187 4.69951 3.6445 4.6763C3.75712 4.65309 3.87328 4.65297 3.98595 4.67595C4.09863 4.69893 4.20546 4.74453 4.3 4.81L11 9L17.7 4.81C17.7945 4.74453 17.9014 4.69893 18.014 4.67595C18.1267 4.65297 18.2429 4.65309 18.3555 4.6763C18.4681 4.69951 18.5749 4.74533 18.6693 4.811C18.7637 4.87666 18.8438 4.96079 18.9047 5.0583C18.9657 5.15581 19.0062 5.26468 19.0238 5.37831C19.0415 5.49194 19.0359 5.60796 19.0074 5.71937C18.9789 5.83078 18.9281 5.93525 18.8581 6.02645C18.7881 6.11766 18.7003 6.19371 18.6 6.25L11.53 10.67Z" fill="#F9AA39"/>
<path id="Vector_2" d="M22 14C21.45 14 21 14.45 21 15V18C21 19.1 20.1 20 19 20C17.9 20 17 19.1 17 18V13.5C17 13.22 17.22 13 17.5 13C17.78 13 18 13.22 18 13.5V17C18 17.55 18.45 18 19 18C19.55 18 20 17.55 20 17V13.5C20 12.837 19.7366 12.2011 19.2678 11.7322C18.7989 11.2634 18.163 11 17.5 11C16.837 11 16.2011 11.2634 15.7322 11.7322C15.2634 12.2011 15 12.837 15 13.5V18C15 20.21 16.79 22 19 22C21.21 22 23 20.21 23 18V15C23 14.45 22.55 14 22 14Z" fill="#E2E9FB"/>
</g>
</svg>
