<svg width="25" height="26" viewBox="0 0 25 26" fill="none" xmlns="http://www.w3.org/2000/svg">
<g id="Frame 15">
<path id="Vector 3" d="M19.2105 16.8694V12.5082C19.2105 11.9559 18.7628 11.5082 18.2105 11.5082H6.57297C6.02068 11.5082 5.57297 11.9559 5.57297 12.5082V13.7459" stroke="#E2E9FB" stroke-width="2" stroke-linecap="round" stroke-linejoin="round"/>
<path id="Vector 2" d="M1.5 17.6153V23.375C1.5 23.9273 1.94772 24.375 2.5 24.375H22.375C22.9273 24.375 23.375 23.9273 23.375 23.375V17.6153V11.1811C23.375 10.886 23.2447 10.606 23.019 10.416L13.2107 2.16028C12.8421 1.85002 12.3047 1.8467 11.9323 2.15239L1.86553 10.4156C1.63413 10.6056 1.5 10.8892 1.5 11.1886V13.717C1.5 14.0801 1.69686 14.4147 2.0143 14.5911L12.0955 20.1927C12.3941 20.3586 12.7566 20.3606 13.057 20.1981L19.2105 16.8694" stroke="#F9AA39" stroke-width="2" stroke-linecap="round" stroke-linejoin="round"/>
</g>
</svg>
