<svg width="56" height="56" viewBox="0 0 56 56" fill="none" xmlns="http://www.w3.org/2000/svg">
<g id="Group 11">
<path id="Polygon 2" d="M21.75 4.18579C25.6175 1.95288 30.3825 1.95288 34.25 4.18579L45.4987 10.6802C49.3662 12.9131 51.7487 17.0397 51.7487 21.5056V34.4944C51.7487 38.9603 49.3662 43.0869 45.4987 45.3198L34.25 51.8142C30.3825 54.0471 25.6175 54.0471 21.75 51.8142L10.5013 45.3198C6.63378 43.0869 4.25129 38.9603 4.25129 34.4944V21.5056C4.25129 17.0397 6.63378 12.9131 10.5013 10.6802L21.75 4.18579Z" fill="#2D4A8D" stroke="#3C60B3"/>
<g id="Group 14">
<g id="Group 13">
<g id="Group 4">
<path id="Vector" d="M26.1055 25.2953C26.2259 25.3709 26.3626 25.411 26.5019 25.4114C26.6413 25.4117 26.7782 25.3724 26.8989 25.2974L36.4549 19.2816C36.2484 18.8933 35.9509 18.5705 35.5923 18.3456C35.2337 18.1206 34.8265 18.0014 34.4117 18H18.5962C18.1814 18.0014 17.7742 18.1206 17.4156 18.3456C17.057 18.5705 16.7595 18.8933 16.553 19.2816L26.1055 25.2953Z" fill="#F9AA39"/>
<path id="Vector_2" d="M37.0075 20.8506V26.6384C36.2307 26.3474 35.41 26.2008 34.5835 26.2054C32.6558 26.2084 30.8079 26.999 29.4448 28.4039C28.0817 29.8089 27.3146 31.7135 27.3117 33.7004C27.3092 33.9788 27.3254 34.257 27.3602 34.5331H18.4239C17.7816 34.5312 17.1662 34.2674 16.712 33.7993C16.2578 33.3312 16.0018 32.6968 16 32.0348V20.8506L25.2837 26.4386C25.6562 26.6542 26.0764 26.7675 26.5037 26.7675C26.931 26.7675 27.3512 26.6542 27.7238 26.4386L37.0075 20.8506Z" fill="#F9AA39"/>
</g>
</g>
<path id="Vector_3" fill-rule="evenodd" clip-rule="evenodd" d="M37.1398 31.9886L36.3765 32.7895C36.2176 32.9562 35.9598 32.9543 35.7997 32.7864L35.2307 32.1893C35.0681 32.0188 35.0702 31.7494 35.2299 31.5819L37.3778 29.3284C37.695 28.9955 38.2094 28.9955 38.5266 29.3284L40.6745 31.5819C40.8326 31.7478 40.8338 32.0214 40.6737 32.1893L40.1047 32.7864C39.9421 32.9569 39.6863 32.9557 39.5279 32.7895L38.7646 31.9886L38.7646 33.3402C38.7646 36.1644 36.5825 38.4538 33.8906 38.4538C31.1987 38.4538 29.0165 36.1644 29.0165 33.3402C29.0165 30.5159 31.1986 28.2265 33.8905 28.2265L34.2942 28.2265C34.5174 28.2265 34.7028 28.4191 34.7028 28.6566L34.7028 29.5009C34.7028 29.7421 34.5221 29.931 34.2992 29.931L33.8905 29.931C32.0959 29.931 30.6412 31.4573 30.6412 33.3401C30.6412 35.2229 32.0959 36.7492 33.8905 36.7492C35.685 36.7492 37.1398 35.2229 37.1398 33.3401L37.1398 31.9886Z" fill="#E2E9FB"/>
</g>
</g>
</svg>
