<svg width="30" height="18" viewBox="0 0 30 18" fill="none" xmlns="http://www.w3.org/2000/svg">
<g id="Amazon_Web_Services_Logo 1" clip-path="url(#clip0_82_611)">
<g id="Group">
<path id="Vector" d="M8.58026 6.63462C8.58026 6.99039 8.61941 7.27885 8.68791 7.49039C8.7662 7.70193 8.86406 7.9327 9.00107 8.1827C9.05 8.25962 9.06957 8.33654 9.06957 8.40385C9.06957 8.5 9.01086 8.59616 8.88364 8.69231L8.26711 9.09616C8.17903 9.15385 8.09095 9.1827 8.01266 9.1827C7.9148 9.1827 7.81694 9.13462 7.71908 9.04808C7.58207 8.90385 7.46464 8.75 7.36678 8.59616C7.26891 8.4327 7.17105 8.25 7.06341 8.02885C6.30008 8.91347 5.34104 9.35577 4.18627 9.35577C3.36423 9.35577 2.70855 9.125 2.22903 8.66347C1.74951 8.20193 1.50485 7.58654 1.50485 6.81731C1.50485 6 1.79844 5.33654 2.3954 4.83654C2.99235 4.33654 3.78503 4.08654 4.79301 4.08654C5.12574 4.08654 5.46826 4.11539 5.83035 4.16347C6.19243 4.21154 6.56431 4.28847 6.95576 4.375V3.67308C6.95576 2.94231 6.79918 2.4327 6.49581 2.13462C6.18265 1.83654 5.65419 1.69231 4.90066 1.69231C4.55814 1.69231 4.20584 1.73077 3.84375 1.81731C3.48166 1.90385 3.12936 2.00962 2.78684 2.14424C2.63026 2.21154 2.51283 2.25 2.44433 2.26924C2.37582 2.28847 2.32689 2.29808 2.28775 2.29808C2.15074 2.29808 2.08224 2.20193 2.08224 2V1.52885C2.08224 1.375 2.10181 1.25962 2.15074 1.19231C2.19967 1.125 2.28775 1.0577 2.42475 0.990389C2.76727 0.817312 3.17829 0.673082 3.65781 0.557697C4.13734 0.432697 4.64622 0.375005 5.18446 0.375005C6.34901 0.375005 7.20041 0.63462 7.74844 1.15385C8.28668 1.67308 8.56069 2.46154 8.56069 3.51924V6.63462H8.58026ZM4.60707 8.09616C4.93002 8.09616 5.26275 8.03847 5.61505 7.92308C5.96735 7.8077 6.28051 7.59616 6.54474 7.3077C6.70132 7.125 6.81875 6.92308 6.87747 6.69231C6.93618 6.46154 6.97533 6.1827 6.97533 5.85577V5.45193C6.69153 5.38462 6.38816 5.32693 6.075 5.28847C5.76184 5.25 5.45847 5.23077 5.1551 5.23077C4.49942 5.23077 4.0199 5.35577 3.69696 5.61539C3.37401 5.875 3.21743 6.24039 3.21743 6.72116C3.21743 7.17308 3.33487 7.50962 3.57952 7.74039C3.81439 7.98077 4.15691 8.09616 4.60707 8.09616ZM12.4654 9.13462C12.2892 9.13462 12.1718 9.10577 12.0935 9.03847C12.0152 8.98077 11.9467 8.84616 11.888 8.66347L9.58824 1.23077C9.52952 1.03847 9.50016 0.913466 9.50016 0.846159C9.50016 0.692312 9.57845 0.605774 9.73503 0.605774H10.6941C10.88 0.605774 11.0072 0.63462 11.0757 0.701928C11.154 0.75962 11.2127 0.894235 11.2715 1.07693L12.9155 7.44231L14.4422 1.07693C14.4911 0.88462 14.5498 0.75962 14.6281 0.701928C14.7064 0.644235 14.8434 0.605774 15.0196 0.605774H15.8025C15.9884 0.605774 16.1156 0.63462 16.1939 0.701928C16.2722 0.75962 16.3407 0.894235 16.3799 1.07693L17.9261 7.51924L19.6191 1.07693C19.6778 0.88462 19.7463 0.75962 19.8148 0.701928C19.8931 0.644235 20.0203 0.605774 20.1965 0.605774H21.1066C21.2632 0.605774 21.3512 0.682697 21.3512 0.846159C21.3512 0.894235 21.3414 0.942312 21.3317 1C21.3219 1.0577 21.3023 1.13462 21.2632 1.24039L18.9047 8.67308C18.846 8.86539 18.7775 8.99039 18.6992 9.04808C18.6209 9.10577 18.4937 9.14423 18.3273 9.14423H17.4857C17.2998 9.14423 17.1725 9.11539 17.0942 9.04808C17.016 8.98077 16.9475 8.85577 16.9083 8.66347L15.3914 2.46154L13.8844 8.65385C13.8354 8.84616 13.7767 8.97116 13.6984 9.03847C13.6201 9.10577 13.4831 9.13462 13.307 9.13462H12.4654ZM25.0406 9.39423C24.5317 9.39423 24.0229 9.33654 23.5336 9.22116C23.0442 9.10577 22.6626 8.98077 22.4081 8.83654C22.2516 8.75 22.1439 8.65385 22.1048 8.56731C22.0656 8.48077 22.0461 8.38462 22.0461 8.29808V7.8077C22.0461 7.60577 22.1243 7.50962 22.2711 7.50962C22.3299 7.50962 22.3886 7.51924 22.4473 7.53847C22.506 7.5577 22.5941 7.59616 22.6919 7.63462C23.0247 7.77885 23.3868 7.89424 23.7684 7.97116C24.1599 8.04808 24.5415 8.08654 24.933 8.08654C25.5495 8.08654 26.029 7.98077 26.3618 7.76923C26.6945 7.5577 26.8706 7.25 26.8706 6.85577C26.8706 6.58654 26.7826 6.36539 26.6064 6.1827C26.4303 6 26.0975 5.83654 25.618 5.6827L24.199 5.25C23.4846 5.02885 22.9562 4.70193 22.6332 4.26924C22.3103 3.84616 22.1439 3.375 22.1439 2.875C22.1439 2.47116 22.232 2.11539 22.4081 1.8077C22.5843 1.5 22.8192 1.23077 23.1127 1.01924C23.4063 0.798082 23.7391 0.63462 24.1305 0.519235C24.522 0.403851 24.933 0.355774 25.3636 0.355774C25.5789 0.355774 25.8039 0.365389 26.0192 0.394235C26.2443 0.423082 26.4498 0.461543 26.6553 0.500005C26.8511 0.548082 27.037 0.596159 27.2132 0.653851C27.3893 0.711543 27.5263 0.769235 27.6242 0.826928C27.7612 0.903851 27.859 0.980774 27.9178 1.06731C27.9765 1.14424 28.0058 1.25 28.0058 1.38462V1.83654C28.0058 2.03847 27.9275 2.14424 27.7808 2.14424C27.7025 2.14424 27.5752 2.10577 27.4089 2.02885C26.8511 1.77885 26.2248 1.65385 25.5299 1.65385C24.9721 1.65385 24.5317 1.74039 24.2284 1.92308C23.925 2.10577 23.7684 2.38462 23.7684 2.77885C23.7684 3.04808 23.8663 3.27885 24.062 3.46154C24.2577 3.64424 24.6198 3.82693 25.1385 3.99039L26.5281 4.42308C27.2327 4.64424 27.7416 4.95193 28.045 5.34616C28.3484 5.74039 28.4951 6.19231 28.4951 6.69231C28.4951 7.10577 28.4071 7.48077 28.2407 7.8077C28.0646 8.13462 27.8297 8.42308 27.5263 8.65385C27.2229 8.89424 26.8609 9.06731 26.44 9.19231C25.9997 9.32693 25.5397 9.39423 25.0406 9.39423Z" fill="#E2E9FB"/>
<g id="Group_2">
<path id="Vector_2" fill-rule="evenodd" clip-rule="evenodd" d="M26.8902 14.0673C23.6706 16.4038 18.9928 17.6442 14.9706 17.6442C9.3338 17.6442 4.25477 15.5962 0.418585 12.1923C0.115214 11.9231 0.389227 11.5577 0.751316 11.7692C4.90066 14.1346 10.0188 15.5673 15.3132 15.5673C18.8851 15.5673 22.8094 14.8365 26.4205 13.3365C26.9587 13.0962 27.4187 13.6827 26.8902 14.0673Z" fill="#F9AA39"/>
<path id="Vector_3" fill-rule="evenodd" clip-rule="evenodd" d="M28.2309 12.5673C27.8199 12.0481 25.5104 12.3173 24.4632 12.4423C24.1501 12.4808 24.1012 12.2115 24.3849 12.0096C26.2248 10.7404 29.2487 11.1058 29.601 11.5289C29.9533 11.9615 29.5031 14.9327 27.7808 16.3558C27.5165 16.5769 27.2621 16.4615 27.3795 16.1731C27.771 15.2212 28.6419 13.0769 28.2309 12.5673Z" fill="#F9AA39"/>
</g>
</g>
</g>
<defs>
<clipPath id="clip0_82_611">
<rect width="29.75" height="17.5" fill="white" transform="translate(0.125 0.25)"/>
</clipPath>
</defs>
</svg>
