<svg width="20" height="23" viewBox="0 0 20 23" fill="none" xmlns="http://www.w3.org/2000/svg">
<g id="Layer_1" clip-path="url(#clip0_80_261)">
<path id="Vector" d="M12.67 22.3751C12.3982 22.2754 12.1285 22.1683 11.8541 22.0772C8.16692 20.8511 4.4787 19.6271 0.790483 18.4021C0.73774 18.3844 0.685536 18.3646 0.640866 18.2987C4.66815 18.7633 8.69489 19.2284 12.7399 19.6952V4.57813C9.99785 5.03309 7.26169 5.48751 4.50507 5.94461V6.20344C4.50507 9.69039 4.50346 13.1768 4.50938 16.6637C4.50938 16.8417 4.4604 16.9204 4.28657 16.9767C3.05627 17.3749 1.83027 17.7848 0.602655 18.191C0.535919 18.213 0.468107 18.2328 0.379844 18.2607C0.379844 18.1674 0.379844 18.0908 0.379844 18.0142C0.379844 13.8429 0.381458 9.67163 0.375 5.50037C0.375 5.31014 0.435277 5.23458 0.608037 5.16759C4.60087 3.62802 8.59102 2.08095 12.5833 0.539768C12.6748 0.5044 12.7948 0.48618 12.8863 0.512974C15.0929 1.16514 17.2973 1.82426 19.5023 2.48285C19.5432 2.49518 19.5814 2.51447 19.6255 2.53269V20.3222C18.9609 20.5215 18.2973 20.7203 17.6337 20.9186C16.0929 21.3784 14.552 21.8371 13.0117 22.2979C12.9525 22.3156 12.8987 22.3489 12.8422 22.3751H12.6705H12.67Z" fill="#F9AA39"/>
</g>
<defs>
<clipPath id="clip0_80_261">
<rect width="19.25" height="21.875" fill="white" transform="translate(0.375 0.5)"/>
</clipPath>
</defs>
</svg>
