<svg width="297" height="52" viewBox="0 0 297 52" fill="none" xmlns="http://www.w3.org/2000/svg">
<path d="M90.563 13.13C90.563 14.4367 90.248 15.6617 89.618 16.805C89.0113 17.9483 88.043 18.87 86.713 19.57C85.4063 20.27 83.7497 20.62 81.743 20.62H77.648V30H72.748V5.57H81.743C83.633 5.57 85.243 5.89667 86.573 6.55C87.903 7.20333 88.8947 8.10167 89.548 9.245C90.2247 10.3883 90.563 11.6833 90.563 13.13ZM81.533 16.665C82.8863 16.665 83.8897 16.3617 84.543 15.755C85.1963 15.125 85.523 14.25 85.523 13.13C85.523 10.75 84.193 9.56 81.533 9.56H77.648V16.665H81.533ZM98.942 13.62C99.572 12.5933 100.389 11.7883 101.392 11.205C102.419 10.6217 103.585 10.33 104.892 10.33V15.475H103.597C102.057 15.475 100.89 15.8367 100.097 16.56C99.327 17.2833 98.942 18.5433 98.942 20.34V30H94.042V10.61H98.942V13.62ZM116.802 30.315C114.936 30.315 113.256 29.9067 111.762 29.09C110.269 28.25 109.091 27.0717 108.227 25.555C107.387 24.0383 106.967 22.2883 106.967 20.305C106.967 18.3217 107.399 16.5717 108.262 15.055C109.149 13.5383 110.351 12.3717 111.867 11.555C113.384 10.715 115.076 10.295 116.942 10.295C118.809 10.295 120.501 10.715 122.017 11.555C123.534 12.3717 124.724 13.5383 125.587 15.055C126.474 16.5717 126.917 18.3217 126.917 20.305C126.917 22.2883 126.462 24.0383 125.552 25.555C124.666 27.0717 123.452 28.25 121.912 29.09C120.396 29.9067 118.692 30.315 116.802 30.315ZM116.802 26.045C117.689 26.045 118.517 25.835 119.287 25.415C120.081 24.9717 120.711 24.3183 121.177 23.455C121.644 22.5917 121.877 21.5417 121.877 20.305C121.877 18.4617 121.387 17.05 120.407 16.07C119.451 15.0667 118.272 14.565 116.872 14.565C115.472 14.565 114.294 15.0667 113.337 16.07C112.404 17.05 111.937 18.4617 111.937 20.305C111.937 22.1483 112.392 23.5717 113.302 24.575C114.236 25.555 115.402 26.045 116.802 26.045ZM153.937 5.57V9.525H143.752V15.79H151.557V19.675H143.752V30H138.852V5.57H153.937ZM175.436 19.885C175.436 20.585 175.389 21.215 175.296 21.775H161.121C161.238 23.175 161.728 24.2717 162.591 25.065C163.454 25.8583 164.516 26.255 165.776 26.255C167.596 26.255 168.891 25.4733 169.661 23.91H174.946C174.386 25.7767 173.313 27.3167 171.726 28.53C170.139 29.72 168.191 30.315 165.881 30.315C164.014 30.315 162.334 29.9067 160.841 29.09C159.371 28.25 158.216 27.0717 157.376 25.555C156.559 24.0383 156.151 22.2883 156.151 20.305C156.151 18.2983 156.559 16.5367 157.376 15.02C158.193 13.5033 159.336 12.3367 160.806 11.52C162.276 10.7033 163.968 10.295 165.881 10.295C167.724 10.295 169.369 10.6917 170.816 11.485C172.286 12.2783 173.418 13.41 174.211 14.88C175.028 16.3267 175.436 17.995 175.436 19.885ZM170.361 18.485C170.338 17.225 169.883 16.2217 168.996 15.475C168.109 14.705 167.024 14.32 165.741 14.32C164.528 14.32 163.501 14.6933 162.661 15.44C161.844 16.1633 161.343 17.1783 161.156 18.485H170.361ZM177.753 20.235C177.753 18.275 178.138 16.5367 178.908 15.02C179.701 13.5033 180.763 12.3367 182.093 11.52C183.446 10.7033 184.951 10.295 186.608 10.295C188.054 10.295 189.314 10.5867 190.388 11.17C191.484 11.7533 192.359 12.4883 193.013 13.375V10.61H197.948V30H193.013V27.165C192.383 28.075 191.508 28.8333 190.388 29.44C189.291 30.0233 188.019 30.315 186.573 30.315C184.939 30.315 183.446 29.895 182.093 29.055C180.763 28.215 179.701 27.0367 178.908 25.52C178.138 23.98 177.753 22.2183 177.753 20.235ZM193.013 20.305C193.013 19.115 192.779 18.1 192.313 17.26C191.846 16.3967 191.216 15.7433 190.423 15.3C189.629 14.8333 188.778 14.6 187.868 14.6C186.958 14.6 186.118 14.8217 185.348 15.265C184.578 15.7083 183.948 16.3617 183.458 17.225C182.991 18.065 182.758 19.0683 182.758 20.235C182.758 21.4017 182.991 22.4283 183.458 23.315C183.948 24.1783 184.578 24.8433 185.348 25.31C186.141 25.7767 186.981 26.01 187.868 26.01C188.778 26.01 189.629 25.7883 190.423 25.345C191.216 24.8783 191.846 24.225 192.313 23.385C192.779 22.5217 193.013 21.495 193.013 20.305ZM208.438 14.635V24.015C208.438 24.6683 208.59 25.1467 208.893 25.45C209.22 25.73 209.757 25.87 210.503 25.87H212.778V30H209.698C205.568 30 203.503 27.9933 203.503 23.98V14.635H201.193V10.61H203.503V5.815H208.438V10.61H212.778V14.635H208.438ZM234.608 10.61V30H229.673V27.55C229.043 28.39 228.214 29.055 227.188 29.545C226.184 30.0117 225.088 30.245 223.898 30.245C222.381 30.245 221.039 29.93 219.873 29.3C218.706 28.6467 217.784 27.7017 217.108 26.465C216.454 25.205 216.128 23.7117 216.128 21.985V10.61H221.028V21.285C221.028 22.825 221.413 24.015 222.183 24.855C222.953 25.6717 224.003 26.08 225.333 26.08C226.686 26.08 227.748 25.6717 228.518 24.855C229.288 24.015 229.673 22.825 229.673 21.285V10.61H234.608ZM244.342 13.62C244.972 12.5933 245.789 11.7883 246.792 11.205C247.819 10.6217 248.986 10.33 250.292 10.33V15.475H248.997C247.457 15.475 246.291 15.8367 245.497 16.56C244.727 17.2833 244.342 18.5433 244.342 20.34V30H239.442V10.61H244.342V13.62ZM271.618 19.885C271.618 20.585 271.571 21.215 271.478 21.775H257.303C257.419 23.175 257.909 24.2717 258.773 25.065C259.636 25.8583 260.698 26.255 261.958 26.255C263.778 26.255 265.073 25.4733 265.843 23.91H271.128C270.568 25.7767 269.494 27.3167 267.908 28.53C266.321 29.72 264.373 30.315 262.063 30.315C260.196 30.315 258.516 29.9067 257.023 29.09C255.553 28.25 254.398 27.0717 253.558 25.555C252.741 24.0383 252.333 22.2883 252.333 20.305C252.333 18.2983 252.741 16.5367 253.558 15.02C254.374 13.5033 255.518 12.3367 256.988 11.52C258.458 10.7033 260.149 10.295 262.063 10.295C263.906 10.295 265.551 10.6917 266.998 11.485C268.468 12.2783 269.599 13.41 270.393 14.88C271.209 16.3267 271.618 17.995 271.618 19.885ZM266.543 18.485C266.519 17.225 266.064 16.2217 265.178 15.475C264.291 14.705 263.206 14.32 261.923 14.32C260.709 14.32 259.683 14.6933 258.843 15.44C258.026 16.1633 257.524 17.1783 257.338 18.485H266.543ZM282.614 30.315C281.028 30.315 279.604 30.035 278.344 29.475C277.084 28.8917 276.081 28.11 275.334 27.13C274.611 26.15 274.214 25.065 274.144 23.875H279.079C279.173 24.6217 279.534 25.24 280.164 25.73C280.818 26.22 281.623 26.465 282.579 26.465C283.513 26.465 284.236 26.2783 284.749 25.905C285.286 25.5317 285.554 25.0533 285.554 24.47C285.554 23.84 285.228 23.3733 284.574 23.07C283.944 22.7433 282.929 22.3933 281.529 22.02C280.083 21.67 278.893 21.3083 277.959 20.935C277.049 20.5617 276.256 19.99 275.579 19.22C274.926 18.45 274.599 17.4117 274.599 16.105C274.599 15.0317 274.903 14.0517 275.509 13.165C276.139 12.2783 277.026 11.5783 278.169 11.065C279.336 10.5517 280.701 10.295 282.264 10.295C284.574 10.295 286.418 10.8783 287.794 12.045C289.171 13.1883 289.929 14.74 290.069 16.7H285.379C285.309 15.93 284.983 15.3233 284.399 14.88C283.839 14.4133 283.081 14.18 282.124 14.18C281.238 14.18 280.549 14.3433 280.059 14.67C279.593 14.9967 279.359 15.4517 279.359 16.035C279.359 16.6883 279.686 17.19 280.339 17.54C280.993 17.8667 282.008 18.205 283.384 18.555C284.784 18.905 285.939 19.2667 286.849 19.64C287.759 20.0133 288.541 20.5967 289.194 21.39C289.871 22.16 290.221 23.1867 290.244 24.47C290.244 25.59 289.929 26.5933 289.299 27.48C288.693 28.3667 287.806 29.0667 286.639 29.58C285.496 30.07 284.154 30.315 282.614 30.315Z" fill="url(#paint0_linear_2227_1943)"/>
<path d="M75.781 43.8476C75.7424 43.4858 75.5794 43.2041 75.2922 43.0025C75.0077 42.8008 74.6376 42.7 74.1818 42.7C73.8615 42.7 73.5866 42.7484 73.3574 42.845C73.1281 42.9417 72.9528 43.0729 72.8312 43.2386C72.7097 43.4043 72.6476 43.5935 72.6448 43.8062C72.6448 43.983 72.6848 44.1363 72.7649 44.2661C72.8478 44.3959 72.9597 44.5064 73.1005 44.5975C73.2414 44.6859 73.3974 44.7605 73.5687 44.8212C73.7399 44.882 73.9126 44.9331 74.0866 44.9745L74.882 45.1734C75.2024 45.248 75.5104 45.3488 75.8059 45.4758C76.1042 45.6029 76.3707 45.7631 76.6055 45.9564C76.843 46.1497 77.0308 46.3831 77.1689 46.6566C77.307 46.93 77.3761 47.2504 77.3761 47.6177C77.3761 48.1149 77.249 48.5527 76.9949 48.9311C76.7408 49.3067 76.3735 49.6009 75.8929 49.8135C75.4151 50.0234 74.8364 50.1284 74.157 50.1284C73.4969 50.1284 72.9238 50.0262 72.4376 49.8218C71.9543 49.6174 71.5759 49.3191 71.3025 48.9269C71.0318 48.5347 70.8854 48.0569 70.8633 47.4935H72.3755C72.3976 47.789 72.4887 48.0348 72.6489 48.2309C72.8091 48.427 73.0177 48.5734 73.2745 48.6701C73.5342 48.7667 73.8242 48.8151 74.1446 48.8151C74.4788 48.8151 74.7715 48.7654 75.0229 48.6659C75.277 48.5637 75.4758 48.4229 75.6195 48.2433C75.7631 48.061 75.8363 47.8484 75.839 47.6053C75.8363 47.3844 75.7714 47.2021 75.6443 47.0584C75.5173 46.9121 75.3391 46.7905 75.1099 46.6939C74.8834 46.5944 74.6182 46.506 74.3144 46.4287L73.3491 46.1801C72.6503 46.0006 72.0979 45.7285 71.6919 45.364C71.2887 44.9966 71.087 44.5091 71.087 43.9015C71.087 43.4016 71.2224 42.9638 71.493 42.5882C71.7665 42.2125 72.138 41.9211 72.6075 41.714C73.077 41.5041 73.6087 41.3991 74.2026 41.3991C74.8047 41.3991 75.3322 41.5041 75.7852 41.714C76.2409 41.9211 76.5986 42.2098 76.8582 42.5799C77.1178 42.9472 77.2518 43.3698 77.2601 43.8476H75.781ZM86.9283 41.5151H88.4654V47.0584C88.4654 47.6661 88.3218 48.2005 88.0345 48.6618C87.75 49.123 87.3495 49.4835 86.833 49.7431C86.3165 50 85.713 50.1284 85.0225 50.1284C84.3293 50.1284 83.7244 50 83.2079 49.7431C82.6914 49.4835 82.2909 49.123 82.0065 48.6618C81.722 48.2005 81.5797 47.6661 81.5797 47.0584V41.5151H83.1168V46.93C83.1168 47.2835 83.1941 47.5984 83.3488 47.8746C83.5062 48.1508 83.7272 48.3676 84.0117 48.5251C84.2961 48.6797 84.6331 48.7571 85.0225 48.7571C85.412 48.7571 85.749 48.6797 86.0334 48.5251C86.3207 48.3676 86.5416 48.1508 86.6963 47.8746C86.851 47.5984 86.9283 47.2835 86.9283 46.93V41.5151ZM92.9694 50V41.5151H96.1512C96.803 41.5151 97.3499 41.6366 97.7918 41.8797C98.2365 42.1228 98.5721 42.457 98.7986 42.8823C99.0278 43.3049 99.1424 43.7855 99.1424 44.3241C99.1424 44.8682 99.0278 45.3515 98.7986 45.7741C98.5693 46.1967 98.231 46.5295 97.7835 46.7726C97.3361 47.0129 96.7851 47.133 96.1305 47.133H94.0217V45.8694H95.9233C96.3045 45.8694 96.6166 45.8031 96.8596 45.6705C97.1027 45.538 97.2822 45.3557 97.3982 45.1237C97.517 44.8917 97.5764 44.6251 97.5764 44.3241C97.5764 44.023 97.517 43.7579 97.3982 43.5286C97.2822 43.2994 97.1013 43.1212 96.8555 42.9942C96.6124 42.8644 96.299 42.7994 95.915 42.7994H94.5064V50H92.9694ZM103.311 50V41.5151H108.829V42.8036H104.848V45.1071H108.543V46.3956H104.848V48.7115H108.862V50H103.311ZM113.231 50V41.5151H116.413C117.064 41.5151 117.611 41.6284 118.053 41.8548C118.498 42.0813 118.833 42.399 119.06 42.8077C119.289 43.2137 119.404 43.6874 119.404 44.2288C119.404 44.7729 119.288 45.2452 119.056 45.6457C118.827 46.0434 118.488 46.3514 118.041 46.5696C117.593 46.785 117.044 46.8927 116.392 46.8927H114.126V45.6167H116.185C116.566 45.6167 116.878 45.5642 117.121 45.4592C117.364 45.3515 117.544 45.1955 117.66 44.9911C117.778 44.7839 117.838 44.5298 117.838 44.2288C117.838 43.9277 117.778 43.6709 117.66 43.4582C117.541 43.2427 117.36 43.0798 117.117 42.9693C116.874 42.8561 116.56 42.7994 116.176 42.7994H114.768V50H113.231ZM117.614 46.1553L119.715 50H117.999L115.936 46.1553H117.614ZM130.915 44.3779H129.365C129.321 44.1238 129.24 43.8987 129.121 43.7026C129.002 43.5038 128.854 43.3353 128.677 43.1972C128.501 43.0591 128.299 42.9555 128.073 42.8865C127.849 42.8146 127.607 42.7787 127.348 42.7787C126.886 42.7787 126.478 42.8947 126.121 43.1267C125.765 43.356 125.486 43.693 125.284 44.1376C125.083 44.5796 124.982 45.1195 124.982 45.7575C124.982 46.4066 125.083 46.9535 125.284 47.3982C125.489 47.8401 125.768 48.1743 126.121 48.4008C126.478 48.6245 126.885 48.7364 127.343 48.7364C127.597 48.7364 127.835 48.7032 128.056 48.6369C128.28 48.5679 128.48 48.4671 128.657 48.3345C128.836 48.2019 128.987 48.039 129.108 47.8456C129.233 47.6523 129.318 47.4313 129.365 47.1827L130.915 47.191C130.857 47.5943 130.731 47.9727 130.538 48.3262C130.347 48.6797 130.097 48.9918 129.788 49.2625C129.478 49.5304 129.117 49.7403 128.702 49.8923C128.288 50.0414 127.828 50.116 127.323 50.116C126.577 50.116 125.911 49.9433 125.326 49.5981C124.74 49.2528 124.279 48.7543 123.942 48.1025C123.605 47.4506 123.437 46.669 123.437 45.7575C123.437 44.8433 123.606 44.0617 123.946 43.4126C124.286 42.7608 124.748 42.2622 125.334 41.917C125.92 41.5717 126.582 41.3991 127.323 41.3991C127.795 41.3991 128.234 41.4654 128.64 41.598C129.046 41.7306 129.408 41.9253 129.726 42.1821C130.043 42.4362 130.304 42.7484 130.509 43.1185C130.716 43.4858 130.851 43.9056 130.915 44.3779ZM135.156 50V41.5151H136.693V45.1071H140.624V41.5151H142.166V50H140.624V46.3956H136.693V50H135.156ZM147.76 50H146.12L149.107 41.5151H151.004L153.995 50H152.355L150.089 43.2552H150.022L147.76 50ZM147.814 46.6731H152.288V47.9078H147.814V46.6731ZM157.946 50V41.5151H161.128C161.78 41.5151 162.327 41.6284 162.769 41.8548C163.213 42.0813 163.549 42.399 163.775 42.8077C164.005 43.2137 164.119 43.6874 164.119 44.2288C164.119 44.7729 164.003 45.2452 163.771 45.6457C163.542 46.0434 163.204 46.3514 162.756 46.5696C162.309 46.785 161.759 46.8927 161.107 46.8927H158.841V45.6167H160.9C161.281 45.6167 161.593 45.5642 161.837 45.4592C162.08 45.3515 162.259 45.1955 162.375 44.9911C162.494 44.7839 162.553 44.5298 162.553 44.2288C162.553 43.9277 162.494 43.6709 162.375 43.4582C162.256 43.2427 162.075 43.0798 161.832 42.9693C161.589 42.8561 161.276 42.7994 160.892 42.7994H159.483V50H157.946ZM162.33 46.1553L164.43 50H162.715L160.652 46.1553H162.33ZM174.052 44.2246C173.983 44.0009 173.887 43.8007 173.766 43.6239C173.647 43.4444 173.503 43.2911 173.335 43.164C173.169 43.037 172.979 42.9417 172.763 42.8782C172.548 42.8119 172.313 42.7787 172.059 42.7787C171.603 42.7787 171.197 42.8934 170.841 43.1226C170.485 43.3518 170.204 43.6888 170 44.1335C169.798 44.5754 169.697 45.114 169.697 45.7493C169.697 46.39 169.798 46.9328 170 47.3775C170.201 47.8221 170.482 48.1605 170.841 48.3925C171.2 48.6217 171.617 48.7364 172.092 48.7364C172.523 48.7364 172.896 48.6535 173.211 48.4878C173.528 48.3221 173.773 48.0873 173.944 47.7835C174.115 47.4769 174.201 47.1178 174.201 46.7063L174.549 46.7601H172.245V45.5587H175.688V46.5779C175.688 47.3043 175.533 47.9326 175.224 48.4629C174.915 48.9932 174.489 49.402 173.948 49.6892C173.407 49.9737 172.785 50.116 172.084 50.116C171.302 50.116 170.616 49.9406 170.025 49.5898C169.436 49.2363 168.976 48.735 168.645 48.0859C168.316 47.4341 168.152 46.6607 168.152 45.7658C168.152 45.0809 168.249 44.4691 168.442 43.9305C168.638 43.3919 168.912 42.9348 169.262 42.5592C169.613 42.1808 170.025 41.8935 170.497 41.6974C170.969 41.4985 171.483 41.3991 172.038 41.3991C172.508 41.3991 172.945 41.4682 173.351 41.6063C173.758 41.7416 174.118 41.9349 174.433 42.1863C174.75 42.4376 175.011 42.7359 175.216 43.0812C175.42 43.4264 175.554 43.8076 175.618 44.2246H174.052ZM180.008 50V41.5151H185.526V42.8036H181.545V45.1071H185.24V46.3956H181.545V48.7115H185.559V50H180.008ZM195.075 41.5151H196.811L198.886 45.2687H198.969L201.045 41.5151H202.781L199.694 46.8347V50H198.161V46.8347L195.075 41.5151ZM213.806 45.7575C213.806 46.6718 213.635 47.4548 213.292 48.1066C212.952 48.7557 212.488 49.2528 211.9 49.5981C211.315 49.9433 210.65 50.116 209.907 50.116C209.164 50.116 208.499 49.9433 207.91 49.5981C207.325 49.2501 206.861 48.7515 206.518 48.1025C206.179 47.4506 206.009 46.669 206.009 45.7575C206.009 44.8433 206.179 44.0617 206.518 43.4126C206.861 42.7608 207.325 42.2622 207.91 41.917C208.499 41.5717 209.164 41.3991 209.907 41.3991C210.65 41.3991 211.315 41.5717 211.9 41.917C212.488 42.2622 212.952 42.7608 213.292 43.4126C213.635 44.0617 213.806 44.8433 213.806 45.7575ZM212.261 45.7575C212.261 45.114 212.16 44.5713 211.958 44.1293C211.759 43.6847 211.483 43.3491 211.13 43.1226C210.776 42.8934 210.369 42.7787 209.907 42.7787C209.446 42.7787 209.039 42.8934 208.685 43.1226C208.332 43.3491 208.054 43.6847 207.852 44.1293C207.654 44.5713 207.554 45.114 207.554 45.7575C207.554 46.4011 207.654 46.9452 207.852 47.3899C208.054 47.8318 208.332 48.1674 208.685 48.3966C209.039 48.6231 209.446 48.7364 209.907 48.7364C210.369 48.7364 210.776 48.6231 211.13 48.3966C211.483 48.1674 211.759 47.8318 211.958 47.3899C212.16 46.9452 212.261 46.4011 212.261 45.7575ZM223.441 41.5151H224.978V47.0584C224.978 47.6661 224.834 48.2005 224.547 48.6618C224.263 49.123 223.862 49.4835 223.346 49.7431C222.829 50 222.226 50.1284 221.535 50.1284C220.842 50.1284 220.237 50 219.721 49.7431C219.204 49.4835 218.804 49.123 218.519 48.6618C218.235 48.2005 218.092 47.6661 218.092 47.0584V41.5151H219.629V46.93C219.629 47.2835 219.707 47.5984 219.861 47.8746C220.019 48.1508 220.24 48.3676 220.524 48.5251C220.809 48.6797 221.146 48.7571 221.535 48.7571C221.925 48.7571 222.262 48.6797 222.546 48.5251C222.833 48.3676 223.054 48.1508 223.209 47.8746C223.364 47.5984 223.441 47.2835 223.441 46.93V41.5151ZM229.482 50V41.5151H232.664C233.316 41.5151 233.863 41.6284 234.304 41.8548C234.749 42.0813 235.085 42.399 235.311 42.8077C235.54 43.2137 235.655 43.6874 235.655 44.2288C235.655 44.7729 235.539 45.2452 235.307 45.6457C235.078 46.0434 234.74 46.3514 234.292 46.5696C233.845 46.785 233.295 46.8927 232.643 46.8927H230.377V45.6167H232.436C232.817 45.6167 233.129 45.5642 233.372 45.4592C233.615 45.3515 233.795 45.1955 233.911 44.9911C234.03 44.7839 234.089 44.5298 234.089 44.2288C234.089 43.9277 234.03 43.6709 233.911 43.4582C233.792 43.2427 233.611 43.0798 233.368 42.9693C233.125 42.8561 232.812 42.7994 232.428 42.7994H231.019V50H229.482ZM233.865 46.1553L235.966 50H234.251L232.187 46.1553H233.865ZM245.63 50V41.5151H251.149V42.8036H247.168V45.1071H250.863V46.3956H247.168V48.7115H251.182V50H245.63ZM255.55 41.5151H257.431L259.95 47.6633H260.05L262.569 41.5151H264.45V50H262.975V44.1708H262.896L260.551 49.9751H259.449L257.104 44.1584H257.025V50H255.55V41.5151ZM270.046 50H268.406L271.393 41.5151H273.29L276.281 50H274.641L272.375 43.2552H272.308L270.046 50ZM270.1 46.6731H274.575V47.9078H270.1V46.6731ZM281.769 41.5151V50H280.232V41.5151H281.769ZM286.267 50V41.5151H287.804V48.7115H291.541V50H286.267Z" fill="url(#paint1_linear_2227_1943)"/>
<path d="M26.1389 13.1369C27.1584 13.4921 28.2681 13.492 29.2875 13.1367C29.5918 13.555 29.7564 13.9916 29.9934 14.4348C31.8926 17.9857 34.848 21.0749 39.0018 21.6711C41.3235 22.0044 43.5098 21.5789 45.6587 20.6098C45.9895 20.4606 46.311 20.3765 46.6317 20.2005C46.9043 20.4462 47.129 20.7199 47.3937 20.9795C47.8902 21.4661 48.3871 21.6593 48.96 21.9769C48.9453 22.604 47.3475 26.4587 47.0278 27.298L43.949 35.4306L42.229 39.9599C42.0199 40.4993 41.7681 41.2924 41.5094 41.7803C41.7339 41.7719 41.9586 41.7692 42.1833 41.7719C43.2535 41.7919 43.9325 41.9742 44.6844 42.7592C45.2643 43.3769 45.5792 44.1972 45.5614 45.0443C45.525 46.4687 44.3522 47.9582 42.8854 48.1319C41.864 48.2527 40.5785 48.1781 39.5287 48.1772L32.942 48.1758H20.0123C17.7558 48.1767 15.4906 48.1856 13.2357 48.1714C12.5096 48.167 11.9912 48.0662 11.3966 47.6594C11.1719 47.5266 11.0133 47.4429 10.8276 47.2508C9.5608 45.9405 9.55516 43.8323 10.8724 42.5589C11.6798 41.7782 12.8445 41.7346 13.9192 41.7787C13.7226 41.4906 13.4269 40.4661 13.2833 40.0897L11.3626 35.0799L8.43821 27.3386C7.79021 25.6606 6.9898 23.7577 6.44727 22.0571C6.61499 21.8174 8.14947 21.1934 8.73921 20.2128C9.1685 20.3128 10.0334 20.7692 10.4941 20.9457C16.2227 23.1396 21.1838 20.9236 24.4565 15.909C24.78 15.4075 25.0874 14.8957 25.3781 14.3744C25.5794 14.0182 25.8759 13.4254 26.1389 13.1369Z" fill="url(#paint2_linear_2227_1943)"/>
<path d="M41.5093 41.7803C41.7338 41.7719 41.9585 41.7691 42.1832 41.7719C43.2535 41.7919 43.9325 41.9742 44.6843 42.7592C45.2643 43.3769 45.5791 44.1972 45.5614 45.0443C45.5249 46.4687 44.3521 47.9582 42.8853 48.1319C41.8639 48.2527 40.5785 48.1781 39.5287 48.1772L32.942 48.1758H20.0123C17.7558 48.1767 15.4905 48.1856 13.2357 48.1714C12.5096 48.167 11.9912 48.0662 11.3965 47.6594C11.1718 47.5266 11.0133 47.4429 10.8275 47.2508C9.56073 45.9405 9.55509 43.8323 10.8723 42.5589C11.6797 41.7782 12.8444 41.7346 13.9191 41.7787C15.5955 41.8257 17.3429 41.8013 19.0262 41.7999L27.0391 41.7978L36.1346 41.7987C37.9069 41.7987 39.7418 41.8216 41.5093 41.7803Z" fill="url(#paint3_linear_2227_1943)"/>
<path d="M27.5306 23.9323C31.6052 23.6976 33.0633 30.3622 31.7283 33.2904C30.8987 35.11 30.1619 36.5914 28.0018 36.8867C27.0212 36.9017 26.5535 36.7941 25.7246 36.2239C24.3379 35.2528 23.5378 33.3305 23.308 31.7066C22.8799 28.6816 24.05 24.4585 27.5306 23.9323Z" fill="url(#paint4_radial_2227_1943)"/>
<path d="M26.1382 13.1369C23.9336 12.369 22.6049 10.1222 22.9942 7.82033C23.3835 5.51846 25.3771 3.83356 27.7117 3.83334C30.0462 3.83313 32.0402 5.51769 32.4299 7.81949C32.8196 10.1213 31.4914 12.3683 29.2868 13.1366C28.2674 13.4919 27.1577 13.492 26.1382 13.1369Z" fill="#F9AD3E"/>
<path d="M46.6311 20.2005L46.6577 20.1256C44.384 16.18 47.5845 11.8089 52.044 12.9746C54.5854 13.6389 55.9514 16.4461 55.2578 18.9161C54.5201 21.5428 51.4933 23.0223 48.9594 21.9769C48.3865 21.6593 47.8896 21.4661 47.3931 20.9794C47.1284 20.7199 46.9037 20.4461 46.6311 20.2005Z" fill="#F9AD3E"/>
<path d="M6.44746 22.0571C6.39172 21.9627 5.85497 22.2169 5.6816 22.2347C4.94718 22.3101 4.16573 22.3397 3.44854 22.1279C2.25716 21.7762 1.17424 20.9353 0.569514 19.8457C-0.0545866 18.6749 -0.14942 17.3634 0.205147 16.0966C0.502347 15.0346 1.27614 13.9549 2.25521 13.4214C3.47754 12.7604 4.91267 12.613 6.24385 13.0117C8.74948 13.7591 10.1006 16.6198 9.30356 19.048C9.18601 19.4061 8.80947 19.9357 8.7394 20.2128C8.14966 21.1934 6.61519 21.8174 6.44746 22.0571Z" fill="#F9AD3E"/>
<defs>
<linearGradient id="paint0_linear_2227_1943" x1="292.333" y1="17.5" x2="70.333" y2="17.5" gradientUnits="userSpaceOnUse">
<stop stop-color="#F9AA39"/>
<stop offset="1" stop-color="#FDDB8D"/>
</linearGradient>
<linearGradient id="paint1_linear_2227_1943" x1="297" y1="46" x2="70.333" y2="46" gradientUnits="userSpaceOnUse">
<stop stop-color="#F9AA39"/>
<stop offset="1" stop-color="#FDDB8D"/>
</linearGradient>
<linearGradient id="paint2_linear_2227_1943" x1="27.7036" y1="13.1367" x2="27.7036" y2="48.2008" gradientUnits="userSpaceOnUse">
<stop stop-color="#FAC880"/>
<stop offset="0.817096" stop-color="#E48700"/>
</linearGradient>
<linearGradient id="paint3_linear_2227_1943" x1="27.7215" y1="41.7669" x2="27.7215" y2="48.2008" gradientUnits="userSpaceOnUse">
<stop stop-color="#FB503D"/>
<stop offset="1" stop-color="#953024"/>
</linearGradient>
<radialGradient id="paint4_radial_2227_1943" cx="0" cy="0" r="1" gradientUnits="userSpaceOnUse" gradientTransform="translate(27.7165 30.4071) rotate(90) scale(6.48089 4.49283)">
<stop stop-color="white"/>
<stop offset="1" stop-color="#E8E8E8"/>
</radialGradient>
</defs>
</svg>
