<svg width="28" height="28" viewBox="0 0 28 28" fill="none" xmlns="http://www.w3.org/2000/svg">
<g id="tabler:device-mobile">
<path id="Vector" d="M12.8333 4.66667H15.1667M7 5.83333C7 5.21449 7.24583 4.621 7.68342 4.18342C8.121 3.74583 8.71449 3.5 9.33333 3.5H18.6667C19.2855 3.5 19.879 3.74583 20.3166 4.18342C20.7542 4.621 21 5.21449 21 5.83333V22.1667C21 22.7855 20.7542 23.379 20.3166 23.8166C19.879 24.2542 19.2855 24.5 18.6667 24.5H9.33333C8.71449 24.5 8.121 24.2542 7.68342 23.8166C7.24583 23.379 7 22.7855 7 22.1667V5.83333Z" stroke="#F9AA39" stroke-width="2" stroke-linecap="round" stroke-linejoin="round"/>
<path id="Vector_2" d="M10.8889 14.6953C10.8886 14.0404 11.0897 13.4016 11.4642 12.8677C11.8386 12.3339 12.3679 11.9314 12.9785 11.7164C12.9549 11.5663 12.9636 11.4128 13.0042 11.2665C13.0448 11.1201 13.1163 10.9845 13.2136 10.8688C13.311 10.7532 13.4319 10.6603 13.5681 10.5967C13.7044 10.533 13.8526 10.5 14.0026 10.5C14.1526 10.5 14.3008 10.533 14.437 10.5967C14.5732 10.6603 14.6942 10.7532 14.7916 10.8688C14.8889 10.9845 14.9604 11.1201 15.0009 11.2665C15.0415 11.4128 15.0503 11.5663 15.0267 11.7164C15.6363 11.9323 16.1644 12.3351 16.5379 12.8689C16.9115 13.4027 17.1118 14.041 17.1111 14.6953V17.8477L18.6667 18.8984V19.4238H9.33333V18.8984L10.8889 17.8477V14.6953ZM15.037 19.9492C15.037 20.2279 14.9278 20.4952 14.7333 20.6922C14.5388 20.8893 14.275 21 14 21C13.725 21 13.4612 20.8893 13.2667 20.6922C13.0722 20.4952 12.963 20.2279 12.963 19.9492H15.037Z" fill="#E2E9FB"/>
</g>
</svg>
