<svg width="56" height="56" viewBox="0 0 56 56" fill="none" xmlns="http://www.w3.org/2000/svg">
<g id="Group 11">
<path id="Polygon 2" d="M21.75 4.18579C25.6175 1.95288 30.3825 1.95288 34.25 4.18579L45.4987 10.6802C49.3662 12.9131 51.7487 17.0397 51.7487 21.5056V34.4944C51.7487 38.9603 49.3662 43.0869 45.4987 45.3198L34.25 51.8142C30.3825 54.0471 25.6175 54.0471 21.75 51.8142L10.5013 45.3198C6.63378 43.0869 4.25129 38.9603 4.25129 34.4944V21.5056C4.25129 17.0397 6.63378 12.9131 10.5013 10.6802L21.75 4.18579Z" fill="#2D4A8D" stroke="#3C60B3"/>
<g id="Group 1171276158">
<path id="Vector" d="M31.7363 25.2239H24.951C24.4817 25.2239 24.1039 24.838 24.1039 24.3676C24.1039 23.8972 24.4857 23.5113 24.951 23.5113H31.7402C32.2096 23.5113 32.5874 23.8972 32.5874 24.3676C32.5874 24.838 32.2056 25.2239 31.7363 25.2239Z" fill="#E2E9FB"/>
<path id="Vector_2" d="M31.7363 28.5435H24.951C24.4817 28.5435 24.1039 28.1575 24.1039 27.6872C24.1039 27.2168 24.4857 26.8309 24.951 26.8309H31.7402C32.2096 26.8309 32.5874 27.2168 32.5874 27.6872C32.5874 28.1575 32.2056 28.5435 31.7363 28.5435Z" fill="#E2E9FB"/>
<path id="Vector_3" d="M28.3437 21.7948H24.951C24.4817 21.7948 24.1039 21.4088 24.1039 20.9385C24.1039 20.4681 24.4857 20.0822 24.951 20.0822H28.3437C28.813 20.0822 29.1908 20.4681 29.1908 20.9385C29.1908 21.4088 28.813 21.7948 28.3437 21.7948Z" fill="#E2E9FB"/>
<path id="Vector_4" d="M21.5549 31.6287C21.0855 31.6287 20.7077 31.2427 20.7077 30.7724V19.2216C20.7077 17.8025 21.8492 16.6487 23.2532 16.6487H33.435C34.839 16.6487 35.9804 17.8025 35.9804 19.2216V30.7724C35.9804 31.2468 35.5986 31.6287 35.1333 31.6287C34.6679 31.6287 34.2861 31.2427 34.2861 30.7724V19.2216C34.2861 18.7472 33.9043 18.3653 33.439 18.3653H23.2532C22.7838 18.3653 22.406 18.7512 22.406 19.2216V30.7724C22.406 31.2468 22.0242 31.6287 21.5549 31.6287Z" fill="#E2E9FB"/>
<path id="Vector_5" d="M38.5258 27.7098V36.9845C38.5258 38.4036 37.3843 39.5574 35.9803 39.5574H20.7076C19.3036 39.5574 18.1621 38.4036 18.1621 36.9845V27.7098C18.1621 26.765 18.6712 25.9007 19.4905 25.4504L20.7076 24.7791V26.7329L20.3019 26.958C20.0275 27.1068 19.8604 27.3962 19.8604 27.7098V28.7792L27.8508 32.9964C28.153 33.1572 28.5349 33.1572 28.8411 32.9964L36.8275 28.7792V27.7098C36.8275 27.3962 36.6565 27.1068 36.386 26.958L35.9803 26.7329V24.7791L37.2013 25.4504C38.0167 25.9007 38.5258 26.765 38.5258 27.7098Z" fill="#F9AA39"/>
</g>
</g>
</svg>
