<svg width="20" height="20" viewBox="0 0 20 20" fill="none" xmlns="http://www.w3.org/2000/svg">
<g id="Frame 29">
<path id="Vector" d="M11.5692 6.42795L9.37815 8.63491L10.6504 9.91637L12.8415 7.70941C13.0535 7.49583 12.9828 6.99749 12.6294 6.64153C12.276 6.28557 11.852 6.21437 11.5692 6.42795ZM11.7813 3.01072C11.2865 2.72595 4.85462 8.20776 4.85462 8.20776C4.85462 8.20776 2.38081 6.71272 2.02741 6.99749C1.67401 7.28226 4.85462 10.5571 4.85462 10.5571C4.85462 10.5571 12.276 3.2243 11.7813 3.01072ZM15.6687 9.6316C15.3153 9.27564 14.8205 9.20445 14.6085 9.41803L12.4174 11.625L13.6896 12.9064L15.8807 10.6283C16.0928 10.4859 16.0221 9.98756 15.6687 9.6316ZM7.3991 8.91968C6.90434 9.41803 6.62162 10.8419 6.62162 11.625V14.3303L5.77346 15.1846C5.34938 15.6117 5.34938 16.2525 5.77346 16.6796C6.19754 17.1068 6.83366 17.1068 7.25774 16.6796L8.10591 15.8253H10.7918C11.6399 15.8253 12.9122 15.5406 13.4069 15.0422L14.2551 14.4727L7.96455 8.13656L7.3991 8.91968Z" fill="#3A5EAF"/>
</g>
</svg>
