<svg width="37" height="37" viewBox="0 0 37 37" fill="none" xmlns="http://www.w3.org/2000/svg">
<g id="Group 1171275969">
<circle id="Ellipse 4" cx="18.5" cy="18.5" r="18.5" fill="#F3F7FF"/>
<path id="Vector" d="M28.7778 20.5556H26.5002C26.2906 21.4189 25.9576 22.2206 25.5012 22.9359L27.4006 24.8352L24.8106 27.4252L22.9112 25.5259C22.1959 25.9699 21.3942 26.3029 20.5556 26.5002V28.7778H16.8556V26.5002C16.0169 26.3029 15.2152 25.9699 14.4999 25.5259L12.6006 27.4252L9.9859 24.8106L11.8852 22.9112C11.4412 22.1959 11.1082 21.3942 10.9109 20.5556H8.22223V16.8926H10.8986C11.0959 16.0292 11.4412 15.2276 11.8852 14.4999L9.9859 12.6006L12.5759 10.0106L14.4752 11.9099C15.1906 11.4536 16.0046 11.1206 16.8556 10.9109V8.22223H20.5556V10.9109C21.3942 11.1082 22.1959 11.4412 22.9112 11.8852L24.8106 9.9859L27.4252 12.6006L25.5259 14.4999C25.9699 15.2276 26.3152 16.0292 26.5126 16.8926H28.7778V20.5556ZM18.7056 22.4056C20.7529 22.4056 22.4056 20.7529 22.4056 18.7056C22.4056 16.6582 20.7529 15.0056 18.7056 15.0056C16.6582 15.0056 15.0056 16.6582 15.0056 18.7056C15.0056 20.7529 16.6582 22.4056 18.7056 22.4056Z" fill="#3A5EAF"/>
</g>
</svg>
