<svg width="15" height="8" viewBox="0 0 15 8" fill="none" xmlns="http://www.w3.org/2000/svg">
<path d="M2.26703 3.90987C1.92111 3.90987 1.64461 3.81121 1.43755 3.61389C1.23049 3.41657 1.12695 3.15225 1.12695 2.82095C1.12695 2.46529 1.25363 2.18149 1.50698 1.96955C1.76033 1.75761 2.10137 1.65164 2.53012 1.65164C2.80296 1.65164 3.1099 1.69306 3.45095 1.77588V1.29354C3.45095 1.03045 3.39127 0.845311 3.2719 0.738124C3.15253 0.630938 2.94912 0.577345 2.66167 0.577345C2.32549 0.577345 1.99662 0.626066 1.67507 0.723508C1.56301 0.757613 1.49236 0.774665 1.46313 0.774665C1.40466 0.774665 1.37543 0.730816 1.37543 0.643118V0.445798C1.37543 0.38246 1.38517 0.336175 1.40466 0.306943C1.42415 0.27771 1.46313 0.250914 1.52159 0.226553C1.67263 0.158344 1.86386 0.103532 2.09528 0.0621194C2.32671 0.0207065 2.55692 0 2.78591 0C3.24876 0 3.5898 0.0962241 3.80905 0.288672C4.02829 0.481121 4.13792 0.774665 4.13792 1.16931V3.6687C4.13792 3.76614 4.08919 3.81486 3.99175 3.81486H3.6775C3.58493 3.81486 3.53134 3.76858 3.51672 3.67601L3.48018 3.43484C3.30479 3.58587 3.11112 3.7028 2.89918 3.78563C2.68725 3.86845 2.47653 3.90987 2.26703 3.90987ZM2.44242 3.36175C2.6032 3.36175 2.77129 3.33009 2.94669 3.26675C3.12208 3.20341 3.29017 3.11084 3.45095 2.98904V2.24361C3.18785 2.18027 2.92963 2.1486 2.67628 2.1486C2.12574 2.1486 1.85046 2.36054 1.85046 2.78441C1.85046 2.96955 1.90162 3.11206 2.00393 3.21194C2.10625 3.31182 2.25241 3.36175 2.44242 3.36175Z" fill="#555555"/>
<path d="M6.02432 3.81492C5.95124 3.81492 5.89887 3.80152 5.8672 3.77472C5.83553 3.74793 5.80508 3.69312 5.77585 3.61029L4.69424 0.380082C4.66501 0.292384 4.65039 0.236355 4.65039 0.211994C4.65039 0.143785 4.68693 0.10968 4.76001 0.10968H5.17658C5.25453 0.10968 5.30934 0.123078 5.34101 0.149875C5.37268 0.176672 5.4007 0.231483 5.42506 0.314309L6.22165 3.07679L6.95246 0.314309C6.97682 0.231483 7.00606 0.176672 7.04016 0.149875C7.07426 0.123078 7.12786 0.10968 7.20094 0.10968H7.53711C7.6102 0.10968 7.66379 0.123078 7.69789 0.149875C7.732 0.176672 7.76123 0.231483 7.78559 0.314309L8.52372 3.11333L9.34223 0.314309C9.36659 0.231483 9.39461 0.176672 9.42628 0.149875C9.45794 0.123078 9.51275 0.10968 9.59071 0.10968H9.98535C10.0584 0.10968 10.095 0.143785 10.095 0.211994C10.095 0.236355 10.0804 0.292384 10.0511 0.380082L8.94028 3.61029C8.91105 3.69312 8.8806 3.74793 8.84893 3.77472C8.81726 3.80152 8.76489 3.81492 8.6918 3.81492H8.3337C8.26062 3.81492 8.20703 3.8003 8.17292 3.77107C8.13882 3.74184 8.10959 3.68581 8.08523 3.60298L7.35441 0.913578L6.6309 3.60298C6.60654 3.68581 6.57731 3.74184 6.54321 3.77107C6.5091 3.8003 6.45551 3.81492 6.38242 3.81492H6.02432Z" fill="#555555"/>
<path d="M11.717 3.92448C11.3077 3.92448 10.9399 3.85627 10.6134 3.71986C10.555 3.69549 10.5148 3.6687 10.4928 3.63947C10.4709 3.61023 10.46 3.56395 10.46 3.50061V3.29598C10.46 3.20828 10.4892 3.16443 10.5477 3.16443C10.5818 3.16443 10.6427 3.17905 10.7304 3.20828C11.0519 3.3106 11.3857 3.36176 11.7316 3.36176C11.9703 3.36176 12.1518 3.31547 12.276 3.2229C12.4003 3.13033 12.4624 2.99635 12.4624 2.82095C12.4624 2.70402 12.4246 2.60901 12.3491 2.53593C12.2736 2.46285 12.136 2.38977 11.9362 2.31669L11.315 2.08283C10.7742 1.88307 10.5038 1.54202 10.5038 1.05968C10.5038 0.742997 10.6268 0.487211 10.8729 0.292327C11.1189 0.0974422 11.4417 0 11.8412 0C12.1579 0 12.4673 0.0560293 12.7693 0.168088C12.8278 0.187576 12.8692 0.213155 12.8936 0.244823C12.9179 0.276492 12.9301 0.323995 12.9301 0.387333V0.584653C12.9301 0.672351 12.8985 0.7162 12.8351 0.7162C12.801 0.7162 12.745 0.70402 12.667 0.679659C12.4088 0.601705 12.1457 0.562729 11.8777 0.562729C11.41 0.562729 11.1762 0.721072 11.1762 1.03776C11.1762 1.16443 11.2151 1.26431 11.2931 1.33739C11.371 1.41048 11.5245 1.49087 11.7535 1.57856L12.3235 1.79781C12.611 1.90987 12.8181 2.04263 12.9447 2.1961C13.0714 2.34957 13.1347 2.54811 13.1347 2.79172C13.1347 3.13764 13.0056 3.41291 12.7474 3.61754C12.4892 3.82217 12.1457 3.92448 11.717 3.92448Z" fill="#555555"/>
<path d="M13.175 4.50036C12.7057 4.50713 12.1518 4.61343 11.7328 4.91225C11.6033 5.00716 11.6257 5.13388 11.7684 5.11582C12.2457 5.05703 13.2973 4.9303 13.4847 5.17462C13.6721 5.41431 13.2754 6.42361 13.0968 6.87183C13.0435 7.00726 13.1593 7.06197 13.2796 6.95781C14.0641 6.28807 14.2693 4.88957 14.1088 4.68588C14.0286 4.58646 13.6442 4.49348 13.175 4.50036ZM0.104671 4.72947C0.000154659 4.74271 -0.0471987 4.87059 0.06318 4.97164C1.9244 6.67314 4.38802 7.69732 7.12257 7.69732C9.07364 7.69732 11.3427 7.07733 12.9043 5.90928C13.1606 5.71655 12.9378 5.42356 12.6766 5.54345C10.9252 6.29361 9.02122 6.65898 7.28864 6.65898C4.72051 6.65898 2.23761 5.94273 0.224746 4.75984C0.180774 4.73346 0.139509 4.72513 0.104671 4.72947Z" fill="#FF9900"/>
</svg>
