<svg width="12" height="9" viewBox="0 0 12 9" fill="none" xmlns="http://www.w3.org/2000/svg">
<path d="M0.789839 8.59317H2.62568V4.11399L0 2.14832V7.80904C0 8.2387 0.352225 8.59317 0.789839 8.59317Z" fill="#4285F4"/>
<path d="M8.83203 8.59323H10.6679C11.1055 8.59323 11.4577 8.23876 11.4577 7.79836V2.14838L8.8427 4.1248V8.59323H8.83203Z" fill="#34A853"/>
<path d="M8.83203 0.804827V4.29657L11.4577 2.28252V1.20983C11.4577 0.213749 10.3431 -0.355437 9.56079 0.246587L8.83203 0.804827Z" fill="#FBBC04"/>
<path fill-rule="evenodd" clip-rule="evenodd" d="M2.61621 4.26877V0.81366L5.72865 3.21485L8.84108 0.81366V4.27963L5.73923 6.66996L2.61621 4.26877Z" fill="#EA4335"/>
<path d="M0 1.20505V2.27941L2.62568 4.29657V0.810389L1.8862 0.240322C1.11457 -0.351671 0 0.218397 0 1.20505Z" fill="#C5221F"/>
</svg>
