<svg width="160" height="36" viewBox="0 0 160 36" fill="none" xmlns="http://www.w3.org/2000/svg">
<path d="M54.7799 10.9582C54.7799 12.9096 54.1542 14.3839 52.9048 15.3772C51.6553 16.3725 50.1536 16.8691 48.4036 16.8691H45.3944V20.4806H48.2413V23.0812H40.3047V20.4806H42.3578V7.89226H40.3047V5.29169H48.2413C50.4489 5.29169 52.0914 5.82158 53.1668 6.87941C54.2422 7.93724 54.7799 9.29814 54.7799 10.9582ZM51.5243 11.011C51.5243 10.0255 51.2467 9.25903 50.6894 8.71154C50.1321 8.16405 49.1975 7.89031 47.8835 7.89031H45.3924V14.294H47.8835C49.1779 14.294 50.1087 13.9968 50.6757 13.4043C51.2408 12.8138 51.5243 12.016 51.5243 11.011Z" fill="#214A72"/>
<path d="M67.2038 16.9494C67.2038 18.8656 66.5977 20.4103 65.3834 21.5874C64.1691 22.7645 62.5971 23.353 60.6633 23.353C58.7842 23.353 57.2747 22.788 56.1347 21.6558C54.9948 20.5256 54.4238 18.9927 54.4238 17.0589C54.4238 15.2717 54.9615 13.7348 56.0389 12.4482C57.1143 11.1616 58.7118 10.5183 60.8275 10.5183C62.9627 10.5183 64.5583 11.1577 65.6161 12.4345C66.6739 13.7114 67.2038 15.2169 67.2038 16.9494ZM64.1672 16.8692C64.1672 15.5552 63.8524 14.5521 63.2228 13.858C62.5932 13.1658 61.7758 12.8178 60.7728 12.8178C59.7325 12.8178 58.9211 13.1873 58.3364 13.9264C57.7518 14.6655 57.4604 15.6549 57.4604 16.8966C57.4604 18.0639 57.7381 19.0494 58.2954 19.8511C58.8526 20.6547 59.6778 21.0555 60.7728 21.0555C61.8306 21.0555 62.6616 20.6684 63.2638 19.8921C63.8661 19.1178 64.1672 18.1089 64.1672 16.8692Z" fill="#214A72"/>
<path d="M78.341 19.4132C78.341 20.69 77.817 21.6657 76.767 22.3422C75.717 23.0168 74.3815 23.3551 72.7586 23.3551C71.8826 23.3551 71.0027 23.2554 70.1169 23.054C69.2312 22.8526 68.4334 22.5534 67.7217 22.1506L68.1597 18.9771L70.4591 19.1961L70.4318 20.7838C70.7778 20.9305 71.1474 21.0302 71.5404 21.085C71.9334 21.1397 72.2834 21.1671 72.5943 21.1671C73.3413 21.1671 73.9943 21.0341 74.5516 20.7702C75.1069 20.5062 75.3865 20.1093 75.3865 19.5794C75.3865 19.069 75.1363 18.7034 74.6337 18.4844C74.1312 18.2654 73.5075 18.0972 72.7586 17.978C72.0097 17.8587 71.2628 17.6944 70.5139 17.4852C69.765 17.276 69.1412 16.9299 68.6387 16.445C68.1362 15.962 67.8859 15.2366 67.8859 14.2687C67.8859 12.8452 68.4276 11.8695 69.5147 11.3396C70.5999 10.8097 71.7457 10.5458 72.9483 10.5458C74.536 10.5458 76.0318 10.9192 77.4357 11.6681L77.7368 14.7067L75.4374 14.9804L75.191 13.1464C74.4793 12.8726 73.7578 12.7357 73.0284 12.7357C72.4633 12.7357 71.9843 12.8491 71.5913 13.0779C71.1982 13.3067 71.0027 13.6665 71.0027 14.1592C71.0027 14.6695 71.2491 15.0254 71.7418 15.2268C72.2346 15.4282 72.8446 15.5866 73.5759 15.7059C74.3052 15.8251 75.0346 15.9894 75.7659 16.1986C76.4952 16.4078 77.1072 16.7559 77.6 17.2388C78.0947 17.7218 78.341 18.4472 78.341 19.4132Z" fill="#214A72"/>
<path d="M88.7676 19.4677C88.4215 22.0585 86.9785 23.353 84.4444 23.353C83.1304 23.353 82.0862 23.0069 81.3119 22.3127C80.5357 21.6206 80.1485 20.6527 80.1485 19.413V12.9546H78.3418V10.792H80.1485V6.98889H83.0776V10.792H87.6472V12.9546H83.0776V18.9476C83.0776 20.244 83.6427 20.8912 84.7748 20.8912C85.0857 20.8912 85.4318 20.7778 85.815 20.549C86.1983 20.3203 86.4622 19.7337 86.6089 18.7834L88.7676 19.4677Z" fill="#214A72"/>
<path d="M106.117 18.099C106.117 19.8139 105.511 21.1181 104.297 22.0116C103.082 22.9052 101.573 23.353 99.7681 23.353C97.2868 23.353 95.3804 22.87 94.0488 21.9021L94.4321 18.4002L96.0745 18.5644L95.965 20.8091C96.5673 21.12 97.1695 21.3292 97.7718 21.4387C98.374 21.5482 99.0036 21.603 99.6606 21.603C100.828 21.603 101.837 21.3527 102.684 20.8502C103.532 20.3496 103.956 19.4951 103.956 18.2907C103.956 16.9415 103.491 16.0596 102.56 15.649C101.63 15.2384 100.617 14.906 99.5237 14.6499C98.6849 14.468 97.8539 14.2353 97.0326 13.9518C96.2114 13.6683 95.5271 13.2225 94.9796 12.6105C94.4321 12.0004 94.1583 11.1107 94.1583 9.94144C94.1583 8.26378 94.7195 7.02215 95.8419 6.22047C96.9642 5.41879 98.2919 5.01599 99.8229 5.01599C100.808 5.01599 101.802 5.15286 102.805 5.42661C103.808 5.70035 104.592 6.05622 105.159 6.49421L105.323 10.0236L103.681 10.1878L103.407 7.53249C102.842 7.24115 102.267 7.04366 101.682 6.94394C101.098 6.84422 100.542 6.79338 100.013 6.79338C98.9 6.79338 98.0005 7.04366 97.3162 7.54618C96.6318 8.04869 96.2896 8.77412 96.2896 9.72245C96.2896 10.835 96.7002 11.5839 97.5215 11.9672C98.3427 12.3504 99.2539 12.6613 100.259 12.8979C101.061 13.0797 101.915 13.3124 102.818 13.5959C103.722 13.8795 104.496 14.3624 105.145 15.0468C105.792 15.7331 106.117 16.7499 106.117 18.099Z" fill="#214A72"/>
<path d="M129.24 7.04365H126.914V21.3292H129.131V23.0812H122.809V21.3292H124.89V10.0001H124.78L118.815 22.1778H117.747L111.645 9.91798H111.535V21.3292H113.67V23.0812H107.376V21.3292H109.621V7.04365H107.294V5.29169H111.371L118.295 19.2214H118.404L125.136 5.29169H129.24V7.04365Z" fill="#214A72"/>
<path d="M145.632 10.7118L143.853 10.8487L143.305 7.04561H138.708V21.3312H141.854V23.0832H133.644V21.3312H136.708V7.04561H132.111L131.563 10.8487L129.812 10.7118L130.332 5.29364H145.083L145.632 10.7118Z" fill="#214A72"/>
<path d="M160 10.7392C160 12.6007 159.435 14.0183 158.303 14.994C157.17 15.9697 155.729 16.4585 153.979 16.4585H150.505V21.3292H153.569V23.0812H146.262V21.3292H148.506V7.04365H146.262V5.29169H153.815C156.023 5.29169 157.605 5.8294 158.563 6.90678C159.521 7.98416 160 9.26099 160 10.7392ZM157.865 10.794C157.865 9.64423 157.526 8.73305 156.852 8.05651C156.177 7.38193 155.11 7.04365 153.651 7.04365H150.505V14.7066H153.733C156.486 14.7066 157.865 13.4024 157.865 10.794Z" fill="#214A72"/>
<path d="M45.324 33.3721H44.4871L41.1201 28.2667V33.3721H40.2832V26.9508H41.1201L44.4871 32.0483V26.9508H45.324V33.3721Z" fill="#214A72"/>
<path d="M50.9557 31.1646H46.9258C46.9571 31.6612 47.1272 32.0503 47.4361 32.328C47.745 32.6076 48.1224 32.7464 48.5624 32.7464C48.9241 32.7464 49.2272 32.6624 49.4677 32.4942C49.7101 32.326 49.8803 32.0992 49.978 31.8177H50.8794C50.7445 32.3026 50.4747 32.6956 50.0699 33.0006C49.6652 33.3037 49.1627 33.4562 48.5604 33.4562C48.0814 33.4562 47.6551 33.3487 47.2777 33.1336C46.9003 32.9185 46.6051 32.6135 46.39 32.2185C46.1749 31.8235 46.0674 31.364 46.0674 30.8439C46.0674 30.3218 46.171 29.8663 46.3802 29.4732C46.5895 29.0802 46.8808 28.7791 47.2582 28.5679C47.6355 28.3567 48.0696 28.2512 48.5604 28.2512C49.0395 28.2512 49.4618 28.3548 49.8294 28.564C50.197 28.7732 50.4805 29.0587 50.68 29.4244C50.8794 29.79 50.9791 30.2026 50.9791 30.6621C50.9831 30.8185 50.9733 30.9867 50.9557 31.1646ZM49.9057 29.659C49.7649 29.4283 49.5733 29.2542 49.3308 29.135C49.0884 29.0157 48.8205 28.9551 48.5252 28.9551C48.1029 28.9551 47.7411 29.09 47.4439 29.3598C47.1467 29.6297 46.9766 30.0031 46.9336 30.4822H50.1169C50.1188 30.1635 50.0484 29.8897 49.9057 29.659Z" fill="#214A72"/>
<path d="M54.3493 33.3721L53.1527 31.4949L52.0029 33.3721H51.1289L52.7577 30.8692L51.1289 28.3293H52.0772L53.2739 30.1966L54.4138 28.3293H55.2879L53.6689 30.8223L55.2977 33.3701H54.3493V33.3721Z" fill="#214A72"/>
<path d="M56.778 29.0195V31.9916C56.778 32.236 56.8308 32.4101 56.9345 32.5117C57.0381 32.6134 57.2199 32.6643 57.478 32.6643H58.094V33.3721H57.3392C56.8738 33.3721 56.5238 33.2645 56.2912 33.0494C56.0585 32.8344 55.9412 32.4824 55.9412 31.9916V29.0195H55.2881V28.3293H55.9412V27.0603H56.778V28.3293H58.094V29.0195H56.778Z" fill="#214A72"/>
<path d="M65.6845 28.8181C65.5066 28.4447 65.2485 28.1533 64.9122 27.948C64.5739 27.7427 64.1828 27.6391 63.7351 27.6391C63.2873 27.6391 62.8845 27.7427 62.5247 27.948C62.1649 28.1533 61.8834 28.4486 61.6781 28.8318C61.4728 29.2151 61.3691 29.6589 61.3691 30.1615C61.3691 30.664 61.4708 31.1059 61.6781 31.4872C61.8834 31.8684 62.1649 32.1598 62.5247 32.3651C62.8845 32.5704 63.2873 32.674 63.7351 32.674C64.3608 32.674 64.875 32.4863 65.2798 32.1129C65.6845 31.7394 65.9211 31.233 65.9876 30.5955H63.43V29.9151H66.8792V30.5584C66.8303 31.0863 66.6641 31.5693 66.3826 32.0073C66.101 32.4453 65.7295 32.7933 65.27 33.0475C64.8105 33.3017 64.2982 33.4288 63.7331 33.4288C63.1387 33.4288 62.5951 33.29 62.1043 33.0104C61.6135 32.7307 61.2264 32.3436 60.9409 31.8469C60.6554 31.3503 60.5127 30.7891 60.5127 30.1634C60.5127 29.5377 60.6554 28.9746 60.9409 28.476C61.2264 27.9754 61.6135 27.5863 62.1043 27.3067C62.5951 27.0271 63.1387 26.8882 63.7331 26.8882C64.4136 26.8882 65.0158 27.0564 65.5418 27.3947C66.0658 27.7329 66.4471 28.2081 66.6876 28.8201H65.6845V28.8181Z" fill="#214A72"/>
<path d="M72.1881 31.1645H68.1582C68.1895 31.6612 68.3596 32.0503 68.6685 32.3279C68.9775 32.6076 69.3548 32.7464 69.7948 32.7464C70.1565 32.7464 70.4596 32.6623 70.7001 32.4941C70.9426 32.326 71.1127 32.0992 71.2104 31.8176H72.1119C71.9769 32.3025 71.7071 32.6955 71.3023 33.0006C70.8976 33.3036 70.3951 33.4562 69.7928 33.4562C69.3138 33.4562 68.8875 33.3486 68.5101 33.1335C68.1328 32.9184 67.8375 32.6134 67.6224 32.2184C67.4074 31.8235 67.2998 31.364 67.2998 30.8439C67.2998 30.3218 67.4034 29.8662 67.6127 29.4732C67.8219 29.0802 68.1132 28.779 68.4906 28.5679C68.868 28.3567 69.3021 28.2511 69.7928 28.2511C70.2719 28.2511 70.6942 28.3547 71.0618 28.564C71.4294 28.7732 71.713 29.0586 71.9124 29.4243C72.1118 29.7899 72.2116 30.2025 72.2116 30.662C72.2155 30.8184 72.2077 30.9866 72.1881 31.1645ZM71.1401 29.6589C70.9993 29.4282 70.8077 29.2542 70.5652 29.1349C70.3227 29.0156 70.0549 28.955 69.7596 28.955C69.3373 28.955 68.9755 29.0899 68.6783 29.3598C68.3811 29.6296 68.211 30.0031 68.168 30.4821H71.3512C71.3512 30.1634 71.2808 29.8897 71.1401 29.6589Z" fill="#214A72"/>
<path d="M76.899 28.7948C77.2783 29.1663 77.4699 29.7001 77.4699 30.4001V33.3722H76.6428V30.5193C76.6428 30.0168 76.5177 29.6316 76.2654 29.3657C76.0132 29.0998 75.671 28.9649 75.235 28.9649C74.7931 28.9649 74.4431 29.1037 74.1811 29.3794C73.921 29.6551 73.79 30.0579 73.79 30.5839V33.3722H72.9531V28.3313H73.79V29.0489C73.9562 28.7908 74.1811 28.5914 74.4665 28.4506C74.752 28.3098 75.0668 28.2394 75.409 28.2394C76.023 28.2394 76.5196 28.4232 76.899 28.7948Z" fill="#214A72"/>
<path d="M83.0436 31.1646H79.0137C79.0449 31.6612 79.2151 32.0503 79.524 32.328C79.8329 32.6076 80.2103 32.7464 80.6503 32.7464C81.012 32.7464 81.3151 32.6624 81.5556 32.4942C81.798 32.326 81.9681 32.0992 82.0659 31.8177H82.9673C82.8324 32.3026 82.5626 32.6956 82.1578 33.0006C81.7531 33.3037 81.2505 33.4562 80.6483 33.4562C80.1692 33.4562 79.743 33.3487 79.3656 33.1336C78.9882 32.9185 78.693 32.6135 78.4779 32.2185C78.2628 31.8235 78.1553 31.364 78.1553 30.8439C78.1553 30.3218 78.2589 29.8663 78.4681 29.4732C78.6773 29.0802 78.9687 28.7791 79.3461 28.5679C79.7234 28.3567 80.1575 28.2512 80.6483 28.2512C81.1274 28.2512 81.5497 28.3548 81.9173 28.564C82.2849 28.7732 82.5684 29.0587 82.7679 29.4244C82.9673 29.79 83.067 30.2026 83.067 30.6621C83.0709 30.8185 83.0631 30.9867 83.0436 31.1646ZM81.9955 29.659C81.8547 29.4283 81.6631 29.2542 81.4207 29.135C81.1782 29.0157 80.9103 28.9551 80.6151 28.9551C80.1927 28.9551 79.831 29.09 79.5338 29.3598C79.2366 29.6297 79.0665 30.0031 79.0234 30.4822H82.2067C82.2067 30.1635 82.1363 29.8897 81.9955 29.659Z" fill="#214A72"/>
<path d="M85.2751 28.4779C85.5488 28.3176 85.8812 28.2394 86.2743 28.2394V29.1036H86.0533C85.1147 29.1036 84.6455 29.612 84.6455 30.6307V33.3721H83.8086V28.3313H84.6455V29.1506C84.7921 28.8612 85.0033 28.6363 85.2751 28.4779Z" fill="#214A72"/>
<path d="M86.8724 29.4751C87.0816 29.086 87.3671 28.783 87.7328 28.5698C88.0984 28.3547 88.5032 28.2472 88.9509 28.2472C89.3928 28.2472 89.7761 28.343 90.1007 28.5327C90.4252 28.7223 90.6677 28.9628 90.828 29.2503V28.3293H91.6747V33.3701H90.828V32.4316C90.6618 32.7268 90.4155 32.9693 90.087 33.1629C89.7585 33.3564 89.3772 33.4523 88.9412 33.4523C88.4934 33.4523 88.0886 33.3428 87.7269 33.1218C87.3652 32.9009 87.0797 32.5919 86.8705 32.193C86.6612 31.7941 86.5576 31.3405 86.5576 30.8321C86.5596 30.3179 86.6632 29.8662 86.8724 29.4751ZM90.5973 29.8486C90.4448 29.567 90.2375 29.35 89.9755 29.1994C89.7155 29.0489 89.428 28.9746 89.1152 28.9746C88.8023 28.9746 88.5169 29.0489 88.2587 29.1955C88.0006 29.3422 87.7953 29.5573 87.6428 29.8388C87.4903 30.1204 87.4121 30.4528 87.4121 30.8321C87.4121 31.2193 87.4883 31.5536 87.6428 31.8391C87.7953 32.1246 88.0026 32.3416 88.2587 32.4922C88.5169 32.6428 88.8023 32.7171 89.1152 32.7171C89.428 32.7171 89.7155 32.6428 89.9755 32.4922C90.2356 32.3416 90.4428 32.1246 90.5973 31.8391C90.7498 31.5536 90.828 31.2212 90.828 30.8399C90.828 30.4626 90.7498 30.1302 90.5973 29.8486Z" fill="#214A72"/>
<path d="M93.7439 29.0195V31.9916C93.7439 32.236 93.7967 32.41 93.9003 32.5117C94.0039 32.6134 94.1858 32.6642 94.4439 32.6642H95.0598V33.372H94.305C93.8397 33.372 93.4897 33.2645 93.257 33.0494C93.0243 32.8343 92.907 32.4823 92.907 31.9916V29.0195H92.2539V28.3292H92.907V27.0602H93.7439V28.3292H95.0598V29.0195H93.7439Z" fill="#214A72"/>
<path d="M95.7326 27.3458C95.6231 27.2363 95.5664 27.1013 95.5664 26.941C95.5664 26.7807 95.6212 26.6458 95.7326 26.5363C95.8421 26.4268 95.977 26.3701 96.1374 26.3701C96.2899 26.3701 96.4209 26.4248 96.5284 26.5363C96.636 26.6458 96.6888 26.7807 96.6888 26.941C96.6888 27.1013 96.636 27.2363 96.5284 27.3458C96.4209 27.4553 96.2899 27.512 96.1374 27.512C95.977 27.512 95.8421 27.4572 95.7326 27.3458ZM96.5421 28.3312V33.3721H95.7052V28.3312H96.5421Z" fill="#214A72"/>
<path d="M98.515 33.1336C98.1318 32.9185 97.8307 32.6135 97.6136 32.2185C97.3966 31.8235 97.2871 31.364 97.2871 30.8439C97.2871 30.3277 97.3986 29.8741 97.6234 29.4771C97.8463 29.0822 98.1533 28.7771 98.5385 28.566C98.9257 28.3548 99.3578 28.2492 99.8349 28.2492C100.314 28.2492 100.746 28.3548 101.131 28.566C101.518 28.7771 101.823 29.0802 102.046 29.4713C102.269 29.8643 102.383 30.3199 102.383 30.842C102.383 31.364 102.267 31.8216 102.039 32.2166C101.808 32.6115 101.497 32.9166 101.104 33.1316C100.711 33.3467 100.277 33.4543 99.7977 33.4543C99.3265 33.4543 98.8983 33.3467 98.515 33.1336ZM100.644 32.5079C100.908 32.3671 101.121 32.1559 101.284 31.8724C101.446 31.5908 101.528 31.2467 101.528 30.842C101.528 30.4372 101.448 30.0931 101.29 29.8115C101.129 29.5299 100.922 29.3188 100.664 29.1819C100.406 29.0431 100.126 28.9746 99.8271 28.9746C99.5201 28.9746 99.2405 29.0431 98.9843 29.1819C98.7301 29.3207 98.5248 29.5299 98.3723 29.8115C98.2198 30.0931 98.1416 30.4372 98.1416 30.842C98.1416 31.2526 98.2159 31.5987 98.3665 31.8822C98.517 32.1638 98.7184 32.3749 98.9687 32.5118C99.2209 32.6506 99.4966 32.7191 99.7958 32.7191C100.099 32.7191 100.38 32.6487 100.644 32.5079Z" fill="#214A72"/>
<path d="M107.065 28.7947C107.444 29.1662 107.636 29.7 107.636 30.4V33.3721H106.809V30.5193C106.809 30.0168 106.684 29.6316 106.431 29.3656C106.179 29.0997 105.837 28.9648 105.401 28.9648C104.959 28.9648 104.609 29.1036 104.347 29.3793C104.087 29.655 103.956 30.0578 103.956 30.5838V33.3721H103.119V28.3313H103.956V29.0489C104.122 28.7908 104.347 28.5913 104.633 28.4506C104.918 28.3098 105.233 28.2394 105.575 28.2394C106.189 28.2394 106.686 28.4232 107.065 28.7947Z" fill="#214A72"/>
<path d="M111.625 33.2118C111.291 33.0612 111.029 32.852 110.839 32.5861C110.65 32.3201 110.552 32.0112 110.544 31.6612H111.436C111.467 31.9623 111.59 32.2146 111.809 32.4199C112.026 32.6252 112.345 32.7288 112.761 32.7288C113.16 32.7288 113.475 32.6291 113.704 32.4296C113.934 32.2302 114.048 31.974 114.048 31.6612C114.048 31.4168 113.979 31.2173 113.845 31.0629C113.71 30.9104 113.541 30.793 113.338 30.7129C113.135 30.6327 112.863 30.5467 112.519 30.4548C112.096 30.3453 111.756 30.2338 111.502 30.1243C111.248 30.0148 111.029 29.8408 110.849 29.6042C110.667 29.3676 110.577 29.0508 110.577 28.652C110.577 28.302 110.665 27.993 110.843 27.7232C111.021 27.4533 111.271 27.2441 111.592 27.0975C111.915 26.9508 112.284 26.8765 112.701 26.8765C113.301 26.8765 113.794 27.0271 114.177 27.3282C114.56 27.6293 114.777 28.0282 114.826 28.5249H113.905C113.874 28.2804 113.745 28.0634 113.518 27.8757C113.291 27.688 112.99 27.5961 112.617 27.5961C112.267 27.5961 111.981 27.686 111.76 27.8679C111.539 28.0497 111.43 28.302 111.43 28.6265C111.43 28.8592 111.496 29.0489 111.627 29.1975C111.758 29.3441 111.922 29.4575 112.114 29.5338C112.308 29.6101 112.579 29.6981 112.927 29.7958C113.35 29.9131 113.692 30.0265 113.948 30.14C114.206 30.2534 114.427 30.4274 114.611 30.664C114.795 30.9006 114.887 31.2212 114.887 31.626C114.887 31.9389 114.805 32.2341 114.638 32.5098C114.472 32.7855 114.228 33.0104 113.903 33.1805C113.579 33.3525 113.195 33.4386 112.753 33.4386C112.337 33.4366 111.96 33.3623 111.625 33.2118Z" fill="#214A72"/>
<path d="M122.264 27.0056V33.3721H121.427V28.6246L119.312 33.3721H118.723L116.598 28.6148V33.3721H115.761V27.0056H116.662L119.016 32.2673L121.373 27.0056H122.264Z" fill="#214A72"/>
<path d="M127.26 26.9586V27.6391H125.512V33.3701H124.675V27.6391H122.917V26.9586H127.26Z" fill="#214A72"/>
<path d="M131.661 30.1654C131.296 30.5174 130.74 30.6953 129.992 30.6953H128.76V33.3721H127.923V26.9606H129.994C130.717 26.9606 131.268 27.1347 131.646 27.4847C132.023 27.8347 132.211 28.2844 132.211 28.8377C132.209 29.3696 132.027 29.8134 131.661 30.1654ZM131.022 29.702C131.243 29.5006 131.352 29.2112 131.352 28.8377C131.352 28.0458 130.899 27.6509 129.992 27.6509H128.76V30.007H129.992C130.459 30.0051 130.801 29.9034 131.022 29.702Z" fill="#214A72"/>
<path d="M141.473 27.0056V33.3721H140.636V28.6246L138.521 33.3721H137.932L135.807 28.6148V33.3721H134.97V27.0056H135.871L138.225 32.2673L140.581 27.0056H141.473Z" fill="#214A72"/>
<path d="M142.523 29.4751C142.732 29.086 143.018 28.783 143.383 28.5698C143.749 28.3547 144.154 28.2472 144.601 28.2472C145.043 28.2472 145.426 28.343 145.751 28.5327C146.076 28.7223 146.318 28.9628 146.478 29.2503V28.3293H147.325V33.3701H146.478V32.4316C146.312 32.7268 146.066 32.9693 145.737 33.1629C145.409 33.3564 145.028 33.4523 144.592 33.4523C144.144 33.4523 143.739 33.3428 143.377 33.1218C143.016 32.9009 142.73 32.5919 142.521 32.193C142.312 31.7941 142.208 31.3405 142.208 30.8321C142.21 30.3179 142.314 29.8662 142.523 29.4751ZM146.248 29.8486C146.095 29.567 145.888 29.35 145.626 29.1994C145.366 29.0489 145.078 28.9746 144.766 28.9746C144.453 28.9746 144.167 29.0489 143.909 29.1955C143.651 29.3422 143.446 29.5573 143.293 29.8388C143.141 30.1204 143.062 30.4528 143.062 30.8321C143.062 31.2193 143.139 31.5536 143.293 31.8391C143.446 32.1246 143.653 32.3416 143.909 32.4922C144.167 32.6428 144.453 32.7171 144.766 32.7171C145.078 32.7171 145.366 32.6428 145.626 32.4922C145.886 32.3416 146.093 32.1246 146.248 31.8391C146.4 31.5536 146.478 31.2212 146.478 30.8399C146.478 30.4626 146.402 30.1302 146.248 29.8486Z" fill="#214A72"/>
<path d="M148.401 27.3458C148.291 27.2363 148.234 27.1013 148.234 26.941C148.234 26.7807 148.289 26.6458 148.401 26.5363C148.51 26.4268 148.645 26.3701 148.805 26.3701C148.958 26.3701 149.089 26.4248 149.196 26.5363C149.304 26.6458 149.357 26.7807 149.357 26.941C149.357 27.1013 149.304 27.2363 149.196 27.3458C149.089 27.4553 148.958 27.512 148.805 27.512C148.647 27.512 148.512 27.4572 148.401 27.3458ZM149.21 28.3312V33.3721H148.373V28.3312H149.21Z" fill="#214A72"/>
<path d="M151.104 26.5637V33.3721H150.268V26.5637H151.104Z" fill="#214A72"/>
<path d="M156.736 31.1645H152.706C152.737 31.6612 152.907 32.0503 153.216 32.3279C153.525 32.6076 153.903 32.7464 154.343 32.7464C154.704 32.7464 155.007 32.6623 155.248 32.4941C155.49 32.326 155.661 32.0992 155.758 31.8176H156.66C156.525 32.3025 156.255 32.6955 155.85 33.0006C155.445 33.3036 154.943 33.4562 154.341 33.4562C153.862 33.4562 153.435 33.3486 153.058 33.1335C152.681 32.9184 152.385 32.6134 152.17 32.2184C151.955 31.8235 151.848 31.364 151.848 30.8439C151.848 30.3218 151.951 29.8662 152.161 29.4732C152.37 29.0802 152.661 28.779 153.038 28.5679C153.416 28.3567 153.85 28.2511 154.341 28.2511C154.82 28.2511 155.242 28.3547 155.61 28.564C155.977 28.7732 156.261 29.0586 156.46 29.4243C156.66 29.7899 156.759 30.2025 156.759 30.662C156.763 30.8184 156.754 30.9866 156.736 31.1645ZM155.688 29.6589C155.547 29.4282 155.356 29.2542 155.113 29.1349C154.871 29.0156 154.603 28.955 154.307 28.955C153.885 28.955 153.523 29.0899 153.226 29.3598C152.929 29.6296 152.759 30.0031 152.716 30.4821H155.899C155.899 30.1634 155.829 29.8897 155.688 29.6589Z" fill="#214A72"/>
<path d="M158.967 28.478C159.241 28.3177 159.574 28.2394 159.967 28.2394V29.1037H159.746C158.807 29.1037 158.338 29.6121 158.338 30.6308V33.3722H157.501V28.3313H158.338V29.1506C158.484 28.8612 158.694 28.6364 158.967 28.478Z" fill="#214A72"/>
<path d="M11.8964 35.4428L20.1088 25.1539L32.4605 30.8087C33.1156 31.1078 33.8625 30.6307 33.8625 29.9092V0.990013C33.8625 0.262633 33.1019 -0.216421 32.4449 0.0983853L0.686573 15.3147C0.436292 15.434 0.457801 15.7977 0.721769 15.8856L12.3618 19.7963C12.7157 19.9156 13.1048 19.8256 13.3707 19.5636L23.1669 9.93365C24.0468 9.06744 25.3999 10.2739 24.6412 11.2476L14.2858 24.5301C14.1939 24.6494 14.1294 24.7882 14.0981 24.9349L11.8964 35.4428Z" fill="#5279CC"/>
<path d="M12.3771 19.8021L0.641226 15.8583C0.54737 15.827 0.486755 15.9541 0.568878 16.0088L14.1271 24.7022C14.1349 24.708 14.1466 24.7061 14.1525 24.6983L32.5032 1.16011C32.6146 1.01738 32.4152 0.839442 32.2861 0.966538L13.3547 19.5773C13.0986 19.8295 12.7192 19.9156 12.3771 19.8021Z" fill="url(#paint0_linear_2245_1702)"/>
<path d="M1.68168 27.7955C1.52917 27.8053 1.3747 27.7622 1.24369 27.6625C0.960168 27.4435 0.907373 27.0368 1.12637 26.7513L4.97444 21.9432C5.19344 21.6597 5.6021 21.6069 5.88562 21.8259C6.16914 22.0449 6.22194 22.4516 6.00294 22.7371L2.15487 27.5452C2.03559 27.6977 1.86157 27.7838 1.68168 27.7955Z" fill="#FBB21F"/>
<path d="M6.88273 25.5742L0 33.9802V34.1972C0 34.6508 0.242459 35.0458 0.606149 35.2629C0.6433 35.2335 0.678496 35.2003 0.709781 35.1631L7.88972 26.3955C8.11653 26.1178 8.07548 25.7092 7.79782 25.4823C7.51821 25.2575 7.10955 25.2985 6.88273 25.5742Z" fill="#FBB21F"/>
<path d="M8.08331 31.712C7.92884 31.7218 7.77242 31.6768 7.64141 31.5751C7.35984 31.3542 7.31096 30.9455 7.53191 30.664L11.3115 25.848C11.5325 25.5664 11.9412 25.5176 12.2227 25.7385C12.5043 25.9595 12.5532 26.3681 12.3322 26.6497L8.55259 31.4657C8.43331 31.6162 8.25929 31.7003 8.08331 31.712Z" fill="#FBB21F"/>
<path d="M6.03371 34.2675C5.88315 34.2695 5.73259 34.2206 5.60745 34.115C5.33175 33.8843 5.29656 33.4756 5.52729 33.1999L6.38567 32.1773C6.6164 31.9016 7.02506 31.8664 7.30076 32.0971C7.57646 32.3278 7.61166 32.7365 7.38093 33.0122L6.52254 34.0348C6.39545 34.1873 6.21556 34.2656 6.03371 34.2675Z" fill="#FBB21F"/>
<path d="M20.1063 25.1539L14.1426 24.71L16.2191 30.0129L20.1063 25.1539Z" fill="url(#paint1_linear_2245_1702)"/>
<defs>
<linearGradient id="paint0_linear_2245_1702" x1="8.15224" y1="19.4669" x2="30.9474" y2="-3.96619" gradientUnits="userSpaceOnUse">
<stop stop-color="#FBBC1F"/>
<stop offset="1" stop-color="#FB9E1F"/>
</linearGradient>
<linearGradient id="paint1_linear_2245_1702" x1="23.5806" y1="24.0593" x2="15.4726" y2="27.2471" gradientUnits="userSpaceOnUse">
<stop stop-color="#214A72"/>
<stop offset="1" stop-color="#214A72" stop-opacity="0"/>
</linearGradient>
</defs>
</svg>
