<svg width="36" height="36" viewBox="0 0 36 36" fill="none" xmlns="http://www.w3.org/2000/svg">
<circle cx="18.25" cy="18.442" r="17.5" fill="white"/>
<g clip-path="url(#clip0_676_86)">
<path d="M20.9423 17.0958H15.5577C15.1861 17.0958 14.8846 16.7942 14.8846 16.4227C14.8846 16.0512 15.1861 15.7496 15.5577 15.7496H20.9423C21.3138 15.7496 21.6153 16.0512 21.6153 16.4227C21.6153 16.7942 21.3138 17.0958 20.9423 17.0958Z" fill="#FA8900"/>
<path d="M18.25 13.7304H15.5577C15.1861 13.7304 14.8846 13.4289 14.8846 13.0574C14.8846 12.6858 15.1861 12.3843 15.5577 12.3843H18.25C18.6215 12.3843 18.923 12.6858 18.923 13.0574C18.923 13.4289 18.6215 13.7304 18.25 13.7304Z" fill="#FA8900"/>
<path d="M12.2671 20.4612C11.8542 20.4612 11.5192 20.1285 11.5192 19.7185V11.9201C11.5192 10.6917 12.5258 9.69202 13.7628 9.69202H22.7371C23.9741 9.69202 24.9807 10.6917 24.9807 11.9201V19.7185C24.9807 20.1285 24.6457 20.4612 24.2329 20.4612C23.82 20.4612 23.485 20.1285 23.485 19.7185V11.9201C23.485 11.5109 23.1492 11.1774 22.7371 11.1774H13.7628C13.3507 11.1774 13.0149 11.5109 13.0149 11.9201V19.7185C13.0149 20.1285 12.6799 20.4612 12.2671 20.4612Z" fill="#FA8900"/>
<path d="M25.8603 14.6866L24.0833 13.7305V15.3694L25.1617 15.95C25.3958 16.0759 25.5416 16.3177 25.5416 16.5817V17.4803L18.6773 21.0179C18.414 21.1525 18.0859 21.1525 17.8249 21.0194L10.9583 17.4803V16.5817C10.9583 16.3177 11.1041 16.0759 11.3382 15.95L12.4166 15.3694V13.7305L10.6404 14.6866C9.93673 15.0644 9.49996 15.7903 9.49996 16.5817V24.3605C9.49996 25.5505 10.4814 26.5189 11.6875 26.5189H24.8125C26.0185 26.5189 27 25.5505 27 24.3605V16.5817C27 15.7903 26.5632 15.0644 25.8603 14.6866Z" fill="#FA8900"/>
</g>
<defs>
<clipPath id="clip0_676_86">
<rect width="18.8462" height="18.8462" fill="white" transform="translate(8.82689 9.01892)"/>
</clipPath>
</defs>
</svg>
