<svg width="132" height="132" viewBox="0 0 132 132" fill="none" xmlns="http://www.w3.org/2000/svg">
<path fill-rule="evenodd" clip-rule="evenodd" d="M82.7102 104.891C77.1208 104.891 72.5742 100.345 72.5742 94.7552C72.5742 89.1657 77.1208 84.6226 82.7102 84.6226C86.0162 84.6226 89.1211 86.2415 91.0195 88.9544C91.6466 89.8542 91.4319 91.0948 90.5287 91.7253C89.6289 92.3558 88.3883 92.1377 87.7578 91.2345C86.6058 89.5883 84.7211 88.5999 82.7102 88.5999C79.3157 88.5999 76.555 91.3606 76.555 94.7552C76.555 98.1497 79.3157 100.91 82.7102 100.91C85.3993 100.91 87.7578 99.1893 88.5758 96.6365C88.9098 95.5902 90.0311 95.0108 91.0774 95.3482C92.1237 95.6822 92.7031 96.8001 92.3657 97.8498C91.7147 99.8777 90.4605 101.626 88.7428 102.904C86.9875 104.203 84.8983 104.891 82.7102 104.891Z" fill="#9291B1"/>
<path fill-rule="evenodd" clip-rule="evenodd" d="M90.481 99.2335H83.7668C82.6694 99.2335 81.7764 98.3439 81.7764 97.2431C81.7764 96.1456 82.666 95.2527 83.7668 95.2527H90.481C91.5784 95.2527 92.4714 96.1422 92.4714 97.2431C92.4714 98.3439 91.5818 99.2335 90.481 99.2335ZM50.0153 104.922H41.6584C40.5609 104.922 39.668 104.032 39.668 102.931V86.5788C39.668 85.4813 40.5575 84.5884 41.6584 84.5884C42.7558 84.5884 43.6488 85.4779 43.6488 86.5788V100.941H50.0153C51.1127 100.941 52.0057 101.831 52.0057 102.931C51.9989 104.029 51.1127 104.922 50.0153 104.922Z" fill="#9291B1"/>
<path fill-rule="evenodd" clip-rule="evenodd" d="M61.2719 104.963C58.7635 104.963 56.4152 103.876 54.6702 101.895C52.9832 99.9868 52.0527 97.4681 52.0527 94.7961C52.0527 92.1275 52.9832 89.6054 54.6702 87.6968C56.4186 85.72 58.7635 84.6294 61.2719 84.6294C63.7804 84.6294 66.1286 85.7166 67.8771 87.6968C69.5641 89.6054 70.4946 92.124 70.4946 94.7961C70.4946 97.4647 69.5641 99.9868 67.8771 101.895C66.1252 103.872 63.7804 104.963 61.2719 104.963ZM61.2719 88.6102C58.3818 88.6102 56.0301 91.3845 56.0301 94.7995C56.0301 98.2111 58.3818 100.989 61.2719 100.989C64.1621 100.989 66.5138 98.2111 66.5138 94.7995C66.5138 91.3845 64.1621 88.6102 61.2719 88.6102Z" fill="#9291B1"/>
<path fill-rule="evenodd" clip-rule="evenodd" d="M84.1387 34.1436C83.0412 34.1436 82.1483 33.254 82.1483 32.1532V12.2288H27.6953V77.4346H104.441V34.1436H84.1387Z" fill="#FDD15A"/>
<path fill-rule="evenodd" clip-rule="evenodd" d="M101.568 30.1592L86.1289 14.9824V30.1592H101.568Z" fill="#FFB128"/>
<path fill-rule="evenodd" clip-rule="evenodd" d="M61.2731 100.985C64.1632 100.985 66.5149 98.2076 66.5149 94.796C66.5149 91.3844 64.1632 88.6067 61.2731 88.6067C58.3829 88.6067 56.0312 91.381 56.0312 94.796C56.0312 98.211 58.3829 100.985 61.2731 100.985Z" fill="white"/>
<path fill-rule="evenodd" clip-rule="evenodd" d="M112.59 107.965V81.5857C112.59 81.4937 112.515 81.4187 112.423 81.4187H106.431H19.7158C19.6238 81.4187 19.5488 81.4937 19.5488 81.5857V107.965C19.5488 108.057 19.6238 108.132 19.7158 108.132H112.423C112.515 108.132 112.59 108.057 112.59 107.965ZM83.7663 95.256H90.3578C90.535 95.2458 90.7157 95.2594 90.8929 95.3003H90.8963C91.7927 95.4912 92.4675 96.2921 92.4675 97.2464C92.4675 97.5395 92.4027 97.819 92.2903 98.0678C91.6223 100.004 90.3987 101.674 88.7389 102.904C86.9837 104.203 84.8945 104.894 82.7064 104.894C77.1169 104.894 72.5704 100.348 72.5704 94.7584C72.5704 89.169 77.1169 84.6258 82.7064 84.6258C86.0123 84.6258 89.1172 86.2447 91.0156 88.9577C91.6427 89.8574 91.428 91.098 90.5248 91.7285C89.625 92.3591 88.3845 92.1409 87.7539 91.2378C86.602 89.5916 84.7172 88.6032 82.7064 88.6032C79.3118 88.6032 76.5512 91.3639 76.5512 94.7584C76.5512 98.153 79.3118 100.914 82.7064 100.914C84.3253 100.914 85.8249 100.29 86.9394 99.2368H83.7663C82.6689 99.2368 81.7759 98.3473 81.7759 97.2464C81.7793 96.1456 82.6689 95.256 83.7663 95.256ZM70.4948 94.7993C70.4948 97.468 69.5643 99.99 67.8773 101.899C66.1254 103.875 63.7806 104.966 61.2721 104.966C58.7637 104.966 56.4154 103.879 54.6704 101.899C52.9834 99.99 52.0529 97.4714 52.0529 94.7993C52.0529 92.1307 52.9834 89.6086 54.6704 87.7C56.4189 85.7233 58.7637 84.6326 61.2721 84.6326C63.7806 84.6326 66.1288 85.7199 67.8773 87.7C69.5643 89.6052 70.4948 92.1273 70.4948 94.7993ZM51.9984 102.928C51.9984 104.025 51.1123 104.922 50.0114 104.922H41.6545C40.557 104.922 39.6641 104.032 39.6641 102.931V86.5787C39.6641 85.4813 40.5536 84.5883 41.6545 84.5883C42.7519 84.5883 43.6449 85.4779 43.6449 86.5787V100.941H50.0114C51.1089 100.941 51.9984 101.83 51.9984 102.928Z" fill="white"/>
<path d="M104.441 112.113H27.6953V120.17H104.441V112.113Z" fill="#FDD15A"/>
<path d="M70.5606 39.0153C70.4955 38.8938 70.3987 38.7922 70.2805 38.7214C70.1623 38.6505 70.0271 38.6131 69.8892 38.613H39.4351C39.2973 38.613 39.1621 38.6505 39.0439 38.7213C38.9257 38.7921 38.8289 38.8937 38.7639 39.0152C38.6989 39.1367 38.6681 39.2735 38.6747 39.4112C38.6814 39.5488 38.7253 39.6821 38.8017 39.7967L47.81 53.3092V67.5444C47.81 67.6675 47.8398 67.7887 47.8969 67.8977C47.9539 68.0067 48.0365 68.1002 48.1377 68.1703C48.2388 68.2404 48.3554 68.2849 48.4774 68.3001C48.5995 68.3153 48.7235 68.3006 48.8387 68.2574L61.0203 63.6893C61.1654 63.6349 61.2905 63.5374 61.3788 63.41C61.467 63.2826 61.5143 63.1313 61.5144 62.9763V53.3092L70.5227 39.7967C70.5991 39.6821 70.643 39.5488 70.6497 39.4112C70.6564 39.2736 70.6256 39.1368 70.5606 39.0153Z" fill="white"/>
<path d="M71.4109 31.0459H37.9114C37.0704 31.0459 36.3887 31.7276 36.3887 32.5686V34.8527C36.3887 35.6936 37.0704 36.3754 37.9114 36.3754H71.4109C72.2519 36.3754 72.9336 35.6936 72.9336 34.8527V32.5686C72.9336 31.7276 72.2519 31.0459 71.4109 31.0459Z" fill="white"/>
<path d="M55.1989 28.5388C55.0561 28.6816 54.8624 28.7618 54.6605 28.7618C54.4586 28.7618 54.2649 28.6816 54.1222 28.5388C53.9794 28.3961 53.8992 28.2024 53.8992 28.0005V19.6256C53.8992 19.4237 53.9794 19.23 54.1222 19.0873C54.2649 18.9445 54.4586 18.8643 54.6605 18.8643C54.8624 18.8643 55.0561 18.9445 55.1989 19.0873C55.3417 19.23 55.4219 19.4237 55.4219 19.6256V28.0005C55.4219 28.2024 55.3417 28.3961 55.1989 28.5388Z" fill="white"/>
<path d="M44.5399 28.5388C44.3972 28.6816 44.2035 28.7618 44.0016 28.7618C43.7997 28.7618 43.606 28.6816 43.4632 28.5388C43.3204 28.3961 43.2402 28.2024 43.2402 28.0005V21.9097C43.2402 21.7077 43.3204 21.5141 43.4632 21.3713C43.606 21.2285 43.7997 21.1483 44.0016 21.1483C44.2035 21.1483 44.3972 21.2285 44.5399 21.3713C44.6827 21.5141 44.7629 21.7077 44.7629 21.9097V28.0005C44.7629 28.2024 44.6827 28.3961 44.5399 28.5388Z" fill="white"/>
<path d="M65.8578 28.5388C65.715 28.6816 65.5214 28.7618 65.3195 28.7618C65.1175 28.7618 64.9239 28.6816 64.7811 28.5388C64.6383 28.3961 64.5581 28.2024 64.5581 28.0005V23.4324C64.5581 23.2304 64.6383 23.0368 64.7811 22.894C64.9239 22.7512 65.1175 22.671 65.3195 22.671C65.5214 22.671 65.715 22.7512 65.8578 22.894C66.0006 23.0368 66.0808 23.2304 66.0808 23.4324V28.0005C66.0808 28.2024 66.0006 28.3961 65.8578 28.5388Z" fill="white"/>
</svg>
