<svg width="45" height="47" viewBox="0 0 45 47" fill="none" xmlns="http://www.w3.org/2000/svg">
<g opacity="0.4">
<g clip-path="url(#clip0_1006_199)">
<path d="M44.9763 23.4558C44.9763 21.5691 44.8232 20.1924 44.4919 18.7646H22.9482V27.28H35.5939C35.339 29.3962 33.9623 32.5831 30.9028 34.7246L30.8599 35.0097L37.6716 40.2867L38.1435 40.3338C42.4776 36.3309 44.9763 30.4415 44.9763 23.4558Z" fill="#4285F4"/>
<path d="M22.9481 45.8918C29.1434 45.8918 34.3444 43.8521 38.1433 40.3338L30.9026 34.7247C28.965 36.076 26.3644 37.0193 22.9481 37.0193C16.8802 37.0193 11.7302 33.0166 9.89433 27.4841L9.62524 27.507L2.54233 32.9885L2.44971 33.246C6.22299 40.7416 13.9736 45.8918 22.9481 45.8918Z" fill="#34A853"/>
<path d="M9.89457 27.4841C9.41016 26.0564 9.12982 24.5266 9.12982 22.9459C9.12982 21.3651 9.41016 19.8354 9.86908 18.4077L9.85625 18.1036L2.68459 12.5341L2.44994 12.6457C0.894791 15.7561 0.00244141 19.2491 0.00244141 22.9459C0.00244141 26.6427 0.894791 30.1355 2.44994 33.246L9.89457 27.4841Z" fill="#FBBC05"/>
<path d="M22.9481 8.87235C27.2567 8.87235 30.1632 10.7335 31.8204 12.2888L38.2962 5.96593C34.3191 2.2691 29.1434 0 22.9481 0C13.9736 0 6.22299 5.15004 2.44971 12.6456L9.86884 18.4077C11.7302 12.8752 16.8802 8.87235 22.9481 8.87235Z" fill="#EB4335"/>
</g>
</g>
<defs>
<clipPath id="clip0_1006_199">
<rect width="45" height="46.0499" rx="5" fill="white"/>
</clipPath>
</defs>
</svg>
