<svg width="33" height="33" viewBox="0 0 33 33" fill="none" xmlns="http://www.w3.org/2000/svg">
<path d="M6.19698 16.7963C5.47356 16.7963 4.89533 16.59 4.4623 16.1774C4.02926 15.7647 3.81274 15.2119 3.81274 14.5191C3.81274 13.7753 4.07766 13.1818 4.60749 12.7386C5.13732 12.2953 5.85056 12.0737 6.74719 12.0737C7.31778 12.0737 7.95969 12.1603 8.67292 12.3335V11.3248C8.67292 10.7746 8.54811 10.3874 8.29848 10.1633C8.04884 9.93911 7.62345 9.82703 7.0223 9.82703C6.31925 9.82703 5.63149 9.92892 4.95901 10.1327C4.72466 10.204 4.57692 10.2397 4.51579 10.2397C4.39352 10.2397 4.33239 10.148 4.33239 9.96458V9.55193C4.33239 9.41947 4.35276 9.32267 4.39352 9.26154C4.43428 9.20041 4.51579 9.14437 4.63806 9.09342C4.95392 8.95077 5.35384 8.83615 5.83782 8.74954C6.3218 8.66293 6.80323 8.61963 7.28212 8.61963C8.25008 8.61963 8.96331 8.82086 9.42182 9.22333C9.88033 9.6258 10.1096 10.2397 10.1096 11.065V16.292C10.1096 16.4958 10.0077 16.5977 9.80391 16.5977H9.14672C8.95312 16.5977 8.84104 16.5009 8.81048 16.3073L8.73406 15.8029C8.36725 16.1188 7.96224 16.3633 7.51901 16.5365C7.07579 16.7097 6.63511 16.7963 6.19698 16.7963ZM6.56379 15.6501C6.90003 15.6501 7.25155 15.5838 7.61836 15.4514C7.98516 15.3189 8.33668 15.1253 8.67292 14.8706V13.3117C8.12271 13.1792 7.58269 13.113 7.05286 13.113C5.9015 13.113 5.32582 13.5562 5.32582 14.4427C5.32582 14.8299 5.4328 15.1279 5.64677 15.3368C5.86074 15.5456 6.16642 15.6501 6.56379 15.6501Z" fill="#555555"/>
<path d="M14.0528 16.5974C13.8999 16.5974 13.7904 16.5694 13.7242 16.5133C13.6579 16.4573 13.5942 16.3427 13.5331 16.1695L11.2711 9.41413C11.21 9.23072 11.1794 9.11355 11.1794 9.0626C11.1794 8.91996 11.2559 8.84863 11.4087 8.84863H12.2799C12.4429 8.84863 12.5575 8.87665 12.6237 8.93269C12.69 8.98873 12.7486 9.10336 12.7995 9.27657L14.4654 15.0538L15.9938 9.27657C16.0447 9.10336 16.1059 8.98873 16.1772 8.93269C16.2485 8.87665 16.3606 8.84863 16.5134 8.84863H17.2165C17.3693 8.84863 17.4814 8.87665 17.5527 8.93269C17.624 8.98873 17.6852 9.10336 17.7361 9.27657L19.2797 15.1302L20.9915 9.27657C21.0424 9.10336 21.101 8.98873 21.1673 8.93269C21.2335 8.87665 21.3481 8.84863 21.5111 8.84863H22.3365C22.4893 8.84863 22.5657 8.91996 22.5657 9.0626C22.5657 9.11355 22.5351 9.23072 22.474 9.41413L20.1509 16.1695C20.0898 16.3427 20.0261 16.4573 19.9599 16.5133C19.8936 16.5694 19.7841 16.5974 19.6313 16.5974H18.8824C18.7295 16.5974 18.6175 16.5668 18.5461 16.5057C18.4748 16.4446 18.4137 16.3274 18.3627 16.1542L16.8344 10.5298L15.3213 16.1542C15.2703 16.3274 15.2092 16.4446 15.1379 16.5057C15.0666 16.5668 14.9545 16.5974 14.8017 16.5974H14.0528Z" fill="#555555"/>
<path d="M25.9586 16.8269C25.1027 16.8269 24.3335 16.6843 23.6508 16.399C23.5285 16.348 23.4445 16.292 23.3986 16.2309C23.3528 16.1697 23.3298 16.0729 23.3298 15.9405V15.5125C23.3298 15.3291 23.391 15.2374 23.5132 15.2374C23.5846 15.2374 23.7119 15.268 23.8953 15.3291C24.5678 15.5431 25.2658 15.6501 25.9892 15.6501C26.4884 15.6501 26.868 15.5533 27.1278 15.3597C27.3876 15.1661 27.5175 14.8859 27.5175 14.5191C27.5175 14.2746 27.4386 14.0759 27.2806 13.923C27.1227 13.7702 26.8349 13.6174 26.4171 13.4645L25.118 12.9755C23.987 12.5577 23.4215 11.8445 23.4215 10.8357C23.4215 10.1735 23.6788 9.63853 24.1934 9.23097C24.7079 8.82341 25.3829 8.61963 26.2184 8.61963C26.8807 8.61963 27.5277 8.7368 28.1594 8.97115C28.2817 9.01191 28.3683 9.0654 28.4193 9.13163C28.4702 9.19786 28.4957 9.2972 28.4957 9.42966V9.84232C28.4957 10.0257 28.4295 10.1174 28.297 10.1174C28.2257 10.1174 28.1085 10.0919 27.9455 10.041C27.4055 9.87798 26.8552 9.79646 26.2948 9.79646C25.3167 9.79646 24.8276 10.1276 24.8276 10.7899C24.8276 11.0548 24.9091 11.2637 25.0722 11.4165C25.2352 11.5694 25.5561 11.7375 26.035 11.9209L27.2271 12.3794C27.8283 12.6137 28.2613 12.8914 28.5263 13.2123C28.7912 13.5333 28.9236 13.9485 28.9236 14.458C28.9236 15.1814 28.6536 15.7571 28.1136 16.185C27.5736 16.6129 26.8552 16.8269 25.9586 16.8269Z" fill="#555555"/>
<path d="M29.008 18.031C28.0267 18.0452 26.8682 18.2675 25.9921 18.8924C25.7213 19.0909 25.768 19.3559 26.0665 19.3181C27.0646 19.1952 29.2638 18.9302 29.6557 19.4411C30.0476 19.9424 29.2182 22.0531 28.8446 22.9905C28.733 23.2737 28.9753 23.3881 29.2268 23.1703C30.8675 21.7697 31.2966 18.845 30.961 18.419C30.7933 18.2111 29.9894 18.0166 29.008 18.031ZM1.6741 18.5102C1.45552 18.5379 1.35649 18.8053 1.58733 19.0166C5.4797 22.575 10.6319 24.7168 16.3506 24.7168C20.4309 24.7168 25.1761 23.4203 28.442 20.9775C28.978 20.5744 28.5121 19.9617 27.9657 20.2124C24.303 21.7812 20.3213 22.5454 16.698 22.5454C11.3272 22.5454 6.13471 21.0475 1.92521 18.5737C1.83325 18.5185 1.74696 18.5011 1.6741 18.5102Z" fill="#FF9900"/>
</svg>
