<svg width="20" height="20" viewBox="0 0 20 20" fill="none" xmlns="http://www.w3.org/2000/svg">
<path fill-rule="evenodd" clip-rule="evenodd" d="M15.5 10C15.5 11.4587 14.9205 12.8576 13.8891 13.8891C12.8576 14.9205 11.4587 15.5 10 15.5C8.54131 15.5 7.14236 14.9205 6.11091 13.8891C5.07946 12.8576 4.5 11.4587 4.5 10C4.5 8.54131 5.07946 7.14236 6.11091 6.11091C7.14236 5.07946 8.54131 4.5 10 4.5C11.4587 4.5 12.8576 5.07946 13.8891 6.11091C14.9205 7.14236 15.5 8.54131 15.5 10ZM17 10C17 11.8565 16.2625 13.637 14.9497 14.9497C13.637 16.2625 11.8565 17 10 17C8.14348 17 6.36301 16.2625 5.05025 14.9497C3.7375 13.637 3 11.8565 3 10C3 8.14348 3.7375 6.36301 5.05025 5.05025C6.36301 3.7375 8.14348 3 10 3C11.8565 3 13.637 3.7375 14.9497 5.05025C16.2625 6.36301 17 8.14348 17 10ZM13.5 10.75C13.6989 10.75 13.8897 10.671 14.0303 10.5303C14.171 10.3897 14.25 10.1989 14.25 10C14.25 9.80109 14.171 9.61032 14.0303 9.46967C13.8897 9.32902 13.6989 9.25 13.5 9.25H8.31L9.53 8.03C9.5996 7.9604 9.65481 7.87777 9.69248 7.78683C9.73015 7.6959 9.74953 7.59843 9.74953 7.5C9.74953 7.40157 9.73015 7.3041 9.69248 7.21317C9.65481 7.12223 9.5996 7.0396 9.53 6.97C9.4604 6.9004 9.37777 6.84519 9.28683 6.80752C9.1959 6.76985 9.09843 6.75047 9 6.75047C8.90157 6.75047 8.8041 6.76985 8.71317 6.80752C8.62223 6.84519 8.5396 6.9004 8.47 6.97L5.97 9.47C5.82955 9.61063 5.75066 9.80125 5.75066 10C5.75066 10.1988 5.82955 10.3894 5.97 10.53L8.47 13.03C8.5396 13.0996 8.62223 13.1548 8.71317 13.1925C8.8041 13.2301 8.90157 13.2495 9 13.2495C9.09843 13.2495 9.1959 13.2301 9.28683 13.1925C9.37777 13.1548 9.4604 13.0996 9.53 13.03C9.5996 12.9604 9.65481 12.8778 9.69248 12.7868C9.73015 12.6959 9.74953 12.5984 9.74953 12.5C9.74953 12.4016 9.73015 12.3041 9.69248 12.2132C9.65481 12.1222 9.5996 12.0396 9.53 11.97L8.31 10.75H13.5Z" fill="#214A72"/>
</svg>
