<svg width="32" height="32" viewBox="0 0 32 32" fill="none" xmlns="http://www.w3.org/2000/svg">
<path d="M9.54832 16.0211V5.10534H16.1828C18.4237 5.10534 19.9031 6.40267 19.9031 8.37096C19.9031 10.6078 17.9792 12.3085 14.0301 13.6059C11.3406 14.4552 10.1306 15.1718 9.68198 16.0232H9.54832V16.0211ZM9.54832 26.9835V22.4226C9.54832 20.4087 11.2525 18.4394 13.6281 17.6783C15.7353 16.9627 17.482 16.2461 18.9624 15.487C20.9349 16.6516 22.1439 18.6624 22.1439 20.7665C22.1439 24.3453 18.7366 26.9856 14.1202 26.9856L9.54832 26.9835ZM5.51416 30.8309H14.4786C21.2934 30.8309 26.4019 26.5802 26.4019 20.9429C26.4019 17.8546 24.8334 15.0816 22.0538 13.2907C23.4887 11.8585 24.161 10.2034 24.161 8.18954C24.161 4.02897 21.1577 1.25391 16.6314 1.25391H5.51416V30.8309Z" fill="#0B996E"/>
</svg>
