<svg width="33" height="32" viewBox="0 0 33 32" fill="none" xmlns="http://www.w3.org/2000/svg">
<path d="M10.0486 16.0206V5.10486H16.6831C18.9239 5.10486 20.4033 6.40218 20.4033 8.37047C20.4033 10.6073 18.4794 12.3081 14.5303 13.6054C11.8409 14.4547 10.6308 15.1713 10.1822 16.0227H10.0486V16.0206ZM10.0486 26.9831V22.4221C10.0486 20.4082 11.7528 18.4389 14.1283 17.6778C16.2355 16.9622 17.9822 16.2456 19.4626 15.4865C21.4352 16.6511 22.6442 18.6619 22.6442 20.766C22.6442 24.3448 19.2368 26.9851 14.6204 26.9851L10.0486 26.9831ZM6.0144 30.8304H14.9789C21.7936 30.8304 26.9021 26.5797 26.9021 20.9424C26.9021 17.8541 25.3336 15.0811 22.5541 13.2902C23.9889 11.8581 24.6613 10.2029 24.6613 8.18905C24.6613 4.02848 21.6579 1.25342 17.1316 1.25342H6.0144V30.8304Z" fill="#0B996E"/>
</svg>
