<svg width="20" height="20" viewBox="0 0 20 20" fill="none" xmlns="http://www.w3.org/2000/svg">
<path fill-rule="evenodd" clip-rule="evenodd" d="M15.7101 5.1552C15.7877 5.21593 15.8525 5.29135 15.9009 5.37713C15.9493 5.46292 15.9803 5.55741 15.9922 5.65519C16.0041 5.75297 15.9966 5.85214 15.9702 5.94702C15.9437 6.04191 15.8989 6.13066 15.8381 6.2082L8.90912 15.0542L8.89912 15.0672C8.85412 15.1242 8.79512 15.2012 8.73612 15.2642C8.63116 15.3806 8.50031 15.4707 8.35412 15.5272C8.12362 15.6135 7.8694 15.6117 7.64012 15.5222C7.49416 15.464 7.36397 15.3722 7.26012 15.2542C7.20186 15.1848 7.14518 15.1141 7.09012 15.0422L4.15812 11.2022C4.03745 11.044 3.98456 10.8443 4.0111 10.6471C4.03764 10.45 4.14142 10.2714 4.29962 10.1507C4.45782 10.03 4.65748 9.97714 4.85468 10.0037C5.05187 10.0302 5.23045 10.134 5.35112 10.2922L8.00812 13.7722L14.6581 5.2832C14.7808 5.12687 14.9604 5.02559 15.1576 5.00159C15.3549 4.97759 15.5536 5.03284 15.7101 5.1552Z" fill="#DCDFE6"/>
</svg>
