<svg width="32" height="32" viewBox="0 0 32 32" fill="none" xmlns="http://www.w3.org/2000/svg">
<rect x="2" y="2" width="28" height="28" rx="6" fill="#F4F6FB"/>
<path d="M12.8 19.3C13.2 17.1 15.1 15.5 17.4 15.5C19.6 15.5 21.5 17 22 19.1C22.1 19.1 22.1 19.1 22.2 19.1C23.6 19.1 24.7 20.2 24.7 21.6C24.7 23 23.6 24.1 22.2 24.1H10.2C8.7 24.1 7.5 22.9 7.5 21.4C7.5 19.9 8.7 18.7 10.2 18.7C11.1 18.7 12 19 12.8 19.3Z" fill="#F38020"/>
<path d="M20 18.7C20.2 17.3 21.5 16.3 23 16.3C24.5 16.3 25.8 17.4 26 18.9C26.1 18.9 26.2 18.9 26.3 18.9C27.2 18.9 28 19.7 28 20.6C28 21.5 27.2 22.3 26.3 22.3H18.5C17.5 22.3 16.7 21.5 16.7 20.5C16.7 19.5 17.5 18.7 18.5 18.7H20Z" fill="#F9AE40"/>
</svg>
