<svg width="32" height="32" viewBox="0 0 32 32" fill="none" xmlns="http://www.w3.org/2000/svg">
<g clip-path="url(#clip0_1558_442)">
<path d="M31.127 16.6984C31.127 15.4333 31.0243 14.5101 30.8022 13.5527H16.3561V19.2627H24.8356C24.6647 20.6817 23.7415 22.8187 21.69 24.2547L21.6612 24.4459L26.2288 27.9843L26.5453 28.0159C29.4515 25.3318 31.127 21.3826 31.127 16.6984Z" fill="#4285F4"/>
<path d="M16.356 31.7422C20.5103 31.7422 23.9978 30.3744 26.5452 28.0153L21.6899 24.2541C20.3907 25.1602 18.6468 25.7927 16.356 25.7927C12.2872 25.7927 8.83386 23.1087 7.60283 19.3989L7.42239 19.4142L2.67295 23.0899L2.61084 23.2625C5.14101 28.2887 10.3382 31.7422 16.356 31.7422Z" fill="#34A853"/>
<path d="M7.60289 19.3993C7.27807 18.4419 7.09009 17.4161 7.09009 16.3562C7.09009 15.2962 7.27807 14.2705 7.5858 13.3131L7.5772 13.1092L2.76824 9.37451L2.6109 9.44935C1.56809 11.5351 0.969727 13.8773 0.969727 16.3562C0.969727 18.8351 1.56809 21.1772 2.6109 23.2629L7.60289 19.3993Z" fill="#FBBC05"/>
<path d="M16.356 6.91908C19.2452 6.91908 21.1941 8.16708 22.3054 9.21L26.6477 4.97018C23.9808 2.49127 20.5103 0.969727 16.356 0.969727C10.3382 0.969727 5.14101 4.42308 2.61084 9.44925L7.58574 13.313C8.83386 9.60318 12.2872 6.91908 16.356 6.91908Z" fill="#EB4335"/>
</g>
<defs>
<clipPath id="clip0_1558_442">
<rect width="32" height="32" fill="white"/>
</clipPath>
</defs>
</svg>
