<svg width="30" height="30" viewBox="0 0 30 30" fill="none" xmlns="http://www.w3.org/2000/svg">
<g clip-path="url(#clip0_1561_529)">
<path d="M29.5793 10.1664C29.4629 9.99688 29.2692 9.90994 29.0739 9.90994H17.9522L23.4982 1.04528C23.641 0.817634 23.649 0.50605 23.4756 0.256223C23.358 0.0865401 23.1623 0 22.9662 0H13.389C12.4275 0 11.529 0.515643 10.9904 1.37645L0.10623 18.7748C-0.0361578 19.0026 -0.0421489 19.3142 0.129396 19.5641C0.245622 19.7333 0.439334 19.8201 0.634842 19.8201H11.7509L6.20434 28.6869C6.10449 28.8468 6.07394 29.0481 6.11947 29.24C6.18957 29.5372 6.45277 29.7322 6.73655 29.7322H16.3081C17.2768 29.7322 18.1821 29.2126 18.7245 28.3454L24.0563 19.8201L29.6021 10.9554C29.7447 10.7278 29.7507 10.4158 29.5793 10.1664Z" fill="#4E48E0"/>
<path d="M24.0576 19.8179L18.7245 28.345C18.1821 29.2124 17.2767 29.7318 16.3081 29.7318H6.73658C6.4528 29.7318 6.18959 29.5369 6.1195 29.2398C6.07397 29.0479 6.10452 28.8466 6.20437 28.6867L11.7519 19.8179H24.0576Z" fill="#4E48E0"/>
<path d="M17.9451 9.91016H29.0739C29.2692 9.91016 29.4629 9.9971 29.5794 10.1664C29.7509 10.416 29.7445 10.7278 29.6023 10.9556L24.0568 19.8203H11.7463L17.9451 9.91016Z" fill="#1C81C1"/>
<path d="M0.634792 19.8201C0.439483 19.8201 0.245772 19.7333 0.129545 19.5641C-0.0421989 19.3142 -0.0362078 19.0026 0.10638 18.775L10.9906 1.37645C11.529 0.515643 12.4276 0 13.389 0H22.9661C23.1622 0 23.3581 0.08674 23.4758 0.256223C23.6489 0.50605 23.6409 0.817634 23.4983 1.04548L11.752 19.8201H0.634792Z" fill="#5CC4CD"/>
</g>
<defs>
<clipPath id="clip0_1561_529">
<rect width="30" height="30" fill="white"/>
</clipPath>
</defs>
</svg>
