<svg width="32" height="32" viewBox="0 0 32 32" fill="none" xmlns="http://www.w3.org/2000/svg">
<path d="M16.64 15.3599H30.08V2.81592C30.08 2.57829 29.9856 2.35039 29.8176 2.18235C29.6496 2.01432 29.4216 1.91992 29.184 1.91992H16.64V15.3599Z" fill="#4CAF50"/>
<path d="M15.36 15.3599V1.91992H2.81604C2.57841 1.91992 2.35051 2.01432 2.18248 2.18235C2.01444 2.35039 1.92004 2.57829 1.92004 2.81592L1.92004 15.3599H15.36Z" fill="#F44336"/>
<path d="M15.36 16.6401H1.92004V29.1841C1.92004 29.4218 2.01444 29.6497 2.18248 29.8177C2.35051 29.9857 2.57841 30.0801 2.81604 30.0801H15.36V16.6401Z" fill="#2196F3"/>
<path d="M16.64 16.6401V30.0801H29.184C29.4216 30.0801 29.6496 29.9857 29.8176 29.8177C29.9856 29.6497 30.08 29.4218 30.08 29.1841V16.6401H16.64Z" fill="#FFC107"/>
</svg>
