<svg width="32" height="32" viewBox="0 0 32 32" fill="none" xmlns="http://www.w3.org/2000/svg">
<path d="M28 8H4C2.89543 8 2 8.89543 2 10V24C2 25.1046 2.89543 26 4 26H28C29.1046 26 30 25.1046 30 24V10C30 8.89543 29.1046 8 28 8Z" fill="url(#paint0_linear_1564_568)"/>
<path d="M3.99606 8.00024C3.62268 8.0024 3.25749 8.10992 2.94257 8.31055C2.62765 8.51117 2.37582 8.79654 2.21606 9.13403L15.4261 19.7781C15.6031 19.9191 15.8227 19.9958 16.0491 19.9958C16.2754 19.9958 16.495 19.9191 16.6721 19.7781L29.8861 9.41821C29.7821 9.0742 29.5849 8.76552 29.3162 8.52686C29.0475 8.28819 28.7179 8.12882 28.3641 8.06616L16.0641 17.7161L3.99606 7.99219V8.00024Z" fill="url(#paint1_linear_1564_568)"/>
<defs>
<linearGradient id="paint0_linear_1564_568" x1="2" y1="17" x2="30" y2="17" gradientUnits="userSpaceOnUse">
<stop stop-color="#FCD635"/>
<stop offset="1" stop-color="#F7A928"/>
</linearGradient>
<linearGradient id="paint1_linear_1564_568" x1="1.95006" y1="14.0001" x2="29.6781" y2="14.0001" gradientUnits="userSpaceOnUse">
<stop stop-color="#F7C028"/>
<stop offset="1" stop-color="#F6A320"/>
</linearGradient>
</defs>
</svg>
