<svg width="32" height="32" viewBox="0 0 32 32" fill="none" xmlns="http://www.w3.org/2000/svg">
<path d="M15.0604 2.25879C16.2558 2.26851 17.4492 2.25879 18.6466 2.27434C19.2168 7.13634 19.7947 11.9958 20.3804 16.8526C21.6614 16.837 22.9443 16.8526 24.2271 16.8526C25.1543 15.144 27.5315 14.4812 29.1682 15.5755C31.0692 16.6621 31.3608 19.6574 29.6755 21.0628C28.1205 22.6625 25.2282 22.1105 24.2077 20.1745H17.1966C16.8719 17.7253 16.4968 15.282 16.1702 12.8329C14.6327 18.4698 13.1613 24.1456 11.6743 29.8039H8.2222C7.39804 26.3731 6.60498 22.9346 5.78277 19.5019C4.22775 19.4883 2.68829 19.5019 1.14106 19.5019C1.12939 18.3959 1.14106 17.2899 1.12939 16.1975H8.76061C9.17269 18.0169 9.6081 19.8285 10.0299 21.6401C11.7346 15.1693 13.3693 8.71792 15.0604 2.25879Z" fill="#199FBF"/>
</svg>
