<svg width="32" height="32" viewBox="0 0 32 32" fill="none" xmlns="http://www.w3.org/2000/svg">
<path d="M17.8695 21.3458C17.7595 21.3461 17.6488 21.3099 17.5572 21.2366C17.4613 21.1605 17.3964 21.052 17.3748 20.9315C17.3531 20.811 17.3762 20.6868 17.4397 20.5821C17.4721 20.5283 20.6737 15.1908 19.0214 12.5305C18.6766 11.9751 18.2893 11.6829 17.8709 11.6619C17.059 11.6254 16.1709 12.534 15.8976 12.8888C15.8159 12.9932 15.6962 13.061 15.5646 13.0776C15.4331 13.0941 15.3003 13.058 15.1953 12.9772C15.0902 12.8964 15.0213 12.7773 15.0035 12.6459C14.9858 12.5145 15.0207 12.3814 15.1006 12.2756C15.1538 12.2067 16.4114 10.5842 17.9212 10.6572C18.6884 10.6954 19.3463 11.1471 19.8756 11.9995C21.1131 13.9915 20.2419 16.9616 19.3808 18.9642C20.2764 18.3436 21.3823 17.7327 22.4373 17.5687C22.7152 17.5273 22.9689 17.714 23.012 17.9882C23.0221 18.0534 23.0194 18.12 23.0038 18.1842C22.9882 18.2484 22.9602 18.3089 22.9212 18.3622C22.8822 18.4156 22.8332 18.4607 22.7768 18.4951C22.7204 18.5294 22.6577 18.5523 22.5925 18.5625C20.6243 18.8685 18.2453 21.1788 18.2218 21.2024C18.1277 21.2943 18.0013 21.3457 17.8698 21.3455L17.8695 21.3458Z" fill="#7CB1F4"/>
<path d="M5.48421 17.112C5.48421 17.3809 5.41353 17.6194 5.27246 17.8303C5.13138 18.0412 4.92767 18.2038 4.6619 18.3187C4.39613 18.4336 4.08726 18.4922 3.72639 18.4922C3.42757 18.4922 3.18048 18.4721 2.97476 18.4348C2.76903 18.3974 2.56159 18.3236 2.34265 18.2227V17.1798C2.57366 17.2947 2.81386 17.3809 3.06095 17.4481C3.30805 17.5154 3.53963 17.5447 3.74822 17.5447C3.92808 17.5447 4.05996 17.5145 4.14386 17.4544C4.22776 17.3944 4.26971 17.3165 4.26971 17.2246C4.27075 17.1686 4.25294 17.1138 4.21914 17.0691C4.18552 17.0246 4.13122 16.9795 4.0568 16.9341C3.98239 16.8887 3.78328 16.7962 3.46004 16.6554C3.16755 16.527 2.94861 16.4026 2.7992 16.2819C2.6498 16.1612 2.54464 16.0233 2.47396 15.867C2.40328 15.7107 2.36822 15.5262 2.36822 15.3125C2.36822 14.9102 2.51849 14.6022 2.81932 14.3787C3.12014 14.1551 3.53302 14.0437 4.05853 14.0437C4.52284 14.0437 4.99634 14.1471 5.47875 14.3548L5.10753 15.2587C4.68805 15.0731 4.32602 14.98 4.02146 14.98C3.86401 14.98 3.74937 15.0068 3.67783 15.0599C3.60629 15.1131 3.57037 15.1797 3.57037 15.261C3.57037 15.3458 3.61577 15.4219 3.70685 15.4892C3.79793 15.5564 4.04474 15.6788 4.44756 15.8569C4.83401 16.0247 5.10265 16.2052 5.25292 16.3977C5.40319 16.5902 5.47846 16.8333 5.47846 17.1257L5.48421 17.112ZM8.00573 18.4279L7.08832 15.307H7.06074L7.12538 16.5459V18.4279H6.05167V14.0951H7.66526L8.60077 17.1714H8.6252L9.54462 14.0951H11.1611V18.4279H10.0448V16.5281L10.0494 16.1991L10.0908 15.313H10.0632L9.15818 18.4276L8.00573 18.4279ZM13.8527 18.4279H12.6411V15.0519H11.5458V14.0945H14.9448V15.0519H13.853L13.8527 18.4279ZM18.7153 15.4699C18.7153 15.9541 18.5671 16.3279 18.272 16.5916C17.9769 16.8554 17.5537 16.9873 17.0126 16.9873H16.6719V18.4247H15.4603V14.0919H17.0124C17.5784 14.0919 18.0036 14.2115 18.2881 14.4505C18.5725 14.6896 18.715 15.0295 18.715 15.4705L18.7153 15.4699ZM16.6719 16.0331H16.8931C17.075 16.0331 17.2198 15.9837 17.3241 15.8848C17.4284 15.786 17.485 15.6498 17.485 15.4757C17.485 15.1832 17.3172 15.0372 16.9822 15.0372H16.6661V16.0331H16.6719ZM22.8622 15.8908H24.7976V18.2262C24.2724 18.3997 23.6943 18.4868 23.0651 18.4868C22.3738 18.4868 21.8393 18.2931 21.4624 17.9064C21.0854 17.5197 20.8964 16.9669 20.8964 16.2497C20.8964 15.5501 21.1032 15.0056 21.5158 14.6166C21.9284 14.2275 22.5079 14.0327 23.2521 14.0327C23.5202 14.0329 23.7877 14.0589 24.0508 14.1103C24.3037 14.1592 24.52 14.227 24.7059 14.3057L24.3227 15.2246C23.9994 15.0703 23.6446 14.9933 23.2581 14.9933C22.9047 14.9933 22.6306 15.1045 22.4378 15.3265C22.245 15.5486 22.1482 15.8667 22.1482 16.2793C22.1482 16.6816 22.2353 16.993 22.4102 17.2056C22.5852 17.4182 22.8372 17.524 23.1659 17.524C23.346 17.524 23.5115 17.5073 23.663 17.4737V16.795H22.8622V15.8908ZM29.6573 16.2557C29.6573 16.985 29.4726 17.5389 29.1022 17.9185C28.7319 18.298 28.1903 18.4874 27.4766 18.4874C26.7726 18.4874 26.2336 18.2969 25.8581 17.9127C25.4826 17.5286 25.2949 16.9761 25.2949 16.2471C25.2949 15.5288 25.4817 14.9752 25.8552 14.595C26.2287 14.2149 26.7712 14.0244 27.4826 14.0244C28.1963 14.0244 28.7368 14.2132 29.1048 14.5904C29.4729 14.9677 29.6545 15.5274 29.6545 16.2555L29.6573 16.2557ZM26.5715 16.2557C26.5715 17.0936 26.8732 17.5125 27.4766 17.5125C27.7828 17.5125 28.011 17.4108 28.159 17.2073C28.3069 17.0039 28.3811 16.6867 28.3811 16.2592C28.3811 15.8265 28.3058 15.507 28.1561 15.3004C28.0064 15.0938 27.7811 14.9844 27.4823 14.9844C26.8749 14.9841 26.5715 15.4067 26.5715 16.2526V16.2557Z" fill="#222A35"/>
</svg>
