<svg width="57" height="50" viewBox="0 0 57 50" fill="none" xmlns="http://www.w3.org/2000/svg">
<circle cx="32.9999" cy="26" r="23.5" stroke="#8ED2F5"/>
<g clip-path="url(#clip0_116_13)">
<path d="M45.9862 26.2432C45.9862 25.178 45.8978 24.4007 45.7063 23.5946H33.2589V28.4024H40.5653C40.418 29.5972 39.6226 31.3966 37.8549 32.6057L37.8301 32.7666L41.7657 35.746L42.0384 35.7726C44.5426 33.5126 45.9862 30.1874 45.9862 26.2432Z" fill="#4285F4"/>
<path d="M33.2589 38.9107C36.8384 38.9107 39.8434 37.7591 42.0384 35.7726L37.8549 32.6057C36.7353 33.3686 35.2328 33.9012 33.2589 33.9012C29.753 33.9012 26.7775 31.6413 25.7167 28.5176L25.5613 28.5305L21.4689 31.6254L21.4154 31.7708C23.5955 36.0029 28.0737 38.9107 33.2589 38.9107Z" fill="#34A853"/>
<path d="M25.7167 28.5176C25.4369 27.7115 25.2749 26.8478 25.2749 25.9553C25.2749 25.0628 25.4369 24.1992 25.702 23.3931L25.6946 23.2214L21.551 20.0768L21.4154 20.1398C20.5169 21.896 20.0013 23.8681 20.0013 25.9553C20.0013 28.0426 20.5169 30.0146 21.4154 31.7708L25.7167 28.5176Z" fill="#FBBC05"/>
<path d="M33.2589 18.0094C35.7484 18.0094 37.4276 19.0602 38.3852 19.9383L42.1267 16.3684C39.8288 14.2811 36.8384 13 33.2589 13C28.0737 13 23.5955 15.9077 21.4154 20.1398L25.702 23.3931C26.7775 20.2694 29.753 18.0094 33.2589 18.0094Z" fill="#EB4335"/>
</g>
<path d="M-6.10352e-05 21.7333H21.3996V0.333633H-6.10352e-05V21.7333Z" fill="black"/>
<defs>
<clipPath id="clip0_116_13">
<rect width="26" height="26" fill="white" transform="translate(19.9999 13)"/>
</clipPath>
</defs>
</svg>
