<svg width="25" height="24" viewBox="0 0 25 24" fill="none" xmlns="http://www.w3.org/2000/svg">
<path fill-rule="evenodd" clip-rule="evenodd" d="M4.37868 5.87868C3.5 6.75736 3.5 8.17157 3.5 11V13C3.5 15.8284 3.5 17.2426 4.37868 18.1213C5.25736 19 6.67157 19 9.5 19H15.5C18.3284 19 19.7426 19 20.6213 18.1213C21.5 17.2426 21.5 15.8284 21.5 13V11C21.5 8.17157 21.5 6.75736 20.6213 5.87868C19.7426 5 18.3284 5 15.5 5H9.5C6.67157 5 5.25736 5 4.37868 5.87868ZM7.0547 8.16795C6.59517 7.8616 5.9743 7.98577 5.66795 8.4453C5.3616 8.90483 5.48577 9.5257 5.9453 9.83205L11.3906 13.4622C12.0624 13.9101 12.9376 13.9101 13.6094 13.4622L19.0547 9.83205C19.5142 9.5257 19.6384 8.90483 19.3321 8.4453C19.0257 7.98577 18.4048 7.8616 17.9453 8.16795L12.5 11.7982L7.0547 8.16795Z" fill="#646464"/>
</svg>
