<svg width="25" height="24" viewBox="0 0 25 24" fill="none" xmlns="http://www.w3.org/2000/svg">
<rect x="3.5" y="3" width="18" height="18" rx="9" fill="#F9AA39"/>
<path d="M9.07174 10.2856L12.5003 12.4285L15.9289 10.2856L12.5003 8.14278L9.07174 10.2856ZM16.786 10.2856V14.5713C16.786 14.7987 16.6957 15.0167 16.535 15.1774C16.3742 15.3382 16.1562 15.4285 15.9289 15.4285H9.07174C8.84441 15.4285 8.6264 15.3382 8.46565 15.1774C8.30491 15.0167 8.2146 14.7987 8.2146 14.5713V10.2856C8.2146 9.97278 8.38174 9.70278 8.63031 9.55278L12.5003 7.13135L16.3703 9.55278C16.6189 9.70278 16.786 9.97278 16.786 10.2856Z" fill="white"/>
</svg>
