<svg width="25" height="24" viewBox="0 0 25 24" fill="none" xmlns="http://www.w3.org/2000/svg">
<path fill-rule="evenodd" clip-rule="evenodd" d="M12.5 21C17.4706 21 21.5 16.9706 21.5 12C21.5 7.02944 17.4706 3 12.5 3C7.52944 3 3.5 7.02944 3.5 12C3.5 16.9706 7.52944 21 12.5 21ZM17.2682 9.64018C17.6218 9.21591 17.5645 8.58534 17.1402 8.23178C16.7159 7.87821 16.0853 7.93554 15.7318 8.35982L12.1338 12.6774C11.7871 13.0934 11.5922 13.3238 11.4366 13.4653L11.4306 13.4707L11.4242 13.4659C11.2564 13.339 11.0415 13.1272 10.6585 12.7443L9.20711 11.2929C8.81658 10.9024 8.18342 10.9024 7.79289 11.2929C7.40237 11.6834 7.40237 12.3166 7.79289 12.7071L9.24428 14.1585L9.28511 14.1993L9.28512 14.1993C9.61161 14.526 9.9257 14.8402 10.2179 15.0611C10.5453 15.3087 10.974 15.5415 11.5234 15.5165C12.0728 15.4916 12.4787 15.221 12.7823 14.9448C13.0534 14.6983 13.3377 14.3569 13.6333 14.0021L13.6333 14.0021L13.6703 13.9577L17.2682 9.64018Z" fill="#74B27B"/>
</svg>
