<svg xmlns="http://www.w3.org/2000/svg" width="819" height="182" viewBox="0 0 819 182" fill="none"><path d="M280.74 56.5601C280.74 66.5401 277.54 74.0801 271.15 79.1601C264.76 84.2501 257.08 86.7901 248.13 86.7901H232.74V105.26H247.3V118.56H206.71V105.26H217.21V40.8801H206.71V27.5801H247.3C258.59 27.5801 266.99 30.2901 272.49 35.7001C277.99 41.1101 280.74 48.0701 280.74 56.5601ZM264.09 56.8301C264.09 51.7901 262.67 47.8701 259.82 45.0701C256.97 42.2701 252.19 40.8701 245.47 40.8701H232.73V73.6201H245.47C252.09 73.6201 256.85 72.1001 259.75 69.0701C262.64 66.0501 264.09 61.9701 264.09 56.8301Z" fill="#214A72"></path><path d="M344.28 87.2001C344.28 97.0001 341.18 104.9 334.97 110.92C328.76 116.94 320.72 119.95 310.83 119.95C301.22 119.95 293.5 117.06 287.67 111.27C281.84 105.49 278.92 97.6501 278.92 87.7601C278.92 78.6201 281.67 70.7601 287.18 64.1801C292.68 57.6001 300.85 54.3101 311.67 54.3101C322.59 54.3101 330.75 57.5801 336.16 64.1101C341.57 70.6401 344.28 78.3401 344.28 87.2001ZM328.75 86.7901C328.75 80.0701 327.14 74.9401 323.92 71.3901C320.7 67.8501 316.52 66.0701 311.39 66.0701C306.07 66.0701 301.92 67.9601 298.93 71.7401C295.94 75.5201 294.45 80.5801 294.45 86.9301C294.45 92.9001 295.87 97.9401 298.72 102.04C301.57 106.15 305.79 108.2 311.39 108.2C316.8 108.2 321.05 106.22 324.13 102.25C327.21 98.2901 328.75 93.1301 328.75 86.7901Z" fill="#214A72"></path><path d="M401.24 99.8001C401.24 106.33 398.56 111.32 393.19 114.78C387.82 118.23 380.99 119.96 372.69 119.96C368.21 119.96 363.71 119.45 359.18 118.42C354.65 117.39 350.57 115.86 346.93 113.8L349.17 97.5701L360.93 98.6901L360.79 106.81C362.56 107.56 364.45 108.07 366.46 108.35C368.47 108.63 370.26 108.77 371.85 108.77C375.67 108.77 379.01 108.09 381.86 106.74C384.7 105.39 386.13 103.36 386.13 100.65C386.13 98.0401 384.85 96.1701 382.28 95.0501C379.71 93.9301 376.52 93.0701 372.69 92.4601C368.86 91.8501 365.04 91.0101 361.21 89.9401C357.38 88.8701 354.19 87.1001 351.62 84.6201C349.05 82.1501 347.77 78.4401 347.77 73.4901C347.77 66.2101 350.54 61.2201 356.1 58.5101C361.65 55.8001 367.51 54.4501 373.66 54.4501C381.78 54.4501 389.43 56.3601 396.61 60.1901L398.15 75.7301L386.39 77.1301L385.13 67.7501C381.49 66.3501 377.8 65.6501 374.07 65.6501C371.18 65.6501 368.73 66.2301 366.72 67.4001C364.71 68.5701 363.71 70.4101 363.71 72.9301C363.71 75.5401 364.97 77.3601 367.49 78.3901C370.01 79.4201 373.13 80.2301 376.87 80.8401C380.6 81.4501 384.33 82.2901 388.07 83.3601C391.8 84.4301 394.93 86.2101 397.45 88.6801C399.98 91.1501 401.24 94.8601 401.24 99.8001Z" fill="#214A72"></path><path d="M454.56 100.08C452.79 113.33 445.41 119.95 432.45 119.95C425.73 119.95 420.39 118.18 416.43 114.63C412.46 111.09 410.48 106.14 410.48 99.8V66.77H401.24V55.71H410.48V36.26H425.46V55.71H448.83V66.77H425.46V97.42C425.46 104.05 428.35 107.36 434.14 107.36C435.73 107.36 437.5 106.78 439.46 105.61C441.42 104.44 442.77 101.44 443.52 96.58L454.56 100.08Z" fill="#214A72"></path><path d="M543.29 93.08C543.29 101.85 540.19 108.52 533.98 113.09C527.77 117.66 520.05 119.95 510.82 119.95C498.13 119.95 488.38 117.48 481.57 112.53L483.53 94.62L491.93 95.4601L491.37 106.94C494.45 108.53 497.53 109.6 500.61 110.16C503.69 110.72 506.91 111 510.27 111C516.24 111 521.4 109.72 525.73 107.15C530.07 104.59 532.24 100.22 532.24 94.06C532.24 87.16 529.86 82.65 525.1 80.55C520.34 78.4501 515.16 76.75 509.57 75.44C505.28 74.51 501.03 73.32 496.83 71.87C492.63 70.42 489.13 68.14 486.33 65.01C483.53 61.89 482.13 57.34 482.13 51.36C482.13 42.78 485 36.43 490.74 32.33C496.48 28.23 503.27 26.17 511.1 26.17C516.14 26.17 521.22 26.87 526.35 28.27C531.48 29.67 535.49 31.49 538.39 33.73L539.23 51.78L530.83 52.62L529.43 39.04C526.54 37.55 523.6 36.54 520.61 36.03C517.62 35.52 514.78 35.26 512.07 35.26C506.38 35.26 501.78 36.54 498.28 39.11C494.78 41.68 493.03 45.3901 493.03 50.2401C493.03 55.9301 495.13 59.76 499.33 61.72C503.53 63.68 508.19 65.27 513.33 66.48C517.43 67.41 521.8 68.6 526.42 70.05C531.04 71.5 535 73.97 538.32 77.47C541.63 80.98 543.29 86.18 543.29 93.08Z" fill="#214A72"></path><path d="M661.55 36.5401H649.65V109.6H660.99V118.56H628.66V109.6H639.3V51.6601H638.74L608.23 113.94H602.77L571.56 51.2401H571V109.6H581.92V118.56H549.73V109.6H561.21V36.5401H549.31V27.5801H570.16L605.57 98.8201H606.13L640.56 27.5801H661.55V36.5401Z" fill="#214A72"></path><path d="M745.38 55.3001L736.28 56.0001L733.48 36.5501H709.97V109.61H726.06V118.57H684.07V109.61H699.74V36.5501H676.23L673.43 56.0001L664.47 55.3001L667.13 27.5901H742.57L745.38 55.3001Z" fill="#214A72"></path><path d="M818.86 55.4401C818.86 64.9601 815.97 72.2101 810.18 77.2001C804.39 82.1901 797.02 84.6901 788.07 84.6901H770.3V109.6H785.97V118.56H748.6V109.6H760.08V36.5401H748.6V27.5801H787.23C798.52 27.5801 806.61 30.3301 811.51 35.8401C816.41 41.3501 818.86 47.8801 818.86 55.4401ZM807.94 55.7201C807.94 49.8401 806.21 45.1801 802.76 41.7201C799.31 38.2701 793.85 36.5401 786.39 36.5401H770.3V75.7301H786.81C800.89 75.7301 807.94 69.0601 807.94 55.7201Z" fill="#214A72"></path><path d="M232.38 171.19H228.1L210.88 145.08V171.19H206.6V138.35H210.88L228.1 164.42V138.35H232.38V171.19Z" fill="#214A72"></path><path d="M261.18 159.9H240.57C240.73 162.44 241.6 164.43 243.18 165.85C244.76 167.28 246.69 167.99 248.94 167.99C250.79 167.99 252.34 167.56 253.57 166.7C254.81 165.84 255.68 164.68 256.18 163.24H260.79C260.1 165.72 258.72 167.73 256.65 169.29C254.58 170.84 252.01 171.62 248.93 171.62C246.48 171.62 244.3 171.07 242.37 169.97C240.44 168.87 238.93 167.31 237.83 165.29C236.73 163.27 236.18 160.92 236.18 158.26C236.18 155.59 236.71 153.26 237.78 151.25C238.85 149.24 240.34 147.7 242.27 146.62C244.2 145.54 246.42 145 248.93 145C251.38 145 253.54 145.53 255.42 146.6C257.3 147.67 258.75 149.13 259.77 151C260.79 152.87 261.3 154.98 261.3 157.33C261.32 158.13 261.27 158.99 261.18 159.9ZM255.81 152.2C255.09 151.02 254.11 150.13 252.87 149.52C251.63 148.91 250.26 148.6 248.75 148.6C246.59 148.6 244.74 149.29 243.22 150.67C241.7 152.05 240.83 153.96 240.61 156.41H256.89C256.9 154.78 256.54 153.38 255.81 152.2Z" fill="#214A72"></path><path d="M278.54 171.19L272.42 161.59L266.54 171.19H262.07L270.4 158.39L262.07 145.4H266.92L273.04 154.95L278.87 145.4H283.34L275.06 158.15L283.39 171.18H278.54V171.19Z" fill="#214A72"></path><path d="M290.96 148.93V164.13C290.96 165.38 291.23 166.27 291.76 166.79C292.29 167.31 293.22 167.57 294.54 167.57H297.69V171.19H293.83C291.45 171.19 289.66 170.64 288.47 169.54C287.28 168.44 286.68 166.64 286.68 164.13V148.93H283.34V145.4H286.68V138.91H290.96V145.4H297.69V148.93H290.96Z" fill="#214A72"></path><path d="M336.51 147.9C335.6 145.99 334.28 144.5 332.56 143.45C330.83 142.4 328.83 141.87 326.54 141.87C324.25 141.87 322.19 142.4 320.35 143.45C318.51 144.5 317.07 146.01 316.02 147.97C314.97 149.93 314.44 152.2 314.44 154.77C314.44 157.34 314.96 159.6 316.02 161.55C317.07 163.5 318.51 164.99 320.35 166.04C322.19 167.09 324.25 167.62 326.54 167.62C329.74 167.62 332.37 166.66 334.44 164.75C336.51 162.84 337.72 160.25 338.06 156.99H324.98V153.51H342.62V156.8C342.37 159.5 341.52 161.97 340.08 164.21C338.64 166.45 336.74 168.23 334.39 169.53C332.04 170.83 329.42 171.48 326.53 171.48C323.49 171.48 320.71 170.77 318.2 169.34C315.69 167.91 313.71 165.93 312.25 163.39C310.79 160.85 310.06 157.98 310.06 154.78C310.06 151.58 310.79 148.7 312.25 146.15C313.71 143.59 315.69 141.6 318.2 140.17C320.71 138.74 323.49 138.03 326.53 138.03C330.01 138.03 333.09 138.89 335.78 140.62C338.46 142.35 340.41 144.78 341.64 147.91H336.51V147.9Z" fill="#214A72"></path><path d="M369.77 159.9H349.16C349.32 162.44 350.19 164.43 351.77 165.85C353.35 167.28 355.28 167.99 357.53 167.99C359.38 167.99 360.93 167.56 362.16 166.7C363.4 165.84 364.27 164.68 364.77 163.24H369.38C368.69 165.72 367.31 167.73 365.24 169.29C363.17 170.84 360.6 171.62 357.52 171.62C355.07 171.62 352.89 171.07 350.96 169.97C349.03 168.87 347.52 167.31 346.42 165.29C345.32 163.27 344.77 160.92 344.77 158.26C344.77 155.59 345.3 153.26 346.37 151.25C347.44 149.24 348.93 147.7 350.86 146.62C352.79 145.54 355.01 145 357.52 145C359.97 145 362.13 145.53 364.01 146.6C365.89 147.67 367.34 149.13 368.36 151C369.38 152.87 369.89 154.98 369.89 157.33C369.91 158.13 369.87 158.99 369.77 159.9ZM364.41 152.2C363.69 151.02 362.71 150.13 361.47 149.52C360.23 148.91 358.86 148.6 357.35 148.6C355.19 148.6 353.34 149.29 351.82 150.67C350.3 152.05 349.43 153.96 349.21 156.41H365.49C365.49 154.78 365.13 153.38 364.41 152.2Z" fill="#214A72"></path><path d="M393.86 147.78C395.8 149.68 396.78 152.41 396.78 155.99V171.19H392.55V156.6C392.55 154.03 391.91 152.06 390.62 150.7C389.33 149.34 387.58 148.65 385.35 148.65C383.09 148.65 381.3 149.36 379.96 150.77C378.63 152.18 377.96 154.24 377.96 156.93V171.19H373.68V145.41H377.96V149.08C378.81 147.76 379.96 146.74 381.42 146.02C382.88 145.3 384.49 144.94 386.24 144.94C389.38 144.94 391.92 145.88 393.86 147.78Z" fill="#214A72"></path><path d="M425.29 159.9H404.68C404.84 162.44 405.71 164.43 407.29 165.85C408.87 167.28 410.8 167.99 413.05 167.99C414.9 167.99 416.45 167.56 417.68 166.7C418.92 165.84 419.79 164.68 420.29 163.24H424.9C424.21 165.72 422.83 167.73 420.76 169.29C418.69 170.84 416.12 171.62 413.04 171.62C410.59 171.62 408.41 171.07 406.48 169.97C404.55 168.87 403.04 167.31 401.94 165.29C400.84 163.27 400.29 160.92 400.29 158.26C400.29 155.59 400.82 153.26 401.89 151.25C402.96 149.24 404.45 147.7 406.38 146.62C408.31 145.54 410.53 145 413.04 145C415.49 145 417.65 145.53 419.53 146.6C421.41 147.67 422.86 149.13 423.88 151C424.9 152.87 425.41 154.98 425.41 157.33C425.43 158.13 425.39 158.99 425.29 159.9ZM419.93 152.2C419.21 151.02 418.23 150.13 416.99 149.52C415.75 148.91 414.38 148.6 412.87 148.6C410.71 148.6 408.86 149.29 407.34 150.67C405.82 152.05 404.95 153.96 404.73 156.41H421.01C421.01 154.78 420.65 153.38 419.93 152.2Z" fill="#214A72"></path><path d="M436.7 146.16C438.1 145.34 439.8 144.94 441.81 144.94V149.36H440.68C435.88 149.36 433.48 151.96 433.48 157.17V171.19H429.2V145.41H433.48V149.6C434.23 148.12 435.31 146.97 436.7 146.16Z" fill="#214A72"></path><path d="M444.87 151.26C445.94 149.27 447.4 147.72 449.27 146.63C451.14 145.53 453.21 144.98 455.5 144.98C457.76 144.98 459.72 145.47 461.38 146.44C463.04 147.41 464.28 148.64 465.1 150.11V145.4H469.43V171.18H465.1V166.38C464.25 167.89 462.99 169.13 461.31 170.12C459.63 171.11 457.68 171.6 455.45 171.6C453.16 171.6 451.09 171.04 449.24 169.91C447.39 168.78 445.93 167.2 444.86 165.16C443.79 163.12 443.26 160.8 443.26 158.2C443.27 155.57 443.8 153.26 444.87 151.26ZM463.92 153.17C463.14 151.73 462.08 150.62 460.74 149.85C459.41 149.08 457.94 148.7 456.34 148.7C454.74 148.7 453.28 149.08 451.96 149.83C450.64 150.58 449.59 151.68 448.81 153.12C448.03 154.56 447.63 156.26 447.63 158.2C447.63 160.18 448.02 161.89 448.81 163.35C449.59 164.81 450.65 165.92 451.96 166.69C453.28 167.46 454.74 167.84 456.34 167.84C457.94 167.84 459.41 167.46 460.74 166.69C462.07 165.92 463.13 164.81 463.92 163.35C464.7 161.89 465.1 160.19 465.1 158.24C465.1 156.31 464.7 154.61 463.92 153.17Z" fill="#214A72"></path><path d="M480.01 148.93V164.13C480.01 165.38 480.28 166.27 480.81 166.79C481.34 167.31 482.27 167.57 483.59 167.57H486.74V171.19H482.88C480.5 171.19 478.71 170.64 477.52 169.54C476.33 168.44 475.73 166.64 475.73 164.13V148.93H472.39V145.4H475.73V138.91H480.01V145.4H486.74V148.93H480.01Z" fill="#214A72"></path><path d="M490.18 140.37C489.62 139.81 489.33 139.12 489.33 138.3C489.33 137.48 489.61 136.79 490.18 136.23C490.74 135.67 491.43 135.38 492.25 135.38C493.03 135.38 493.7 135.66 494.25 136.23C494.8 136.79 495.07 137.48 495.07 138.3C495.07 139.12 494.8 139.81 494.25 140.37C493.7 140.93 493.03 141.22 492.25 141.22C491.43 141.22 490.74 140.94 490.18 140.37ZM494.32 145.41V171.19H490.04V145.41H494.32Z" fill="#214A72"></path><path d="M504.41 169.97C502.45 168.87 500.91 167.31 499.8 165.29C498.69 163.27 498.13 160.92 498.13 158.26C498.13 155.62 498.7 153.3 499.85 151.27C500.99 149.25 502.56 147.69 504.53 146.61C506.51 145.53 508.72 144.99 511.16 144.99C513.61 144.99 515.82 145.53 517.79 146.61C519.77 147.69 521.33 149.24 522.47 151.24C523.61 153.25 524.19 155.58 524.19 158.25C524.19 160.92 523.6 163.26 522.43 165.28C521.25 167.3 519.66 168.86 517.65 169.96C515.64 171.06 513.42 171.61 510.97 171.61C508.56 171.61 506.37 171.06 504.41 169.97ZM515.3 166.77C516.65 166.05 517.74 164.97 518.57 163.52C519.4 162.08 519.82 160.32 519.82 158.25C519.82 156.18 519.41 154.42 518.6 152.98C517.78 151.54 516.72 150.46 515.4 149.76C514.08 149.05 512.65 148.7 511.12 148.7C509.55 148.7 508.12 149.05 506.81 149.76C505.51 150.47 504.46 151.54 503.68 152.98C502.9 154.42 502.5 156.18 502.5 158.25C502.5 160.35 502.88 162.12 503.65 163.57C504.42 165.01 505.45 166.09 506.73 166.79C508.02 167.5 509.43 167.85 510.96 167.85C512.51 167.85 513.95 167.49 515.3 166.77Z" fill="#214A72"></path><path d="M548.14 147.78C550.08 149.68 551.06 152.41 551.06 155.99V171.19H546.83V156.6C546.83 154.03 546.19 152.06 544.9 150.7C543.61 149.34 541.86 148.65 539.63 148.65C537.37 148.65 535.58 149.36 534.24 150.77C532.91 152.18 532.24 154.24 532.24 156.93V171.19H527.96V145.41H532.24V149.08C533.09 147.76 534.24 146.74 535.7 146.02C537.16 145.3 538.77 144.94 540.52 144.94C543.66 144.94 546.2 145.88 548.14 147.78Z" fill="#214A72"></path><path d="M571.46 170.37C569.75 169.6 568.41 168.53 567.44 167.17C566.47 165.81 565.97 164.23 565.93 162.44H570.49C570.65 163.98 571.28 165.27 572.4 166.32C573.51 167.37 575.14 167.9 577.27 167.9C579.31 167.9 580.92 167.39 582.09 166.37C583.27 165.35 583.85 164.04 583.85 162.44C583.85 161.19 583.5 160.17 582.81 159.38C582.12 158.6 581.26 158 580.22 157.59C579.18 157.18 577.79 156.74 576.03 156.27C573.87 155.71 572.13 155.14 570.83 154.58C569.53 154.02 568.41 153.13 567.49 151.92C566.56 150.71 566.1 149.09 566.1 147.05C566.1 145.26 566.55 143.68 567.46 142.3C568.37 140.92 569.65 139.85 571.29 139.1C572.94 138.35 574.83 137.97 576.96 137.97C580.03 137.97 582.55 138.74 584.51 140.28C586.47 141.82 587.58 143.86 587.83 146.4H583.12C582.96 145.15 582.3 144.04 581.14 143.08C579.98 142.12 578.44 141.65 576.53 141.65C574.74 141.65 573.28 142.11 572.15 143.04C571.02 143.97 570.46 145.26 570.46 146.92C570.46 148.11 570.8 149.08 571.47 149.84C572.14 150.59 572.98 151.17 573.96 151.56C574.95 151.95 576.34 152.4 578.12 152.9C580.28 153.5 582.03 154.08 583.34 154.66C584.66 155.24 585.79 156.13 586.73 157.34C587.67 158.55 588.14 160.19 588.14 162.26C588.14 163.86 587.72 165.37 586.87 166.78C586.02 168.19 584.77 169.34 583.11 170.21C581.45 171.09 579.49 171.53 577.23 171.53C575.1 171.52 573.17 171.14 571.46 170.37Z" fill="#214A72"></path><path d="M625.87 138.63V171.19H621.59V146.91L610.77 171.19H607.76L596.89 146.86V171.19H592.61V138.63H597.22L609.26 165.54L621.31 138.63H625.87Z" fill="#214A72"></path><path d="M651.42 138.39V141.87H642.48V171.18H638.2V141.87H629.21V138.39H651.42Z" fill="#214A72"></path><path d="M673.93 154.79C672.06 156.59 669.22 157.5 665.39 157.5H659.09V171.19H654.81V138.4H665.4C669.1 138.4 671.92 139.29 673.85 141.08C675.78 142.87 676.74 145.17 676.74 148C676.73 150.72 675.8 152.99 673.93 154.79ZM670.66 152.42C671.79 151.39 672.35 149.91 672.35 148C672.35 143.95 670.03 141.93 665.39 141.93H659.09V153.98H665.39C667.78 153.97 669.53 153.45 670.66 152.42Z" fill="#214A72"></path><path d="M724.11 138.63V171.19H719.83V146.91L709.01 171.19H706L695.13 146.86V171.19H690.85V138.63H695.46L707.5 165.54L719.55 138.63H724.11Z" fill="#214A72"></path><path d="M729.48 151.26C730.55 149.27 732.01 147.72 733.88 146.63C735.75 145.53 737.82 144.98 740.11 144.98C742.37 144.98 744.33 145.47 745.99 146.44C747.65 147.41 748.89 148.64 749.71 150.11V145.4H754.04V171.18H749.71V166.38C748.86 167.89 747.6 169.13 745.92 170.12C744.24 171.11 742.29 171.6 740.06 171.6C737.77 171.6 735.7 171.04 733.85 169.91C732 168.78 730.54 167.2 729.47 165.16C728.4 163.12 727.87 160.8 727.87 158.2C727.88 155.57 728.41 153.26 729.48 151.26ZM748.53 153.17C747.75 151.73 746.69 150.62 745.35 149.85C744.02 149.08 742.55 148.7 740.95 148.7C739.35 148.7 737.89 149.08 736.57 149.83C735.25 150.58 734.2 151.68 733.42 153.12C732.64 154.56 732.24 156.26 732.24 158.2C732.24 160.18 732.63 161.89 733.42 163.35C734.2 164.81 735.26 165.92 736.57 166.69C737.89 167.46 739.35 167.84 740.95 167.84C742.55 167.84 744.02 167.46 745.35 166.69C746.68 165.92 747.74 164.81 748.53 163.35C749.31 161.89 749.71 160.19 749.71 158.24C749.71 156.31 749.32 154.61 748.53 153.17Z" fill="#214A72"></path><path d="M759.54 140.37C758.98 139.81 758.69 139.12 758.69 138.3C758.69 137.48 758.97 136.79 759.54 136.23C760.1 135.67 760.79 135.38 761.61 135.38C762.39 135.38 763.06 135.66 763.61 136.23C764.16 136.79 764.43 137.48 764.43 138.3C764.43 139.12 764.16 139.81 763.61 140.37C763.06 140.93 762.39 141.22 761.61 141.22C760.8 141.22 760.11 140.94 759.54 140.37ZM763.68 145.41V171.19H759.4V145.41H763.68Z" fill="#214A72"></path><path d="M773.37 136.37V171.19H769.09V136.37H773.37Z" fill="#214A72"></path><path d="M802.17 159.9H781.56C781.72 162.44 782.59 164.43 784.17 165.85C785.75 167.28 787.68 167.99 789.93 167.99C791.78 167.99 793.33 167.56 794.56 166.7C795.8 165.84 796.67 164.68 797.17 163.24H801.78C801.09 165.72 799.71 167.73 797.64 169.29C795.57 170.84 793 171.62 789.92 171.62C787.47 171.62 785.29 171.07 783.36 169.97C781.43 168.87 779.92 167.31 778.82 165.29C777.72 163.27 777.17 160.92 777.17 158.26C777.17 155.59 777.7 153.26 778.77 151.25C779.84 149.24 781.33 147.7 783.26 146.62C785.19 145.54 787.41 145 789.92 145C792.37 145 794.53 145.53 796.41 146.6C798.29 147.67 799.74 149.13 800.76 151C801.78 152.87 802.29 154.98 802.29 157.33C802.31 158.13 802.26 158.99 802.17 159.9ZM796.81 152.2C796.09 151.02 795.11 150.13 793.87 149.52C792.63 148.91 791.26 148.6 789.75 148.6C787.59 148.6 785.74 149.29 784.22 150.67C782.7 152.05 781.83 153.96 781.61 156.41H797.89C797.89 154.78 797.53 153.38 796.81 152.2Z" fill="#214A72"></path><path d="M813.58 146.16C814.98 145.34 816.68 144.94 818.69 144.94V149.36H817.56C812.76 149.36 810.36 151.96 810.36 157.17V171.19H806.08V145.41H810.36V149.6C811.11 148.12 812.18 146.97 813.58 146.16Z" fill="#214A72"></path><path d="M162.58 15.86L61.42 181.78H6.93996C3.42996 181.78 0.579956 178.93 0.579956 175.42V84.52C0.579956 82.07 1.97996 79.84 4.18996 78.78L154.4 6.80996C160.11 4.07996 165.88 10.46 162.58 15.86Z" fill="#4C5BA5"></path><path d="M61.4199 181.78L103.42 129.16L166.59 158.08C169.94 159.61 173.76 157.17 173.76 153.48V5.58002C173.76 1.86002 169.87 -0.589987 166.51 1.02001L4.08992 78.84C2.80992 79.45 2.91992 81.31 4.26992 81.76L63.7999 101.76C65.6099 102.37 67.5999 101.91 68.9599 100.57L119.06 51.32C123.56 46.89 130.48 53.06 126.6 58.04L73.6399 125.97C73.1699 126.58 72.8399 127.29 72.6799 128.04L61.4199 181.78Z" fill="url(#paint0_linear_117_553)"></path><path d="M63.8799 101.79L3.85992 81.62C3.37992 81.46 3.06991 82.11 3.48991 82.39L72.8299 126.85C72.8699 126.88 72.9299 126.87 72.9599 126.83L166.81 6.45003C167.38 5.72003 166.36 4.81004 165.7 5.46004L68.8799 100.64C67.5699 101.93 65.6299 102.37 63.8799 101.79Z" fill="url(#paint1_linear_117_553)"></path><path d="M9.17992 142.67C8.39992 142.72 7.60992 142.5 6.93992 141.99C5.48992 140.87 5.21991 138.79 6.33991 137.33L26.0199 112.74C27.1399 111.29 29.2299 111.02 30.6799 112.14C32.1299 113.26 32.3999 115.34 31.2799 116.8L11.5999 141.39C10.9899 142.17 10.0999 142.61 9.17992 142.67Z" fill="#FDFDFE"></path><path d="M35.78 131.31L0.579956 174.3V175.41C0.579956 177.73 1.81995 179.75 3.67995 180.86C3.86995 180.71 4.04995 180.54 4.20995 180.35L40.9299 135.51C42.0899 134.09 41.88 132 40.46 130.84C39.03 129.69 36.94 129.9 35.78 131.31Z" fill="#FDFDFE"></path><path d="M41.9199 162.7C41.1299 162.75 40.3299 162.52 39.6599 162C38.2199 160.87 37.9699 158.78 39.0999 157.34L58.4299 132.71C59.5599 131.27 61.6499 131.02 63.0899 132.15C64.5299 133.28 64.7799 135.37 63.6499 136.81L44.3199 161.44C43.7099 162.21 42.8199 162.64 41.9199 162.7Z" fill="#FDFDFE"></path><path d="M31.44 175.77C30.67 175.78 29.9 175.53 29.26 174.99C27.85 173.81 27.67 171.72 28.85 170.31L33.24 165.08C34.42 163.67 36.51 163.49 37.92 164.67C39.33 165.85 39.51 167.94 38.33 169.35L33.94 174.58C33.29 175.36 32.37 175.76 31.44 175.77Z" fill="#FDFDFE"></path><path d="M103.41 129.16L72.9099 126.89L83.5299 154.01L103.41 129.16Z" fill="url(#paint2_linear_117_553)"></path><defs><linearGradient id="paint0_linear_117_553" x1="181.212" y1="128.163" x2="34.5274" y2="45.2639" gradientUnits="userSpaceOnUse"><stop stop-color="#8ED2F5"></stop><stop offset="1" stop-color="#46519E"></stop></linearGradient><linearGradient id="paint1_linear_117_553" x1="42.2731" y1="100.075" x2="158.853" y2="-19.7672" gradientUnits="userSpaceOnUse"><stop stop-color="#FBBC1F"></stop><stop offset="1" stop-color="#FB9E1F"></stop></linearGradient><linearGradient id="paint2_linear_117_553" x1="121.178" y1="123.562" x2="79.712" y2="139.865" gradientUnits="userSpaceOnUse"><stop stop-color="#214A72"></stop><stop offset="1" stop-color="#214A72" stop-opacity="0"></stop></linearGradient></defs></svg>